<?xml version="1.0" standalone="no"?>
<!DOCTYPE svg PUBLIC "-//W3C//DTD SVG 1.1//EN" "http://www.w3.org/Graphics/SVG/1.1/DTD/svg11.dtd" >
<svg>
<metadata>
Created by FontForge 20110222 at Wed Feb  4 20:27:03 2015
 By deploy user
2013 published by FontShop International GmbH
</metadata>
<defs>
<font id="Mark-Regular" horiz-adv-x="1200" >
  <font-face 
    font-family="Mark"
    font-weight="400"
    font-stretch="normal"
    units-per-em="2000"
    panose-1="2 0 5 0 0 0 0 0 0 0"
    ascent="1580"
    descent="-420"
    x-height="947"
    cap-height="1400"
    bbox="-946 -477 2139 1936"
    underline-thickness="136"
    underline-position="-124"
    unicode-range="U+0020-FEFF"
  />
<missing-glyph horiz-adv-x="1201" 
d="M175 1400h851v-1400h-851v1400zM890 136v1128h-579v-1128h579z" />
    <glyph glyph-name="ellipsis" unicode="&#x2e;&#x2e;&#x2e;" horiz-adv-x="1490" 
d="M263 233q50 0 87 -37.5t37 -87.5t-37 -88t-87 -38t-88 38t-38 88t38 87.5t88 37.5zM746 233q50 0 87.5 -37.5t37.5 -87.5t-37.5 -88t-87.5 -38t-87.5 38t-37.5 88t37.5 87.5t87.5 37.5zM1229 233q50 0 87.5 -37.5t37.5 -87.5t-37.5 -88t-87.5 -38t-87.5 38t-37.5 88
t37.5 87.5t87.5 37.5z" />
    <glyph glyph-name=".notdef" horiz-adv-x="1201" 
d="M175 1400h851v-1400h-851v1400zM890 136v1128h-579v-1128h579z" />
    <glyph glyph-name=".null" unicode="&#xe000;" horiz-adv-x="0" 
 />
    <glyph glyph-name="nonmarkingreturn" horiz-adv-x="666" 
 />
    <glyph glyph-name="space" unicode=" " horiz-adv-x="534" 
 />
    <glyph glyph-name="exclam" unicode="!" horiz-adv-x="524" 
d="M329 445h-135l-24 955h183zM262 233q50 0 87.5 -37.5t37.5 -87.5t-37.5 -88t-87.5 -38t-87.5 38t-37.5 88t37.5 87.5t87.5 37.5z" />
    <glyph glyph-name="quotedbl" unicode="&#x22;" horiz-adv-x="1049" 
d="M432 1440v-507h-149v507h149zM766 1440v-507h-149v507h149z" />
    <glyph glyph-name="numbersign" unicode="#" horiz-adv-x="1465" 
d="M492 1032l78 368h139l-78 -368h346l78 368h139l-78 -368h228l-29 -133h-228l-83 -391h227l-28 -133h-227l-80 -375h-139l80 375h-346l-80 -375h-139l80 375h-231l29 133h230l83 391h-230l28 133h231zM519 508h346l83 391h-346z" />
    <glyph glyph-name="dollar" unicode="$" horiz-adv-x="1400" 
d="M782 1580v-190q239 -16 435 -147l-79 -125q-160 108 -356 125v-474l32 -4q192 -23 307 -111.5t113 -246.5q-1 -88 -36.5 -159.5t-97 -120t-142 -78t-176.5 -38.5v-198h-138v196q-131 8 -261.5 54t-216.5 114l83 123q66 -54 174 -95t221 -50v479l-37 5q-188 25 -296 114
t-106 246q2 167 124 269t315 121v191h138zM1079 400q1 86 -74.5 140t-222.5 78v-461q134 15 214.5 77t82.5 166zM362 1003q-1 -88 68 -142.5t214 -75.5v457q-127 -14 -204.5 -77.5t-77.5 -161.5z" />
    <glyph glyph-name="percent" unicode="%" horiz-adv-x="1938" 
d="M463 1419q159 0 264.5 -103.5t105.5 -258.5q0 -156 -105.5 -260t-264.5 -104q-156 0 -261 104t-105 260q0 154 105 258t261 104zM463 1287q-97 0 -161.5 -65t-64.5 -165q0 -101 64.5 -166.5t161.5 -65.5q99 0 164 65t65 167q0 100 -65 165t-164 65zM605 0h-156l883 1400
h156zM1471 707q158 0 264 -104.5t106 -258.5q0 -156 -105.5 -259.5t-264.5 -103.5q-156 0 -261 103.5t-105 259.5q0 154 105 258.5t261 104.5zM1471 575q-97 0 -161.5 -65t-64.5 -166t64.5 -166t161.5 -65q99 0 164.5 65t65.5 166t-65.5 166t-164.5 65z" />
    <glyph glyph-name="ampersand" unicode="&#x26;" horiz-adv-x="1406" 
d="M1154 0l-213 207q-88 -107 -190 -166.5t-241 -59.5q-184 0 -291.5 94t-107.5 256q0 65 21.5 124.5t64 111t85.5 91t104 85.5q-112 110 -158.5 187t-46.5 174q0 133 99.5 224t253.5 91t252 -86.5t98 -220.5q0 -57 -21 -109.5t-63.5 -100.5t-84 -83.5t-103.5 -81.5
l314 -305l217 324l120 -76l-232 -350l339 -330h-216zM519 122q98 0 171.5 45.5t146.5 139.5l-350 338q-104 -78 -160 -150t-56 -159q0 -95 69 -154.5t179 -59.5zM342 1095q0 -60 34.5 -111t134.5 -150q104 75 159 137.5t55 133.5q0 77 -52.5 125t-138.5 48q-87 0 -139.5 -51
t-52.5 -132z" />
    <glyph glyph-name="quotesingle" unicode="'" horiz-adv-x="715" 
d="M432 1440v-507h-149v507h149z" />
    <glyph glyph-name="parenleft" unicode="(" horiz-adv-x="817" 
d="M736 1293q-197 -81 -314 -280t-117 -445t117.5 -445t313.5 -279l-52 -138q-242 93 -390.5 328t-148.5 534t148.5 534t390.5 328z" />
    <glyph glyph-name="parenright" unicode=")" horiz-adv-x="817" 
d="M81 -155q196 80 313.5 279.5t117.5 445.5q0 247 -117 445t-314 279l52 138q242 -93 390.5 -328t148.5 -534t-148.5 -534t-390.5 -328z" />
    <glyph glyph-name="asterisk" unicode="*" horiz-adv-x="897" 
d="M392 1171v269h114v-269l255 84l35 -110l-255 -83l158 -217l-93 -67l-158 217l-157 -217l-93 67l158 217l-255 83l35 110z" />
    <glyph glyph-name="plus" unicode="+" 
d="M529 96v365h-364v136h364v368h139v-368h367v-136h-367v-365h-139z" />
    <glyph glyph-name="comma" unicode="," horiz-adv-x="494" 
d="M361 248l-105 -507h-129l60 507h174z" />
    <glyph glyph-name="hyphen" unicode="-" horiz-adv-x="838" 
d="M697 461h-556v136h556v-136z" />
    <glyph glyph-name="period" unicode="." horiz-adv-x="523" 
d="M262 232q50 0 87.5 -37.5t37.5 -87.5t-37.5 -88t-87.5 -38t-87.5 38t-37.5 88t37.5 87.5t87.5 37.5z" />
    <glyph glyph-name="slash" unicode="/" horiz-adv-x="992" 
d="M156 -200h-165l849 1740h165z" />
    <glyph glyph-name="zero" unicode="0" 
d="M603 1418q109 0 202 -44.5t164.5 -130.5t112.5 -225.5t41 -317.5q0 -149 -27 -269.5t-74 -203.5t-113 -138.5t-142.5 -81t-163.5 -25.5q-111 0 -204.5 41.5t-166.5 125.5t-114.5 225t-41.5 326t41.5 326t114.5 225t166.5 125.5t204.5 41.5zM603 1270q-62 0 -115.5 -19.5
t-100.5 -62.5t-80 -108.5t-52 -162t-19 -217.5t19 -217.5t52 -162t80 -108.5t100.5 -62.5t115.5 -19.5q61 0 113.5 19.5t98.5 62.5t78.5 108.5t51 162t18.5 217.5q0 144 -28.5 255t-78 179t-113.5 102t-140 34z" />
    <glyph glyph-name="one" unicode="1" 
d="M587 147v1059l-407 -146v157l561 200v-1270h367v-147h-913v147h392z" />
    <glyph glyph-name="two" unicode="2" 
d="M136 1186q156 232 429 232q208 0 327.5 -121.5t119.5 -311.5q0 -117 -51.5 -212t-136.5 -184l-418 -442h652v-147h-881v121l529 558q144 151 144 306q0 125 -77 205.5t-213 80.5q-57 0 -105.5 -13.5t-86 -40t-65 -54.5t-55.5 -67z" />
    <glyph glyph-name="three" unicode="3" 
d="M557 1418q207 0 335 -106.5t128 -276.5q0 -120 -58 -202t-161 -126q115 -41 182.5 -126.5t67.5 -205.5q0 -97 -40 -173.5t-108 -123.5t-153 -71.5t-180 -24.5q-291 0 -454 184l99 103q66 -69 157 -106t195 -37q139 0 231 66t92 190q0 118 -96.5 186t-241.5 68h-184v141
h183q135 0 221.5 65t86.5 185q0 111 -88 179t-223 68q-99 0 -179 -44.5t-130 -114.5l-111 95q63 94 173.5 151t255.5 57z" />
    <glyph glyph-name="four" unicode="4" 
d="M890 440h239v-146h-239v-294h-154v294h-654v119l523 986h175l-513 -959h469v390h154v-390z" />
    <glyph glyph-name="five" unicode="5" 
d="M996 1254h-618l-13 -414h206q236 0 362.5 -117t126.5 -295q0 -139 -65 -242t-172.5 -154t-241.5 -51q-295 0 -474 218l103 100q69 -82 166 -126.5t205 -44.5q149 0 234 82t85 205q0 125 -91 202t-285 77h-305l18 706h759v-146z" />
    <glyph glyph-name="six" unicode="6" 
d="M448 853q77 40 177 40q197 0 333.5 -131t136.5 -325q0 -195 -141.5 -325t-354.5 -130q-214 0 -355.5 130t-141.5 325q0 149 104 310l417 653h188zM599 750q-146 0 -242 -88t-96 -225q0 -136 95.5 -224t242.5 -88q146 0 241.5 88t95.5 224q0 137 -95.5 225t-241.5 88z" />
    <glyph glyph-name="seven" unicode="7" 
d="M1080 1279l-633 -1279h-180l627 1254h-764v146h950v-121z" />
    <glyph glyph-name="eight" unicode="8" 
d="M600 1418q135 0 244 -44t175.5 -132.5t66.5 -206.5q0 -122 -67 -204.5t-177 -123.5q125 -42 201 -125t76 -209q0 -122 -71 -212t-187.5 -135t-260.5 -45t-260.5 45t-187.5 135t-71 212q0 126 76 209t201 125q-110 41 -177 123.5t-67 204.5q0 118 66.5 206.5t175.5 132.5
t244 44zM600 638q-154 0 -255 -67.5t-101 -188.5q0 -122 101 -189.5t255 -67.5q153 0 254 67.5t101 189.5q0 121 -101 188.5t-254 67.5zM600 1274q-139 0 -231 -65.5t-92 -181.5q0 -121 91.5 -187.5t231.5 -66.5t231.5 66.5t91.5 187.5q0 116 -92 181.5t-231 65.5z" />
    <glyph glyph-name="nine" unicode="9" 
d="M731 529q-66 -22 -144 -22q-207 0 -344.5 130t-137.5 326q0 195 141.5 325t354.5 130q214 0 355.5 -130t141.5 -325q0 -149 -104 -310l-417 -653h-188zM601 650q146 0 241.5 88t95.5 225q0 136 -95.5 224t-241.5 88t-241.5 -88.5t-95.5 -223.5q0 -136 95.5 -224.5
t241.5 -88.5z" />
    <glyph glyph-name="colon" unicode=":" horiz-adv-x="523" 
d="M262 966q50 0 87.5 -37t37.5 -88q0 -50 -37.5 -88t-87.5 -38t-87.5 38t-37.5 88q0 51 37.5 88t87.5 37zM262 233q50 0 87.5 -37.5t37.5 -87.5t-37.5 -88t-87.5 -38t-87.5 38t-37.5 88t37.5 87.5t87.5 37.5z" />
    <glyph glyph-name="semicolon" unicode=";" horiz-adv-x="494" 
d="M257 966q50 0 87.5 -37t37.5 -88q0 -50 -37.5 -88t-87.5 -38t-87.5 38t-37.5 88q0 51 37.5 88t87.5 37zM361 248l-105 -507h-129l60 507h174z" />
    <glyph glyph-name="less" unicode="&#x3c;" 
d="M994 84l-787 372v147l787 372v-159l-636 -286l636 -287v-159z" />
    <glyph glyph-name="equal" unicode="=" 
d="M1035 276h-870v136h870v-136zM1035 646h-870v136h870v-136z" />
    <glyph glyph-name="greater" unicode="&#x3e;" 
d="M207 975l787 -372v-147l-787 -372v159l636 286l-636 287v159z" />
    <glyph glyph-name="question" unicode="?" horiz-adv-x="864" 
d="M210 445v314h64q171 0 267.5 69t96.5 192q0 115 -96 181t-262 66q-46 0 -137 -7l-13 153q69 11 158 11q237 0 376.5 -108t139.5 -289q0 -173 -118 -279t-333 -128l-8 -175h-135zM278 232q50 0 87 -37.5t37 -87.5t-37 -88t-87 -38t-88 38t-38 88t38 87.5t88 37.5z" />
    <glyph glyph-name="at" unicode="@" horiz-adv-x="1976" 
d="M1365 422q0 -108 29 -157.5t90 -49.5q83 0 134.5 82t51.5 237q0 190 -89.5 339.5t-245 231t-348.5 81.5q-144 0 -270 -52t-216.5 -142t-143 -218t-52.5 -274q0 -149 52.5 -278t143 -220t216.5 -143t270 -52q237 0 432 136l70 -96q-217 -160 -502 -160
q-232 0 -419.5 106.5t-293 292.5t-105.5 414q0 169 62 318.5t170 256.5t260 169t326 62q233 0 420.5 -100t293 -276.5t105.5 -395.5q0 -191 -88.5 -314t-240.5 -123q-90 0 -146.5 40t-78.5 109q-102 -145 -295 -145q-163 0 -273.5 113.5t-110.5 285.5q0 171 110.5 285
t273.5 114q181 0 281 -134v119h127v-462zM974 778q-118 0 -193.5 -79.5t-75.5 -198.5t75.5 -198.5t193.5 -79.5q117 0 193.5 79t76.5 199t-76.5 199t-193.5 79z" />
    <glyph glyph-name="A" unicode="A" horiz-adv-x="1421" 
d="M1385 0h-172l-159 390h-693l-158 -390h-167l575 1400h199zM423 542h570l-285 699z" />
    <glyph glyph-name="B" unicode="B" horiz-adv-x="1402" 
d="M744 1400q234 0 370 -89.5t136 -279.5q0 -116 -57 -196.5t-154 -113.5q110 -36 175.5 -121.5t65.5 -210.5q0 -198 -134.5 -293.5t-375.5 -95.5h-568v1400h542zM363 635v-484h400q82 0 143.5 12t109 39t71.5 75t24 117q0 132 -89.5 186.5t-258.5 54.5h-400zM363 1249v-464
h376q61 0 109.5 6t93.5 22t74.5 42t47 67.5t17.5 96.5q0 54 -17.5 94.5t-47.5 66t-74.5 41.5t-93.5 22t-110 6h-375z" />
    <glyph glyph-name="C" unicode="C" horiz-adv-x="1530" 
d="M844 1420q183 0 335.5 -78t235.5 -212l-134 -90q-71 105 -185.5 165t-251.5 60q-117 0 -219 -41.5t-176 -114.5t-116.5 -179t-42.5 -230t42.5 -230t116.5 -179t176 -114.5t219 -41.5q139 0 252 58.5t185 165.5l130 -96q-89 -132 -238 -207.5t-329 -75.5q-154 0 -288 54
t-229.5 148.5t-150.5 228.5t-55 289t55 289t150.5 228.5t229.5 148.5t288 54z" />
    <glyph glyph-name="D" unicode="D" horiz-adv-x="1598" 
d="M729 1400q343 0 545 -190t202 -510t-202 -510t-545 -190h-527v1400h527zM363 1248v-1096h366q278 0 428 148t150 400q0 254 -149.5 401t-428.5 147h-366z" />
    <glyph glyph-name="E" unicode="E" horiz-adv-x="1348" 
d="M1187 0h-985v1400h976v-151h-815v-469h790v-150h-790v-479h824v-151z" />
    <glyph glyph-name="F" unicode="F" horiz-adv-x="1292" 
d="M1133 629h-770v-629h-161v1400h969v-152h-808v-467h770v-152z" />
    <glyph glyph-name="G" unicode="G" horiz-adv-x="1639" 
d="M844 1420q166 0 305.5 -61.5t237.5 -173.5l-119 -114q-76 92 -185.5 143t-238.5 51q-117 0 -219 -41.5t-176 -114.5t-116.5 -179t-42.5 -230t42.5 -230t116 -179t174 -114.5t214.5 -41.5q220 0 353 123.5t151 339.5h-436v150h610q2 -30 2 -41q0 -153 -47.5 -285.5
t-134 -230.5t-215 -154t-283.5 -56q-111 0 -216 31t-195.5 92.5t-158.5 146.5t-107 201t-39 248q0 207 94 372t259.5 256.5t369.5 91.5z" />
    <glyph glyph-name="H" unicode="H" horiz-adv-x="1573" 
d="M363 781h847v619h161v-1400h-161v629h-847v-629h-161v1400h161v-619z" />
    <glyph glyph-name="I" unicode="I" horiz-adv-x="565" 
d="M363 0h-161v1400h161v-1400z" />
    <glyph glyph-name="J" unicode="J" horiz-adv-x="1150" 
d="M958 499q0 -243 -136 -380.5t-350 -137.5q-269 0 -432 197l108 110q124 -153 323 -153q151 0 239 98t88 282v885h160v-901z" />
    <glyph glyph-name="K" unicode="K" horiz-adv-x="1388" 
d="M529 628h-166v-628h-161v1400h161v-620h169l581 620h208l-658 -687l701 -713h-219z" />
    <glyph glyph-name="L" unicode="L" horiz-adv-x="1213" 
d="M1173 0h-971v1400h161v-1248h810v-152z" />
    <glyph glyph-name="M" unicode="M" horiz-adv-x="1870" 
d="M1668 0h-161v1220l-488 -1065h-169l-487 1057v-1212h-161v1400h244l489 -1058l488 1058h245v-1400z" />
    <glyph glyph-name="N" unicode="N" horiz-adv-x="1577" 
d="M1375 0h-145l-867 1124v-1124h-161v1400h145l867 -1124v1124h161v-1400z" />
    <glyph glyph-name="O" unicode="O" horiz-adv-x="1689" 
d="M844 1420q154 0 288 -54t229.5 -148.5t150.5 -228.5t55 -289t-55 -289t-150.5 -228.5t-229.5 -148.5t-288 -54t-288 54t-229.5 148.5t-150.5 228.5t-55 289t55 289t150.5 228.5t229.5 148.5t288 54zM844 1265q-117 0 -219 -41.5t-176 -114.5t-116.5 -179t-42.5 -230
t42.5 -230t116.5 -179t176 -114.5t219 -41.5q157 0 283 70t199 200t73 295t-73 295t-199 200t-283 70z" />
    <glyph glyph-name="P" unicode="P" horiz-adv-x="1328" 
d="M363 563v-563h-161v1400h529q235 0 365 -111t130 -308t-130 -307.5t-365 -110.5h-368zM363 1248v-534h363q333 0 333 267t-333 267h-363z" />
    <glyph glyph-name="Q" unicode="Q" horiz-adv-x="1689" 
d="M844 1420q154 0 288 -54t229.5 -148.5t150.5 -228.5t55 -289q0 -270 -156 -461l185 -239h-189l-105 131q-193 -151 -458 -151q-154 0 -288 54t-229.5 148.5t-150.5 228.5t-55 289t55 289t150.5 228.5t229.5 148.5t288 54zM844 1265q-117 0 -219 -41.5t-176 -114.5
t-116.5 -179t-42.5 -230t42.5 -230t116.5 -179t176 -114.5t219 -41.5q211 0 359 123l-324 415h192l235 -300q93 138 93 327q0 165 -73 295t-199 200t-283 70z" />
    <glyph glyph-name="R" unicode="R" horiz-adv-x="1353" 
d="M751 1400q236 0 362.5 -102.5t126.5 -292.5q0 -182 -131.5 -289t-355.5 -107h-23l503 -609h-200l-493 609h-177v-609h-161v1400h549zM363 1249v-494h386q161 0 242.5 63.5t81.5 186.5q0 121 -82.5 182.5t-241.5 61.5h-386z" />
    <glyph glyph-name="S" unicode="S" horiz-adv-x="1346" 
d="M1116 1135q-192 131 -422 131q-161 0 -261.5 -68.5t-100.5 -184.5q0 -98 79 -153t244 -74l133 -16q92 -12 166.5 -36.5t137.5 -66.5t98 -109.5t35 -155.5q0 -133 -76.5 -230.5t-200 -144t-277.5 -46.5q-152 0 -302.5 49t-247.5 131l88 128q75 -65 203 -110.5t258 -45.5
q170 0 279 67t109 188q0 100 -84.5 155t-254.5 74l-141 16q-190 22 -301.5 113t-111.5 257q0 129 72 224.5t191 143t267 47.5q288 0 503 -153z" />
    <glyph glyph-name="T" unicode="T" horiz-adv-x="1212" 
d="M1172 1248h-486v-1248h-160v1248h-486v152h1132v-152z" />
    <glyph glyph-name="U" unicode="U" horiz-adv-x="1517" 
d="M1335 548q0 -139 -45 -248.5t-124 -178t-182.5 -104.5t-225.5 -36t-225.5 36t-182.5 104.5t-123.5 178t-44.5 248.5v852h160v-840q0 -211 114 -318t302 -107t302 107t114 318v840h161v-852z" />
    <glyph glyph-name="V" unicode="V" horiz-adv-x="1394" 
d="M797 0h-199l-562 1400h171l492 -1240l493 1240h166z" />
    <glyph glyph-name="W" unicode="W" horiz-adv-x="2197" 
d="M1684 0h-198l-388 1186l-388 -1186h-197l-455 1400h168l387 -1218l396 1218h182l395 -1219l388 1219h165z" />
    <glyph glyph-name="X" unicode="X" horiz-adv-x="1367" 
d="M782 716l525 -716h-194l-431 593l-432 -593h-190l525 716l-501 684h194l407 -561l408 561h191z" />
    <glyph glyph-name="Y" unicode="Y" horiz-adv-x="1287" 
d="M725 587v-587h-160v589l-554 811h192l443 -664l443 664h187z" />
    <glyph glyph-name="Z" unicode="Z" horiz-adv-x="1314" 
d="M1190 1276l-855 -1124h858v-152h-1072v124l856 1124h-846v152h1059v-124z" />
    <glyph glyph-name="bracketleft" unicode="[" horiz-adv-x="752" 
d="M671 -263h-469v1663h469v-138h-315v-1387h315v-138z" />
    <glyph glyph-name="backslash" unicode="\" horiz-adv-x="992" 
d="M-13 1540h165l849 -1740h-165z" />
    <glyph glyph-name="bracketright" unicode="]" horiz-adv-x="752" 
d="M81 1400h469v-1663h-469v138h315v1387h-315v138z" />
    <glyph glyph-name="underscore" unicode="_" horiz-adv-x="937" 
d="M942 -272h-947v136h947v-136z" />
    <glyph glyph-name="a" unicode="a" horiz-adv-x="1246" 
d="M1071 0h-149v141q-125 -160 -346 -160q-201 0 -337 140t-136 353q0 212 136 352t337 140q219 0 346 -160v141h149v-947zM594 826q-150 0 -244.5 -101.5t-94.5 -250.5t95 -251t244 -102q147 0 242 100.5t95 252.5q0 151 -95 251.5t-242 100.5z" />
    <glyph glyph-name="b" unicode="b" horiz-adv-x="1246" 
d="M670 966q201 0 337 -140t136 -352t-136 -352.5t-337 -140.5q-219 0 -345 159v-140h-150v1440h150v-633q126 159 345 159zM652 826q-147 0 -242 -100.5t-95 -251.5q0 -152 95 -252.5t242 -100.5q150 0 244 101.5t94 251.5q0 149 -95 250.5t-243 101.5z" />
    <glyph glyph-name="c" unicode="c" horiz-adv-x="1024" 
d="M593 966q220 0 351 -149l-96 -101q-115 110 -259 110q-143 0 -238.5 -100t-95.5 -252t96 -252.5t238 -100.5q146 0 262 111l93 -102q-134 -149 -351 -149t-353.5 140t-136.5 353q0 212 136.5 352t353.5 140z" />
    <glyph glyph-name="d" unicode="d" horiz-adv-x="1246" 
d="M576 966q219 0 346 -160v634h149v-1440h-149v141q-125 -160 -346 -160q-201 0 -337 140t-136 353q0 212 136 352t337 140zM594 826q-150 0 -244.5 -101.5t-94.5 -250.5t95 -251t244 -102q147 0 242 100.5t95 252.5q0 151 -95 251.5t-242 100.5z" />
    <glyph glyph-name="e" unicode="e" horiz-adv-x="1121" 
d="M573 966q193 0 318 -136.5t127 -352.5q0 -31 -3 -56h-759q15 -148 108 -228.5t227 -80.5q171 0 300 119l80 -102q-155 -148 -389 -148q-211 0 -345 136.5t-134 355.5q0 216 133.5 354.5t336.5 138.5zM570 833q-128 0 -211 -80t-101 -211h608q-14 133 -94.5 212t-201.5 79
z" />
    <glyph glyph-name="f" unicode="f" horiz-adv-x="863" 
d="M796 812h-377v-812h-150v812h-216v135h216v162q0 161 77 255.5t238 94.5q141 0 259 -71l-54 -125q-92 56 -195 56q-175 0 -175 -210v-162h377v-135z" />
    <glyph glyph-name="g" unicode="g" horiz-adv-x="1235" 
d="M572 966q221 0 338 -161v142h150v-882q0 -227 -138 -353.5t-363 -126.5q-114 0 -220.5 33.5t-178.5 93.5l66 120q149 -111 333 -111q158 0 254.5 88t96.5 250v97q-116 -161 -338 -161q-201 0 -335 136.5t-134 349.5t134 349t335 136zM589 826q-148 0 -241 -99.5
t-93 -245.5q0 -147 93 -246.5t241 -99.5q145 0 239.5 99t94.5 247q0 147 -94.5 246t-239.5 99z" />
    <glyph glyph-name="h" unicode="h" horiz-adv-x="1201" 
d="M325 815q55 78 139 114.5t178 36.5q176 0 285.5 -104t109.5 -275v-587h-149v538q0 136 -71 211t-202 75q-123 0 -206.5 -79.5t-83.5 -210.5v-534h-150v1440h150v-625z" />
    <glyph glyph-name="i" unicode="i" horiz-adv-x="500" 
d="M325 0h-150v947h150v-947zM250 1389q44 0 75 -30.5t31 -75.5t-30.5 -75t-75.5 -30t-75 30t-30 75t30 75.5t75 30.5z" />
    <glyph glyph-name="j" unicode="j" horiz-adv-x="504" 
d="M329 -156q0 -124 -63.5 -191.5t-172.5 -67.5q-77 0 -136 32l36 129q40 -20 87 -20q99 0 99 125v1096h150v-1103zM253 1389q44 0 75 -30.5t31 -75.5t-30.5 -75t-75.5 -30t-75 30t-30 75t30 75.5t75 30.5z" />
    <glyph glyph-name="k" unicode="k" horiz-adv-x="1058" 
d="M325 563h137l365 384h187l-430 -446l437 -501h-189l-371 427h-136v-427h-150v1440h150v-877z" />
    <glyph glyph-name="l" unicode="l" horiz-adv-x="500" 
d="M325 0h-150v1440h150v-1440z" />
    <glyph glyph-name="m" unicode="m" horiz-adv-x="1914" 
d="M1354 966q177 0 286.5 -104t109.5 -275v-587h-149v538q0 136 -71.5 211t-202.5 75q-123 0 -206.5 -79.5t-83.5 -210.5v-534h-149v538q0 136 -71 211t-202 75q-123 0 -206.5 -79.5t-83.5 -210.5v-534h-150v947h148v-135q55 80 139.5 117t179.5 37q124 0 216.5 -52.5
t138.5 -146.5q53 103 149.5 151t207.5 48z" />
    <glyph glyph-name="n" unicode="n" horiz-adv-x="1201" 
d="M642 966q176 0 285.5 -104t109.5 -275v-587h-149v538q0 136 -71 211t-202 75q-123 0 -206.5 -79.5t-83.5 -210.5v-534h-150v947h148v-135q55 80 139.5 117t179.5 37z" />
    <glyph glyph-name="o" unicode="o" horiz-adv-x="1203" 
d="M601 966q214 0 356.5 -141t142.5 -351q0 -211 -142.5 -352t-356.5 -141t-356 141t-142 352q0 210 142.5 351t355.5 141zM601 826q-148 0 -247 -100t-99 -252t99 -252.5t247 -100.5t247 100.5t99 252.5t-99 252t-247 100z" />
    <glyph glyph-name="p" unicode="p" horiz-adv-x="1246" 
d="M670 966q201 0 337 -140t136 -352t-136 -352.5t-337 -140.5q-219 0 -345 159v-540h-150v1347h150v-140q126 159 345 159zM652 826q-147 0 -242 -100.5t-95 -251.5q0 -152 95 -252.5t242 -100.5q150 0 244 101.5t94 251.5q0 149 -95 250.5t-243 101.5z" />
    <glyph glyph-name="q" unicode="q" horiz-adv-x="1246" 
d="M576 966q219 0 346 -160v141h149v-1347h-149v541q-125 -160 -346 -160q-201 0 -337 140t-136 353q0 212 136 352t337 140zM594 826q-150 0 -244.5 -101.5t-94.5 -250.5t95 -251t244 -102q147 0 242 100.5t95 252.5q0 151 -95 251.5t-242 100.5z" />
    <glyph glyph-name="r" unicode="r" horiz-adv-x="830" 
d="M604 966q103 0 174 -32l-36 -147q-71 38 -164 38q-112 0 -183 -81t-71 -214v-530h-149v947h148v-133q49 73 121.5 112.5t159.5 39.5z" />
    <glyph glyph-name="s" unicode="s" horiz-adv-x="987" 
d="M811 746q-51 35 -136 62t-174 27q-102 0 -163 -40t-61 -109q0 -58 48 -89.5t145 -43.5l112 -14q318 -43 318 -264q0 -135 -113 -214t-304 -79q-102 0 -206.5 29t-188.5 92l69 112q132 -103 328 -103q122 0 191.5 39.5t69.5 113.5q0 115 -198 138l-113 13
q-313 39 -313 262q0 134 102.5 210.5t275.5 76.5q108 0 206.5 -28t169.5 -75z" />
    <glyph glyph-name="t" unicode="t" horiz-adv-x="906" 
d="M818 812h-409v-478q0 -107 51 -160t137 -53q105 0 199 67l70 -113q-123 -94 -281 -94q-156 0 -240.5 87.5t-84.5 262.5v481h-207v135h207v301h149v-301h409v-135z" />
    <glyph glyph-name="u" unicode="u" horiz-adv-x="1188" 
d="M1024 395q0 -102 -35 -182.5t-95 -130.5t-136.5 -75.5t-163.5 -25.5q-88 0 -164.5 25.5t-136.5 75.5t-94.5 130.5t-34.5 182.5v552h149v-538q0 -142 76.5 -215t204.5 -73q127 0 203.5 73t76.5 215v538h150v-552z" />
    <glyph glyph-name="v" unicode="v" horiz-adv-x="1042" 
d="M609 -2h-175l-404 949h162l331 -797l331 797h158z" />
    <glyph glyph-name="w" unicode="w" horiz-adv-x="1706" 
d="M1221 155l285 792h155l-350 -947h-177l-283 787l-282 -787h-174l-350 947h159l283 -791l282 791h168z" />
    <glyph glyph-name="x" unicode="x" horiz-adv-x="1023" 
d="M607 485l381 -485h-183l-299 374l-296 -374h-175l380 484l-370 463h183l286 -359l287 359h176z" />
    <glyph glyph-name="y" unicode="y" horiz-adv-x="1054" 
d="M268 -404h-165l353 609l-435 742h167l353 -594l334 594h164z" />
    <glyph glyph-name="z" unicode="z" horiz-adv-x="1055" 
d="M924 838l-604 -703h613v-135h-811v108l610 704h-592v135h784v-109z" />
    <glyph glyph-name="braceleft" unicode="{" horiz-adv-x="854" 
d="M714 1262q-106 0 -165.5 -60.5t-53.5 -176.5l8 -134q13 -252 -204 -322q217 -70 204 -322l-8 -134q-6 -116 53.5 -176.5t165.5 -60.5h59v-138h-59q-185 0 -283.5 102.5t-88.5 288.5l7 134q6 117 -55.5 177t-172.5 60v138q111 0 172.5 60t55.5 177l-7 134
q-10 186 88.5 288.5t283.5 102.5h59v-138h-59z" />
    <glyph glyph-name="bar" unicode="|" horiz-adv-x="715" 
d="M432 -265h-149v1665h149v-1665z" />
    <glyph glyph-name="braceright" unicode="}" horiz-adv-x="854" 
d="M140 -124q106 0 165.5 60.5t53.5 176.5l-8 134q-13 252 204 322q-217 70 -204 322l8 134q6 116 -53.5 176.5t-165.5 60.5h-59v138h59q185 0 283.5 -102.5t88.5 -288.5l-7 -134q-6 -117 55.5 -177t172.5 -60v-138q-111 0 -172.5 -60t-55.5 -177l7 -134
q10 -186 -88.5 -288.5t-283.5 -102.5h-59v138h59z" />
    <glyph glyph-name="uni00A0" unicode="&#xa0;" horiz-adv-x="534" 
 />
    <glyph glyph-name="exclamdown" unicode="&#xa1;" horiz-adv-x="524" 
d="M195 502h135l24 -955h-183zM262 714q-50 0 -87.5 37.5t-37.5 87.5t37.5 88t87.5 38t87.5 -38t37.5 -88t-37.5 -87.5t-87.5 -37.5z" />
    <glyph glyph-name="sterling" unicode="&#xa3;" horiz-adv-x="1400" 
d="M1216 0h-1032v147h179v485h-179v136h179v137q0 125 37 224t102 161.5t149.5 95t181.5 32.5q233 0 367 -162l-113 -100q-91 115 -254 115q-142 0 -229 -95t-87 -282v-126h528v-136h-528v-485h699v-147z" />
    <glyph glyph-name="yen" unicode="&#xa5;" horiz-adv-x="1400" 
d="M1179 317h-397v-317h-154v317h-397v123h397v197h-397v123h330l-454 640h184l414 -593l408 593h181l-448 -640h333v-123h-397v-197h397v-123z" />
    <glyph glyph-name="section" unicode="&#xa7;" horiz-adv-x="1309" 
d="M1057 1160q-176 119 -378 119q-145 0 -236.5 -56t-91.5 -150q0 -81 75.5 -126t226.5 -61l116 -13q83 -9 151.5 -31t124.5 -58.5t87.5 -93.5t31.5 -129q0 -164 -159 -257q138 -84 138 -234q0 -88 -40 -158t-109 -113.5t-158.5 -66.5t-192.5 -23q-141 0 -273.5 43
t-224.5 114l80 121q74 -59 185 -98.5t233 -39.5q153 0 250.5 54t97.5 155q0 151 -310 186l-126 14q-171 19 -274 97t-103 217q0 162 154 253q-134 82 -134 238q0 163 136.5 259t343.5 96q251 0 452 -136zM577 749q-45 5 -107 19q-140 -56 -140 -186q0 -81 76 -126t226 -61
l118 -13q72 -9 119 -22q143 57 143 189q0 151 -310 186z" />
    <glyph glyph-name="copyright" unicode="&#xa9;" horiz-adv-x="1903" 
d="M951 1508q164 0 313 -63.5t257 -170.5t172 -255.5t64 -310.5t-64 -310.5t-172 -256t-257.5 -171.5t-312.5 -64q-165 0 -314 63.5t-257 171t-171.5 256t-63.5 311.5q0 217 107.5 401t293 291.5t405.5 107.5zM951 1376q-137 0 -261 -52.5t-213.5 -142t-142.5 -213.5
t-53 -260q0 -137 53 -261t142.5 -213.5t213.5 -142.5t261 -53q136 0 260 53t214 142.5t143 213.5t53 261q0 136 -53 260t-143 213t-214 142t-260 53zM1203 884q-82 122 -232 122q-121 0 -202.5 -84t-81.5 -214q0 -136 82 -217.5t202 -81.5q73 0 133.5 32t100.5 90l105 -82
q-56 -80 -143.5 -125t-194.5 -45q-184 0 -305 120.5t-121 308.5t121 308.5t305 120.5q108 0 198 -47t144 -131z" />
    <glyph glyph-name="guillemotleft" unicode="&#xab;" horiz-adv-x="1021" 
d="M874 159h-160l-192 370l192 370h160l-191 -370zM478 159h-160l-192 370l192 370h160l-191 -370z" />
    <glyph glyph-name="uni00AD" unicode="&#xad;" horiz-adv-x="838" 
d="M697 461h-556v136h556v-136z" />
    <glyph glyph-name="registered" unicode="&#xae;" horiz-adv-x="930" 
d="M466 1435q172 0 293.5 -119.5t121.5 -288.5q0 -168 -122 -288t-293 -120q-175 0 -296.5 120t-121.5 288q0 170 121.5 289t296.5 119zM466 709q131 0 223 93t92 225q0 133 -92 225t-223 92q-135 0 -227 -92t-92 -225t92.5 -225.5t226.5 -92.5zM490 1218q72 0 112 -32
t40 -89q0 -47 -32 -77.5t-89 -37.5l124 -143h-97l-115 142h-37v-142h-81v379h175zM396 1147v-101h93q70 0 70 51q0 50 -70 50h-93z" />
    <glyph glyph-name="degree" unicode="&#xb0;" horiz-adv-x="795" 
d="M397 728q-145 0 -247 101t-102 245q0 143 102 244t247 101q144 0 246.5 -101t102.5 -244q0 -144 -102.5 -245t-246.5 -101zM397 850q90 0 155 65.5t65 158.5t-65 158t-155 65q-91 0 -156 -65t-65 -158t65 -158.5t156 -65.5z" />
    <glyph glyph-name="periodcentered" unicode="&#xb7;" horiz-adv-x="715" 
d="M359 654q50 0 87 -37t37 -87q0 -51 -37 -88.5t-87 -37.5t-88 37.5t-38 88.5q0 50 38 87t88 37z" />
    <glyph glyph-name="guillemotright" unicode="&#xbb;" horiz-adv-x="1021" 
d="M147 899h160l192 -370l-192 -370h-160l191 370zM543 899h160l192 -370l-192 -370h-160l191 370z" />
    <glyph glyph-name="questiondown" unicode="&#xbf;" horiz-adv-x="864" 
d="M654 502v-314h-64q-171 0 -267.5 -69t-96.5 -192q0 -115 96 -181t262 -66q46 0 137 7l13 -153q-69 -11 -158 -11q-237 0 -376.5 108t-139.5 289q0 173 117.5 278.5t332.5 127.5l9 176h135zM586 715q-50 0 -87 37.5t-37 87.5t37 88t87 38t88 -38t38 -88t-38 -87.5
t-88 -37.5z" />
    <glyph glyph-name="Agrave" unicode="&#xc0;" horiz-adv-x="1421" 
d="M1385 0h-172l-159 390h-693l-158 -390h-167l575 1400h199zM423 542h570l-285 699zM443 1807h189l210 -300h-148z" />
    <glyph glyph-name="Aacute" unicode="&#xc1;" horiz-adv-x="1421" 
d="M1385 0h-172l-159 390h-693l-158 -390h-167l575 1400h199zM423 542h570l-285 699zM570 1507l209 300h190l-251 -300h-148z" />
    <glyph glyph-name="Acircumflex" unicode="&#xc2;" horiz-adv-x="1421" 
d="M1385 0h-172l-159 390h-693l-158 -390h-167l575 1400h199zM423 542h570l-285 699zM885 1508l-174 189l-175 -189h-160l235 288h200l234 -288h-160z" />
    <glyph glyph-name="Atilde" unicode="&#xc3;" horiz-adv-x="1421" 
d="M1385 0h-172l-159 390h-693l-158 -390h-167l575 1400h199zM423 542h570l-285 699zM359 1649q46 58 97.5 84.5t121.5 26.5q58 0 106.5 -20t87 -39.5t72.5 -19.5q66 0 130 67l89 -85q-46 -57 -97.5 -84t-121.5 -27q-57 0 -105.5 20t-87 40t-73.5 20q-66 0 -131 -68z" />
    <glyph glyph-name="Adieresis" unicode="&#xc4;" horiz-adv-x="1421" 
d="M1385 0h-172l-159 390h-693l-158 -390h-167l575 1400h199zM423 542h570l-285 699zM508 1758q44 0 75 -31t31 -76t-30.5 -75t-75.5 -30t-75.5 30t-30.5 75t30.5 76t75.5 31zM914 1758q44 0 75 -31t31 -76t-30.5 -75t-75.5 -30t-75 30t-30 75t30 76t75 31z" />
    <glyph glyph-name="Aring" unicode="&#xc5;" horiz-adv-x="1421" 
d="M1385 0h-172l-159 390h-693l-158 -390h-167l575 1400h199zM423 542h570l-285 699zM711 1487q-93 0 -160 66t-67 159t67 158.5t160 65.5q94 0 161 -65.5t67 -158.5t-67 -159t-161 -66zM711 1582q53 0 90.5 38t37.5 92t-37.5 91.5t-90.5 37.5t-90 -37.5t-37 -91.5
q0 -55 37 -92.5t90 -37.5z" />
    <glyph glyph-name="AE" unicode="&#xc6;" horiz-adv-x="2283" 
d="M2122 0h-985v365h-638l-276 -365h-194l1064 1400h1020v-151h-815v-469h790v-150h-790v-479h824v-151zM1137 517v690l-523 -690h523z" />
    <glyph glyph-name="Ccedilla" unicode="&#xc7;" horiz-adv-x="1530" 
d="M829 -323h-163l111 329l155 -1zM844 1420q183 0 335.5 -78t235.5 -212l-134 -90q-71 105 -185.5 165t-251.5 60q-117 0 -219 -41.5t-176 -114.5t-116.5 -179t-42.5 -230t42.5 -230t116.5 -179t176 -114.5t219 -41.5q139 0 252 58.5t185 165.5l130 -96
q-89 -132 -238 -207.5t-329 -75.5q-154 0 -288 54t-229.5 148.5t-150.5 228.5t-55 289t55 289t150.5 228.5t229.5 148.5t288 54z" />
    <glyph glyph-name="Egrave" unicode="&#xc8;" horiz-adv-x="1348" 
d="M1187 0h-985v1400h976v-151h-815v-469h790v-150h-790v-479h824v-151zM417 1807h189l210 -300h-148z" />
    <glyph glyph-name="Eacute" unicode="&#xc9;" horiz-adv-x="1348" 
d="M1187 0h-985v1400h976v-151h-815v-469h790v-150h-790v-479h824v-151zM544 1507l209 300h190l-251 -300h-148z" />
    <glyph glyph-name="Ecircumflex" unicode="&#xca;" horiz-adv-x="1348" 
d="M1187 0h-985v1400h976v-151h-815v-469h790v-150h-790v-479h824v-151zM859 1508l-174 189l-175 -189h-160l235 288h200l234 -288h-160z" />
    <glyph glyph-name="Edieresis" unicode="&#xcb;" horiz-adv-x="1348" 
d="M1187 0h-985v1400h976v-151h-815v-469h790v-150h-790v-479h824v-151zM482 1758q44 0 75 -31t31 -76t-30.5 -75t-75.5 -30t-75.5 30t-30.5 75t30.5 76t75.5 31zM888 1758q44 0 75 -31t31 -76t-30.5 -75t-75.5 -30t-75 30t-30 75t30 76t75 31z" />
    <glyph glyph-name="Igrave" unicode="&#xcc;" horiz-adv-x="565" 
d="M363 0h-161v1400h161v-1400zM14 1807h189l210 -300h-148z" />
    <glyph glyph-name="Iacute" unicode="&#xcd;" horiz-adv-x="565" 
d="M363 0h-161v1400h161v-1400zM141 1507l209 300h190l-251 -300h-148z" />
    <glyph glyph-name="Icircumflex" unicode="&#xce;" horiz-adv-x="565" 
d="M363 0h-161v1400h161v-1400zM456 1508l-174 189l-175 -189h-160l235 288h200l234 -288h-160z" />
    <glyph glyph-name="Idieresis" unicode="&#xcf;" horiz-adv-x="565" 
d="M363 0h-161v1400h161v-1400zM79 1758q44 0 75 -31t31 -76t-30.5 -75t-75.5 -30t-75.5 30t-30.5 75t30.5 76t75.5 31zM485 1758q44 0 75 -31t31 -76t-30.5 -75t-75.5 -30t-75 30t-30 75t30 76t75 31z" />
    <glyph glyph-name="Eth" unicode="&#xd0;" horiz-adv-x="1749" 
d="M880 1400q343 0 545 -190t202 -510t-202 -510t-545 -190h-527v629h-232v152h232v619h527zM917 629h-403v-477h366q278 0 428 148t150 400q0 254 -149.5 401t-428.5 147h-366v-467h403v-152z" />
    <glyph glyph-name="Ntilde" unicode="&#xd1;" horiz-adv-x="1577" 
d="M1375 0h-145l-867 1124v-1124h-161v1400h145l867 -1124v1124h161v-1400zM436 1649q46 58 97.5 84.5t121.5 26.5q58 0 106.5 -20t87 -39.5t72.5 -19.5q66 0 130 67l89 -85q-46 -57 -97.5 -84t-121.5 -27q-57 0 -105.5 20t-87 40t-73.5 20q-66 0 -131 -68z" />
    <glyph glyph-name="Ograve" unicode="&#xd2;" horiz-adv-x="1689" 
d="M844 1420q154 0 288 -54t229.5 -148.5t150.5 -228.5t55 -289t-55 -289t-150.5 -228.5t-229.5 -148.5t-288 -54t-288 54t-229.5 148.5t-150.5 228.5t-55 289t55 289t150.5 228.5t229.5 148.5t288 54zM844 1265q-117 0 -219 -41.5t-176 -114.5t-116.5 -179t-42.5 -230
t42.5 -230t116.5 -179t176 -114.5t219 -41.5q157 0 283 70t199 200t73 295t-73 295t-199 200t-283 70zM576 1807h189l210 -300h-148z" />
    <glyph glyph-name="Oacute" unicode="&#xd3;" horiz-adv-x="1689" 
d="M844 1420q154 0 288 -54t229.5 -148.5t150.5 -228.5t55 -289t-55 -289t-150.5 -228.5t-229.5 -148.5t-288 -54t-288 54t-229.5 148.5t-150.5 228.5t-55 289t55 289t150.5 228.5t229.5 148.5t288 54zM844 1265q-117 0 -219 -41.5t-176 -114.5t-116.5 -179t-42.5 -230
t42.5 -230t116.5 -179t176 -114.5t219 -41.5q157 0 283 70t199 200t73 295t-73 295t-199 200t-283 70zM703 1507l209 300h190l-251 -300h-148z" />
    <glyph glyph-name="Ocircumflex" unicode="&#xd4;" horiz-adv-x="1689" 
d="M844 1420q154 0 288 -54t229.5 -148.5t150.5 -228.5t55 -289t-55 -289t-150.5 -228.5t-229.5 -148.5t-288 -54t-288 54t-229.5 148.5t-150.5 228.5t-55 289t55 289t150.5 228.5t229.5 148.5t288 54zM844 1265q-117 0 -219 -41.5t-176 -114.5t-116.5 -179t-42.5 -230
t42.5 -230t116.5 -179t176 -114.5t219 -41.5q157 0 283 70t199 200t73 295t-73 295t-199 200t-283 70zM1018 1508l-174 189l-175 -189h-160l235 288h200l234 -288h-160z" />
    <glyph glyph-name="Otilde" unicode="&#xd5;" horiz-adv-x="1689" 
d="M844 1420q154 0 288 -54t229.5 -148.5t150.5 -228.5t55 -289t-55 -289t-150.5 -228.5t-229.5 -148.5t-288 -54t-288 54t-229.5 148.5t-150.5 228.5t-55 289t55 289t150.5 228.5t229.5 148.5t288 54zM844 1265q-117 0 -219 -41.5t-176 -114.5t-116.5 -179t-42.5 -230
t42.5 -230t116.5 -179t176 -114.5t219 -41.5q157 0 283 70t199 200t73 295t-73 295t-199 200t-283 70zM492 1649q46 58 97.5 84.5t121.5 26.5q58 0 106.5 -20t87 -39.5t72.5 -19.5q66 0 130 67l89 -85q-46 -57 -97.5 -84t-121.5 -27q-57 0 -105.5 20t-87 40t-73.5 20
q-66 0 -131 -68z" />
    <glyph glyph-name="Odieresis" unicode="&#xd6;" horiz-adv-x="1689" 
d="M844 1420q154 0 288 -54t229.5 -148.5t150.5 -228.5t55 -289t-55 -289t-150.5 -228.5t-229.5 -148.5t-288 -54t-288 54t-229.5 148.5t-150.5 228.5t-55 289t55 289t150.5 228.5t229.5 148.5t288 54zM844 1265q-117 0 -219 -41.5t-176 -114.5t-116.5 -179t-42.5 -230
t42.5 -230t116.5 -179t176 -114.5t219 -41.5q157 0 283 70t199 200t73 295t-73 295t-199 200t-283 70zM641 1758q44 0 75 -31t31 -76t-30.5 -75t-75.5 -30t-75.5 30t-30.5 75t30.5 76t75.5 31zM1047 1758q44 0 75 -31t31 -76t-30.5 -75t-75.5 -30t-75 30t-30 75t30 76t75 31
z" />
    <glyph glyph-name="multiply" unicode="&#xd7;" 
d="M209 235l292 292l-293 294l99 99l293 -294l295 295l96 -96l-295 -295l296 -295l-99 -99l-296 295l-291 -292z" />
    <glyph glyph-name="Oslash" unicode="&#xd8;" horiz-adv-x="1689" 
d="M844 1420q265 0 461 -153l152 152l106 -106l-152 -152q156 -194 156 -461q0 -155 -55 -289t-150.5 -228.5t-229.5 -148.5t-288 -54q-265 0 -461 153l-151 -151l-107 105l151 151q-155 193 -155 462q0 155 55 289t150.5 228.5t229.5 148.5t288 54zM1399 700
q0 200 -105 344l-796 -796q144 -113 346 -113q157 0 283 70t199 200t73 295zM844 1265q-117 0 -219 -41.5t-176 -114.5t-116.5 -179t-42.5 -230q0 -201 104 -344l796 796q-149 113 -346 113z" />
    <glyph glyph-name="Ugrave" unicode="&#xd9;" horiz-adv-x="1517" 
d="M1335 548q0 -139 -45 -248.5t-124 -178t-182.5 -104.5t-225.5 -36t-225.5 36t-182.5 104.5t-123.5 178t-44.5 248.5v852h160v-840q0 -211 114 -318t302 -107t302 107t114 318v840h161v-852zM490 1807h189l210 -300h-148z" />
    <glyph glyph-name="Uacute" unicode="&#xda;" horiz-adv-x="1517" 
d="M1335 548q0 -139 -45 -248.5t-124 -178t-182.5 -104.5t-225.5 -36t-225.5 36t-182.5 104.5t-123.5 178t-44.5 248.5v852h160v-840q0 -211 114 -318t302 -107t302 107t114 318v840h161v-852zM617 1507l209 300h190l-251 -300h-148z" />
    <glyph glyph-name="Ucircumflex" unicode="&#xdb;" horiz-adv-x="1517" 
d="M1335 548q0 -139 -45 -248.5t-124 -178t-182.5 -104.5t-225.5 -36t-225.5 36t-182.5 104.5t-123.5 178t-44.5 248.5v852h160v-840q0 -211 114 -318t302 -107t302 107t114 318v840h161v-852zM932 1508l-174 189l-175 -189h-160l235 288h200l234 -288h-160z" />
    <glyph glyph-name="Udieresis" unicode="&#xdc;" horiz-adv-x="1517" 
d="M1335 548q0 -139 -45 -248.5t-124 -178t-182.5 -104.5t-225.5 -36t-225.5 36t-182.5 104.5t-123.5 178t-44.5 248.5v852h160v-840q0 -211 114 -318t302 -107t302 107t114 318v840h161v-852zM555 1758q44 0 75 -31t31 -76t-30.5 -75t-75.5 -30t-75.5 30t-30.5 75t30.5 76
t75.5 31zM961 1758q44 0 75 -31t31 -76t-30.5 -75t-75.5 -30t-75 30t-30 75t30 76t75 31z" />
    <glyph glyph-name="Yacute" unicode="&#xdd;" horiz-adv-x="1287" 
d="M725 587v-587h-160v589l-554 811h192l443 -664l443 664h187zM505 1507l209 300h190l-251 -300h-148z" />
    <glyph glyph-name="Thorn" unicode="&#xde;" horiz-adv-x="1328" 
d="M363 1134h368q235 0 365 -111t130 -308t-130 -308t-365 -111h-368v-296h-161v1400h161v-266zM363 982v-534h363q333 0 333 267t-333 267h-363z" />
    <glyph glyph-name="germandbls" unicode="&#xdf;" horiz-adv-x="1225" 
d="M166 1021q0 92 29 171t85 139t145 94t201 34q193 0 324 -107t131 -277q0 -124 -60 -212.5t-155 -126.5q111 -36 183.5 -128.5t72.5 -218.5q0 -186 -121 -297t-301 -111q-138 0 -236 42l36 135q84 -38 177 -38q134 0 213 71t79 203t-91.5 198.5t-249.5 66.5h-56v136h31
q67 0 122.5 13t102.5 41t73.5 80t26.5 124q0 127 -86 196.5t-219 69.5q-142 0 -225 -83t-83 -224v-1012h-149v1021z" />
    <glyph glyph-name="agrave" unicode="&#xe0;" horiz-adv-x="1246" 
d="M1071 0h-149v141q-125 -160 -346 -160q-201 0 -337 140t-136 353q0 212 136 352t337 140q219 0 346 -160v141h149v-947zM594 826q-150 0 -244.5 -101.5t-94.5 -250.5t95 -251t244 -102q147 0 242 100.5t95 252.5q0 151 -95 251.5t-242 100.5zM330 1392h189l210 -300h-148
z" />
    <glyph glyph-name="aacute" unicode="&#xe1;" horiz-adv-x="1246" 
d="M1071 0h-149v141q-125 -160 -346 -160q-201 0 -337 140t-136 353q0 212 136 352t337 140q219 0 346 -160v141h149v-947zM594 826q-150 0 -244.5 -101.5t-94.5 -250.5t95 -251t244 -102q147 0 242 100.5t95 252.5q0 151 -95 251.5t-242 100.5zM481 1092l209 300h190
l-251 -300h-148z" />
    <glyph glyph-name="acircumflex" unicode="&#xe2;" horiz-adv-x="1246" 
d="M1071 0h-149v141q-125 -160 -346 -160q-201 0 -337 140t-136 353q0 212 136 352t337 140q219 0 346 -160v141h149v-947zM594 826q-150 0 -244.5 -101.5t-94.5 -250.5t95 -251t244 -102q147 0 242 100.5t95 252.5q0 151 -95 251.5t-242 100.5zM785 1093l-174 189
l-175 -189h-160l235 288h200l234 -288h-160z" />
    <glyph glyph-name="atilde" unicode="&#xe3;" horiz-adv-x="1246" 
d="M1071 0h-149v141q-125 -160 -346 -160q-201 0 -337 140t-136 353q0 212 136 352t337 140q219 0 346 -160v141h149v-947zM594 826q-150 0 -244.5 -101.5t-94.5 -250.5t95 -251t244 -102q147 0 242 100.5t95 252.5q0 151 -95 251.5t-242 100.5zM267 1234q46 58 97.5 84.5
t121.5 26.5q46 0 86.5 -12.5t65.5 -27t55.5 -27t58.5 -12.5q66 0 130 67l89 -85q-46 -57 -97.5 -84t-121.5 -27q-57 0 -105.5 20t-87 40t-73.5 20q-66 0 -131 -68z" />
    <glyph glyph-name="adieresis" unicode="&#xe4;" horiz-adv-x="1246" 
d="M1071 0h-149v141q-125 -160 -346 -160q-201 0 -337 140t-136 353q0 212 136 352t337 140q219 0 346 -160v141h149v-947zM594 826q-150 0 -244.5 -101.5t-94.5 -250.5t95 -251t244 -102q147 0 242 100.5t95 252.5q0 151 -95 251.5t-242 100.5zM408 1343q44 0 75 -31
t31 -76t-30.5 -75t-75.5 -30t-75.5 30t-30.5 75t30.5 76t75.5 31zM814 1343q44 0 75 -31t31 -76t-30.5 -75t-75.5 -30t-75 30t-30 75t30 76t75 31z" />
    <glyph glyph-name="aring" unicode="&#xe5;" horiz-adv-x="1246" 
d="M1071 0h-149v141q-125 -160 -346 -160q-201 0 -337 140t-136 353q0 212 136 352t337 140q219 0 346 -160v141h149v-947zM594 826q-150 0 -244.5 -101.5t-94.5 -250.5t95 -251t244 -102q147 0 242 100.5t95 252.5q0 151 -95 251.5t-242 100.5zM610 1072q-93 0 -160 66
t-67 159t67 158.5t160 65.5q94 0 161 -65.5t67 -158.5t-67 -159t-161 -66zM610 1167q53 0 90.5 38t37.5 92t-37.5 91.5t-90.5 37.5t-90 -37.5t-37 -91.5q0 -55 37 -92.5t90 -37.5z" />
    <glyph glyph-name="ae" unicode="&#xe6;" horiz-adv-x="1800" 
d="M1252 965q193 0 318 -136.5t127 -351.5q0 -5 -3 -56h-759q15 -148 108 -228.5t227 -80.5q170 0 300 119l79 -102q-156 -148 -388 -148q-124 0 -223.5 48.5t-164.5 137.5q-154 -186 -403 -186q-170 0 -268.5 79t-98.5 206q0 126 102.5 202.5t287.5 76.5h290v7
q0 279 -282 279q-149 0 -274 -95l-70 111q159 119 363 119q275 0 360 -199q57 91 156.5 144.5t215.5 53.5zM493 113q90 0 176 43.5t146 119.5q-24 64 -32 145h-274q-128 0 -187.5 -43t-59.5 -112q0 -66 60.5 -109.5t170.5 -43.5zM1249 833q-128 0 -211 -80t-101 -211h607
q-14 132 -94.5 211.5t-200.5 79.5z" />
    <glyph glyph-name="ccedilla" unicode="&#xe7;" horiz-adv-x="1024" 
d="M593 966q220 0 351 -149l-96 -101q-115 110 -259 110q-143 0 -238.5 -100t-95.5 -252t96 -252.5t238 -100.5q146 0 262 111l93 -102q-134 -149 -351 -149t-353.5 140t-136.5 353q0 212 136.5 352t353.5 140zM558 -323h-156l109 329l150 -1z" />
    <glyph glyph-name="egrave" unicode="&#xe8;" horiz-adv-x="1121" 
d="M573 966q193 0 318 -136.5t127 -352.5q0 -31 -3 -56h-759q15 -148 108 -228.5t227 -80.5q171 0 300 119l80 -102q-155 -148 -389 -148q-211 0 -345 136.5t-134 355.5q0 216 133.5 354.5t336.5 138.5zM570 833q-128 0 -211 -80t-101 -211h608q-14 133 -94.5 212t-201.5 79
zM288 1392h189l210 -300h-148z" />
    <glyph glyph-name="eacute" unicode="&#xe9;" horiz-adv-x="1121" 
d="M573 966q193 0 318 -136.5t127 -352.5q0 -31 -3 -56h-759q15 -148 108 -228.5t227 -80.5q171 0 300 119l80 -102q-155 -148 -389 -148q-211 0 -345 136.5t-134 355.5q0 216 133.5 354.5t336.5 138.5zM570 833q-128 0 -211 -80t-101 -211h608q-14 133 -94.5 212t-201.5 79
zM439 1092l209 300h190l-251 -300h-148z" />
    <glyph glyph-name="ecircumflex" unicode="&#xea;" horiz-adv-x="1121" 
d="M573 966q193 0 318 -136.5t127 -352.5q0 -31 -3 -56h-759q15 -148 108 -228.5t227 -80.5q171 0 300 119l80 -102q-155 -148 -389 -148q-211 0 -345 136.5t-134 355.5q0 216 133.5 354.5t336.5 138.5zM570 833q-128 0 -211 -80t-101 -211h608q-14 133 -94.5 212t-201.5 79
zM743 1093l-174 189l-175 -189h-160l235 288h200l234 -288h-160z" />
    <glyph glyph-name="edieresis" unicode="&#xeb;" horiz-adv-x="1121" 
d="M573 966q193 0 318 -136.5t127 -352.5q0 -31 -3 -56h-759q15 -148 108 -228.5t227 -80.5q171 0 300 119l80 -102q-155 -148 -389 -148q-211 0 -345 136.5t-134 355.5q0 216 133.5 354.5t336.5 138.5zM570 833q-128 0 -211 -80t-101 -211h608q-14 133 -94.5 212t-201.5 79
zM366 1343q44 0 75 -31t31 -76t-30.5 -75t-75.5 -30t-75.5 30t-30.5 75t30.5 76t75.5 31zM772 1343q44 0 75 -31t31 -76t-30.5 -75t-75.5 -30t-75 30t-30 75t30 76t75 31z" />
    <glyph glyph-name="igrave" unicode="&#xec;" horiz-adv-x="500" 
d="M325 0h-150v947h150v-947zM-31 1392h189l210 -300h-148z" />
    <glyph glyph-name="iacute" unicode="&#xed;" horiz-adv-x="500" 
d="M325 0h-150v947h150v-947zM120 1092l209 300h190l-251 -300h-148z" />
    <glyph glyph-name="icircumflex" unicode="&#xee;" horiz-adv-x="500" 
d="M325 0h-150v947h150v-947zM424 1093l-174 189l-175 -189h-160l235 288h200l234 -288h-160z" />
    <glyph glyph-name="idieresis" unicode="&#xef;" horiz-adv-x="500" 
d="M325 0h-150v947h150v-947zM47 1343q44 0 75 -31t31 -76t-30.5 -75t-75.5 -30t-75.5 30t-30.5 75t30.5 76t75.5 31zM453 1343q44 0 75 -31t31 -76t-30.5 -75t-75.5 -30t-75 30t-30 75t30 76t75 31z" />
    <glyph glyph-name="eth" unicode="&#xf0;" horiz-adv-x="1199" 
d="M928 1343l-197 -117q165 -142 265 -337t100 -406q0 -214 -142.5 -358t-352.5 -144q-213 0 -355.5 138t-142.5 344q0 207 135.5 346.5t334.5 139.5q187 0 306 -125q-90 184 -274 327l-251 -149l-56 91l211 125q-98 61 -214 112l67 120q158 -64 279 -153l231 137zM601 808
q-148 0 -247 -97t-99 -247q0 -149 99 -246t247 -97t247 97t99 246q0 150 -99 247t-247 97z" />
    <glyph glyph-name="ntilde" unicode="&#xf1;" horiz-adv-x="1201" 
d="M642 966q176 0 285.5 -104t109.5 -275v-587h-149v538q0 136 -71 211t-202 75q-123 0 -206.5 -79.5t-83.5 -210.5v-534h-150v947h148v-135q55 80 139.5 117t179.5 37zM273 1234q46 58 97.5 84.5t121.5 26.5q46 0 86.5 -12.5t65.5 -27t55.5 -27t58.5 -12.5q66 0 130 67
l89 -85q-46 -57 -97.5 -84t-121.5 -27q-57 0 -105.5 20t-87 40t-73.5 20q-66 0 -131 -68z" />
    <glyph glyph-name="ograve" unicode="&#xf2;" horiz-adv-x="1203" 
d="M601 966q214 0 356.5 -141t142.5 -351q0 -211 -142.5 -352t-356.5 -141t-356 141t-142 352q0 210 142.5 351t355.5 141zM601 826q-148 0 -247 -100t-99 -252t99 -252.5t247 -100.5t247 100.5t99 252.5t-99 252t-247 100zM320 1392h189l210 -300h-148z" />
    <glyph glyph-name="oacute" unicode="&#xf3;" horiz-adv-x="1203" 
d="M601 966q214 0 356.5 -141t142.5 -351q0 -211 -142.5 -352t-356.5 -141t-356 141t-142 352q0 210 142.5 351t355.5 141zM601 826q-148 0 -247 -100t-99 -252t99 -252.5t247 -100.5t247 100.5t99 252.5t-99 252t-247 100zM471 1092l209 300h190l-251 -300h-148z" />
    <glyph glyph-name="ocircumflex" unicode="&#xf4;" horiz-adv-x="1203" 
d="M601 966q214 0 356.5 -141t142.5 -351q0 -211 -142.5 -352t-356.5 -141t-356 141t-142 352q0 210 142.5 351t355.5 141zM601 826q-148 0 -247 -100t-99 -252t99 -252.5t247 -100.5t247 100.5t99 252.5t-99 252t-247 100zM775 1093l-174 189l-175 -189h-160l235 288h200
l234 -288h-160z" />
    <glyph glyph-name="otilde" unicode="&#xf5;" horiz-adv-x="1203" 
d="M601 966q214 0 356.5 -141t142.5 -351q0 -211 -142.5 -352t-356.5 -141t-356 141t-142 352q0 210 142.5 351t355.5 141zM601 826q-148 0 -247 -100t-99 -252t99 -252.5t247 -100.5t247 100.5t99 252.5t-99 252t-247 100zM257 1234q46 58 97.5 84.5t121.5 26.5
q46 0 86.5 -12.5t65.5 -27t55.5 -27t58.5 -12.5q66 0 130 67l89 -85q-46 -57 -97.5 -84t-121.5 -27q-57 0 -105.5 20t-87 40t-73.5 20q-66 0 -131 -68z" />
    <glyph glyph-name="odieresis" unicode="&#xf6;" horiz-adv-x="1203" 
d="M601 966q214 0 356.5 -141t142.5 -351q0 -211 -142.5 -352t-356.5 -141t-356 141t-142 352q0 210 142.5 351t355.5 141zM601 826q-148 0 -247 -100t-99 -252t99 -252.5t247 -100.5t247 100.5t99 252.5t-99 252t-247 100zM398 1343q44 0 75 -31t31 -76t-30.5 -75
t-75.5 -30t-75.5 30t-30.5 75t30.5 76t75.5 31zM804 1343q44 0 75 -31t31 -76t-30.5 -75t-75.5 -30t-75 30t-30 75t30 76t75 31z" />
    <glyph glyph-name="oslash" unicode="&#xf8;" horiz-adv-x="1203" 
d="M601 966q175 0 306 -98l111 111l90 -90l-110 -110q102 -134 102 -305q0 -211 -142.5 -352t-356.5 -141q-175 0 -304 97l-111 -111l-91 89l110 110q-102 132 -102 308q0 210 142.5 351t355.5 141zM601 826q-148 0 -247 -100t-99 -252q0 -112 57 -201l491 491
q-91 62 -202 62zM947 474q0 108 -56 198l-491 -491q86 -60 201 -60q148 0 247 100.5t99 252.5z" />
    <glyph glyph-name="ugrave" unicode="&#xf9;" horiz-adv-x="1188" 
d="M1024 395q0 -102 -35 -182.5t-95 -130.5t-136.5 -75.5t-163.5 -25.5q-88 0 -164.5 25.5t-136.5 75.5t-94.5 130.5t-34.5 182.5v552h149v-538q0 -142 76.5 -215t204.5 -73q127 0 203.5 73t76.5 215v538h150v-552zM313 1392h189l210 -300h-148z" />
    <glyph glyph-name="uacute" unicode="&#xfa;" horiz-adv-x="1188" 
d="M1024 395q0 -102 -35 -182.5t-95 -130.5t-136.5 -75.5t-163.5 -25.5q-88 0 -164.5 25.5t-136.5 75.5t-94.5 130.5t-34.5 182.5v552h149v-538q0 -142 76.5 -215t204.5 -73q127 0 203.5 73t76.5 215v538h150v-552zM464 1092l209 300h190l-251 -300h-148z" />
    <glyph glyph-name="ucircumflex" unicode="&#xfb;" horiz-adv-x="1188" 
d="M1024 395q0 -102 -35 -182.5t-95 -130.5t-136.5 -75.5t-163.5 -25.5q-88 0 -164.5 25.5t-136.5 75.5t-94.5 130.5t-34.5 182.5v552h149v-538q0 -142 76.5 -215t204.5 -73q127 0 203.5 73t76.5 215v538h150v-552zM768 1093l-174 189l-175 -189h-160l235 288h200l234 -288
h-160z" />
    <glyph glyph-name="udieresis" unicode="&#xfc;" horiz-adv-x="1188" 
d="M1024 395q0 -102 -35 -182.5t-95 -130.5t-136.5 -75.5t-163.5 -25.5q-88 0 -164.5 25.5t-136.5 75.5t-94.5 130.5t-34.5 182.5v552h149v-538q0 -142 76.5 -215t204.5 -73q127 0 203.5 73t76.5 215v538h150v-552zM391 1343q44 0 75 -31t31 -76t-30.5 -75t-75.5 -30
t-75.5 30t-30.5 75t30.5 76t75.5 31zM797 1343q44 0 75 -31t31 -76t-30.5 -75t-75.5 -30t-75 30t-30 75t30 76t75 31z" />
    <glyph glyph-name="yacute" unicode="&#xfd;" horiz-adv-x="1054" 
d="M268 -404h-165l353 609l-435 742h167l353 -594l334 594h164zM402 1092l209 300h190l-251 -300h-148z" />
    <glyph glyph-name="thorn" unicode="&#xfe;" horiz-adv-x="1246" 
d="M670 966q201 0 337 -140t136 -352t-136 -352.5t-337 -140.5q-219 0 -345 159v-540h-150v1840h150v-633q126 159 345 159zM652 826q-147 0 -242 -100.5t-95 -251.5q0 -152 95 -252.5t242 -100.5q150 0 244 101.5t94 251.5q0 149 -95 250.5t-243 101.5z" />
    <glyph glyph-name="ydieresis" unicode="&#xff;" horiz-adv-x="1054" 
d="M268 -404h-165l353 609l-435 742h167l353 -594l334 594h164zM329 1343q44 0 75 -31t31 -76t-30.5 -75t-75.5 -30t-75.5 30t-30.5 75t30.5 76t75.5 31zM735 1343q44 0 75 -31t31 -76t-30.5 -75t-75.5 -30t-75 30t-30 75t30 76t75 31z" />
    <glyph glyph-name="Amacron" unicode="&#x100;" horiz-adv-x="1421" 
d="M1385 0h-172l-159 390h-693l-158 -390h-167l575 1400h199zM423 542h570l-285 699zM412 1711h598v-121h-598v121z" />
    <glyph glyph-name="amacron" unicode="&#x101;" horiz-adv-x="1246" 
d="M1071 0h-149v141q-125 -160 -346 -160q-201 0 -337 140t-136 353q0 212 136 352t337 140q219 0 346 -160v141h149v-947zM594 826q-150 0 -244.5 -101.5t-94.5 -250.5t95 -251t244 -102q147 0 242 100.5t95 252.5q0 151 -95 251.5t-242 100.5zM312 1296h598v-121h-598v121
z" />
    <glyph glyph-name="Abreve" unicode="&#x102;" horiz-adv-x="1421" 
d="M1385 0h-172l-159 390h-693l-158 -390h-167l575 1400h199zM423 542h570l-285 699zM490 1818q58 -191 221 -191q164 0 222 191l120 -37q-38 -137 -126.5 -208.5t-215.5 -71.5t-215 71.5t-126 208.5z" />
    <glyph glyph-name="abreve" unicode="&#x103;" horiz-adv-x="1246" 
d="M1071 0h-149v141q-125 -160 -346 -160q-201 0 -337 140t-136 353q0 212 136 352t337 140q219 0 346 -160v141h149v-947zM594 826q-150 0 -244.5 -101.5t-94.5 -250.5t95 -251t244 -102q147 0 242 100.5t95 252.5q0 151 -95 251.5t-242 100.5zM390 1403q58 -191 221 -191
q164 0 222 191l120 -37q-38 -137 -126.5 -208.5t-215.5 -71.5t-215 71.5t-126 208.5z" />
    <glyph glyph-name="Aogonek" unicode="&#x104;" horiz-adv-x="1421" 
d="M1385 0h-172l-159 390h-693l-158 -390h-167l575 1400h199zM423 542h570l-285 699zM1388 -332q-83 -83 -194 -83q-94 0 -153.5 48t-59.5 128q0 90 78.5 157t246.5 140l35 -58q-114 -55 -166.5 -105t-52.5 -104q0 -35 23.5 -56t61.5 -21q54 0 102 50z" />
    <glyph glyph-name="aogonek" unicode="&#x105;" horiz-adv-x="1246" 
d="M1071 0h-149v141q-125 -160 -346 -160q-201 0 -337 140t-136 353q0 212 136 352t337 140q219 0 346 -160v141h149v-947zM594 826q-150 0 -244.5 -101.5t-94.5 -250.5t95 -251t244 -102q147 0 242 100.5t95 252.5q0 151 -95 251.5t-242 100.5zM1118 -332q-83 -83 -194 -83
q-94 0 -153.5 48t-59.5 128q0 90 78.5 157t246.5 140l35 -58q-114 -55 -166.5 -105t-52.5 -104q0 -35 23.5 -56t61.5 -21q54 0 102 50z" />
    <glyph glyph-name="Cacute" unicode="&#x106;" horiz-adv-x="1530" 
d="M844 1420q183 0 335.5 -78t235.5 -212l-134 -90q-71 105 -185.5 165t-251.5 60q-117 0 -219 -41.5t-176 -114.5t-116.5 -179t-42.5 -230t42.5 -230t116.5 -179t176 -114.5t219 -41.5q139 0 252 58.5t185 165.5l130 -96q-89 -132 -238 -207.5t-329 -75.5q-154 0 -288 54
t-229.5 148.5t-150.5 228.5t-55 289t55 289t150.5 228.5t229.5 148.5t288 54zM697 1507l209 300h190l-251 -300h-148z" />
    <glyph glyph-name="cacute" unicode="&#x107;" horiz-adv-x="1024" 
d="M593 966q220 0 351 -149l-96 -101q-115 110 -259 110q-143 0 -238.5 -100t-95.5 -252t96 -252.5t238 -100.5q146 0 262 111l93 -102q-134 -149 -351 -149t-353.5 140t-136.5 353q0 212 136.5 352t353.5 140zM453 1092l209 300h190l-251 -300h-148z" />
    <glyph glyph-name="Ccircumflex" unicode="&#x108;" horiz-adv-x="1530" 
d="M844 1420q183 0 335.5 -78t235.5 -212l-134 -90q-71 105 -185.5 165t-251.5 60q-117 0 -219 -41.5t-176 -114.5t-116.5 -179t-42.5 -230t42.5 -230t116.5 -179t176 -114.5t219 -41.5q139 0 252 58.5t185 165.5l130 -96q-89 -132 -238 -207.5t-329 -75.5q-154 0 -288 54
t-229.5 148.5t-150.5 228.5t-55 289t55 289t150.5 228.5t229.5 148.5t288 54zM1012 1508l-174 189l-175 -189h-160l235 288h200l234 -288h-160z" />
    <glyph glyph-name="ccircumflex" unicode="&#x109;" horiz-adv-x="1024" 
d="M593 966q220 0 351 -149l-96 -101q-115 110 -259 110q-143 0 -238.5 -100t-95.5 -252t96 -252.5t238 -100.5q146 0 262 111l93 -102q-134 -149 -351 -149t-353.5 140t-136.5 353q0 212 136.5 352t353.5 140zM757 1093l-174 189l-175 -189h-160l235 288h200l234 -288h-160
z" />
    <glyph glyph-name="Cdotaccent" unicode="&#x10a;" horiz-adv-x="1530" 
d="M844 1420q183 0 335.5 -78t235.5 -212l-134 -90q-71 105 -185.5 165t-251.5 60q-117 0 -219 -41.5t-176 -114.5t-116.5 -179t-42.5 -230t42.5 -230t116.5 -179t176 -114.5t219 -41.5q139 0 252 58.5t185 165.5l130 -96q-89 -132 -238 -207.5t-329 -75.5q-154 0 -288 54
t-229.5 148.5t-150.5 228.5t-55 289t55 289t150.5 228.5t229.5 148.5t288 54zM824 1764q46 0 78 -31.5t32 -77.5t-32 -77.5t-78 -31.5t-77.5 31t-31.5 78t31.5 78t77.5 31z" />
    <glyph glyph-name="cdotaccent" unicode="&#x10b;" horiz-adv-x="1024" 
d="M593 966q220 0 351 -149l-96 -101q-115 110 -259 110q-143 0 -238.5 -100t-95.5 -252t96 -252.5t238 -100.5q146 0 262 111l93 -102q-134 -149 -351 -149t-353.5 140t-136.5 353q0 212 136.5 352t353.5 140zM583 1389q44 0 75 -30.5t31 -75.5t-30.5 -75t-75.5 -30t-75 30
t-30 75t30 75.5t75 30.5z" />
    <glyph glyph-name="Ccaron" unicode="&#x10c;" horiz-adv-x="1530" 
d="M844 1420q183 0 335.5 -78t235.5 -212l-134 -90q-71 105 -185.5 165t-251.5 60q-117 0 -219 -41.5t-176 -114.5t-116.5 -179t-42.5 -230t42.5 -230t116.5 -179t176 -114.5t219 -41.5q139 0 252 58.5t185 165.5l130 -96q-89 -132 -238 -207.5t-329 -75.5q-154 0 -288 54
t-229.5 148.5t-150.5 228.5t-55 289t55 289t150.5 228.5t229.5 148.5t288 54zM663 1794l175 -189l174 189h160l-234 -288h-200l-235 288h160z" />
    <glyph glyph-name="ccaron" unicode="&#x10d;" horiz-adv-x="1024" 
d="M593 966q220 0 351 -149l-96 -101q-115 110 -259 110q-143 0 -238.5 -100t-95.5 -252t96 -252.5t238 -100.5q146 0 262 111l93 -102q-134 -149 -351 -149t-353.5 140t-136.5 353q0 212 136.5 352t353.5 140zM408 1379l175 -189l174 189h160l-234 -288h-200l-235 288h160z
" />
    <glyph glyph-name="Dcaron" unicode="&#x10e;" horiz-adv-x="1598" 
d="M729 1400q343 0 545 -190t202 -510t-202 -510t-545 -190h-527v1400h527zM363 1248v-1096h366q278 0 428 148t150 400q0 254 -149.5 401t-428.5 147h-366zM563 1794l175 -189l174 189h160l-234 -288h-200l-235 288h160z" />
    <glyph glyph-name="dcaron" unicode="&#x10f;" horiz-adv-x="1296" 
d="M576 966q219 0 346 -160v634h149v-1440h-149v141q-125 -160 -346 -160q-201 0 -337 140t-136 353q0 212 136 352t337 140zM594 826q-150 0 -244.5 -101.5t-94.5 -250.5t95 -251t244 -102q147 0 242 100.5t95 252.5q0 151 -95 251.5t-242 100.5zM1189 1051l7 389h153
l-34 -389h-126z" />
    <glyph glyph-name="Dcroat" unicode="&#x110;" horiz-adv-x="1749" 
d="M880 1400q343 0 545 -190t202 -510t-202 -510t-545 -190h-527v629h-232v152h232v619h527zM917 629h-403v-477h366q278 0 428 148t150 400q0 254 -149.5 401t-428.5 147h-366v-467h403v-152z" />
    <glyph glyph-name="dcroat" unicode="&#x111;" horiz-adv-x="1246" 
d="M1221 1115h-150v-1115h-149v141q-125 -160 -346 -160q-201 0 -337 140t-136 353q0 212 136 352t337 140q219 0 346 -160v309h-419v136h419v189h149v-189h150v-136zM594 826q-150 0 -244.5 -101.5t-94.5 -250.5t95 -251t244 -102q147 0 242 100.5t95 252.5
q0 151 -95 251.5t-242 100.5z" />
    <glyph glyph-name="Emacron" unicode="&#x112;" horiz-adv-x="1348" 
d="M1187 0h-985v1400h976v-151h-815v-469h790v-150h-790v-479h824v-151zM386 1711h598v-121h-598v121z" />
    <glyph glyph-name="emacron" unicode="&#x113;" horiz-adv-x="1121" 
d="M573 966q193 0 318 -136.5t127 -352.5q0 -31 -3 -56h-759q15 -148 108 -228.5t227 -80.5q171 0 300 119l80 -102q-155 -148 -389 -148q-211 0 -345 136.5t-134 355.5q0 216 133.5 354.5t336.5 138.5zM570 833q-128 0 -211 -80t-101 -211h608q-14 133 -94.5 212t-201.5 79
zM270 1296h598v-121h-598v121z" />
    <glyph glyph-name="Ebreve" unicode="&#x114;" horiz-adv-x="1348" 
d="M1187 0h-985v1400h976v-151h-815v-469h790v-150h-790v-479h824v-151zM464 1818q58 -191 221 -191q164 0 222 191l120 -37q-38 -137 -126.5 -208.5t-215.5 -71.5t-215 71.5t-126 208.5z" />
    <glyph glyph-name="ebreve" unicode="&#x115;" horiz-adv-x="1121" 
d="M573 966q193 0 318 -136.5t127 -352.5q0 -31 -3 -56h-759q15 -148 108 -228.5t227 -80.5q171 0 300 119l80 -102q-155 -148 -389 -148q-211 0 -345 136.5t-134 355.5q0 216 133.5 354.5t336.5 138.5zM570 833q-128 0 -211 -80t-101 -211h608q-14 133 -94.5 212t-201.5 79
zM348 1403q58 -191 221 -191q164 0 222 191l120 -37q-38 -137 -126.5 -208.5t-215.5 -71.5t-215 71.5t-126 208.5z" />
    <glyph glyph-name="Edotaccent" unicode="&#x116;" horiz-adv-x="1348" 
d="M1187 0h-985v1400h976v-151h-815v-469h790v-150h-790v-479h824v-151zM671 1764q46 0 78 -31.5t32 -77.5t-32 -77.5t-78 -31.5q-47 0 -78 31t-31 78t31 78t78 31z" />
    <glyph glyph-name="edotaccent" unicode="&#x117;" horiz-adv-x="1121" 
d="M573 966q193 0 318 -136.5t127 -352.5q0 -31 -3 -56h-759q15 -148 108 -228.5t227 -80.5q171 0 300 119l80 -102q-155 -148 -389 -148q-211 0 -345 136.5t-134 355.5q0 216 133.5 354.5t336.5 138.5zM570 833q-128 0 -211 -80t-101 -211h608q-14 133 -94.5 212t-201.5 79
zM569 1389q44 0 75 -30.5t31 -75.5t-30.5 -75t-75.5 -30t-75 30t-30 75t30 75.5t75 30.5z" />
    <glyph glyph-name="Eogonek" unicode="&#x118;" horiz-adv-x="1348" 
d="M1187 0h-985v1400h976v-151h-815v-469h790v-150h-790v-479h824v-151zM1035 16q-94 -46 -137 -93t-43 -105q0 -46 34 -75t90 -29q81 0 143 58l80 -97q-94 -90 -232 -90q-116 0 -188.5 58t-72.5 148q0 96 74.5 161.5t228.5 119.5z" />
    <glyph glyph-name="eogonek" unicode="&#x119;" horiz-adv-x="1121" 
d="M573 966q193 0 318 -136.5t127 -352.5q0 -31 -3 -56h-759q15 -148 108 -228.5t227 -80.5q171 0 300 119l80 -102q-155 -148 -389 -148q-211 0 -345 136.5t-134 355.5q0 216 133.5 354.5t336.5 138.5zM570 833q-128 0 -211 -80t-101 -211h608q-14 133 -94.5 212t-201.5 79
zM967 -325q-95 -90 -232 -90q-116 0 -188.5 58t-72.5 148q0 103 82 170t253 130l18 -59q-107 -53 -157 -102.5t-50 -111.5q0 -46 34 -75t90 -29q81 0 143 58z" />
    <glyph glyph-name="Ecaron" unicode="&#x11a;" horiz-adv-x="1348" 
d="M1187 0h-985v1400h976v-151h-815v-469h790v-150h-790v-479h824v-151zM510 1794l175 -189l174 189h160l-234 -288h-200l-235 288h160z" />
    <glyph glyph-name="ecaron" unicode="&#x11b;" horiz-adv-x="1121" 
d="M573 966q193 0 318 -136.5t127 -352.5q0 -31 -3 -56h-759q15 -148 108 -228.5t227 -80.5q171 0 300 119l80 -102q-155 -148 -389 -148q-211 0 -345 136.5t-134 355.5q0 216 133.5 354.5t336.5 138.5zM570 833q-128 0 -211 -80t-101 -211h608q-14 133 -94.5 212t-201.5 79
zM394 1379l175 -189l174 189h160l-234 -288h-200l-235 288h160z" />
    <glyph glyph-name="Gcircumflex" unicode="&#x11c;" horiz-adv-x="1639" 
d="M844 1420q166 0 305.5 -61.5t237.5 -173.5l-119 -114q-76 92 -185.5 143t-238.5 51q-117 0 -219 -41.5t-176 -114.5t-116.5 -179t-42.5 -230t42.5 -230t116 -179t174 -114.5t214.5 -41.5q220 0 353 123.5t151 339.5h-436v150h610q2 -30 2 -41q0 -153 -47.5 -285.5
t-134 -230.5t-215 -154t-283.5 -56q-111 0 -216 31t-195.5 92.5t-158.5 146.5t-107 201t-39 248q0 207 94 372t259.5 256.5t369.5 91.5zM996 1508l-174 189l-175 -189h-160l235 288h200l234 -288h-160z" />
    <glyph glyph-name="gcircumflex" unicode="&#x11d;" horiz-adv-x="1235" 
d="M572 966q221 0 338 -161v142h150v-882q0 -227 -138 -353.5t-363 -126.5q-114 0 -220.5 33.5t-178.5 93.5l66 120q149 -111 333 -111q158 0 254.5 88t96.5 250v97q-116 -161 -338 -161q-201 0 -335 136.5t-134 349.5t134 349t335 136zM589 826q-148 0 -241 -99.5
t-93 -245.5q0 -147 93 -246.5t241 -99.5q145 0 239.5 99t94.5 247q0 147 -94.5 246t-239.5 99zM778 1093l-174 189l-175 -189h-160l235 288h200l234 -288h-160z" />
    <glyph glyph-name="Gbreve" unicode="&#x11e;" horiz-adv-x="1639" 
d="M844 1420q166 0 305.5 -61.5t237.5 -173.5l-119 -114q-76 92 -185.5 143t-238.5 51q-117 0 -219 -41.5t-176 -114.5t-116.5 -179t-42.5 -230t42.5 -230t116 -179t174 -114.5t214.5 -41.5q220 0 353 123.5t151 339.5h-436v150h610q2 -30 2 -41q0 -153 -47.5 -285.5
t-134 -230.5t-215 -154t-283.5 -56q-111 0 -216 31t-195.5 92.5t-158.5 146.5t-107 201t-39 248q0 207 94 372t259.5 256.5t369.5 91.5zM601 1818q58 -191 221 -191q164 0 222 191l120 -37q-38 -137 -126.5 -208.5t-215.5 -71.5t-215 71.5t-126 208.5z" />
    <glyph glyph-name="gbreve" unicode="&#x11f;" horiz-adv-x="1235" 
d="M572 966q221 0 338 -161v142h150v-882q0 -227 -138 -353.5t-363 -126.5q-114 0 -220.5 33.5t-178.5 93.5l66 120q149 -111 333 -111q158 0 254.5 88t96.5 250v97q-116 -161 -338 -161q-201 0 -335 136.5t-134 349.5t134 349t335 136zM589 826q-148 0 -241 -99.5
t-93 -245.5q0 -147 93 -246.5t241 -99.5q145 0 239.5 99t94.5 247q0 147 -94.5 246t-239.5 99zM383 1403q58 -191 221 -191q164 0 222 191l120 -37q-38 -137 -126.5 -208.5t-215.5 -71.5t-215 71.5t-126 208.5z" />
    <glyph glyph-name="Gdotaccent" unicode="&#x120;" horiz-adv-x="1639" 
d="M844 1420q166 0 305.5 -61.5t237.5 -173.5l-119 -114q-76 92 -185.5 143t-238.5 51q-117 0 -219 -41.5t-176 -114.5t-116.5 -179t-42.5 -230t42.5 -230t116 -179t174 -114.5t214.5 -41.5q220 0 353 123.5t151 339.5h-436v150h610q2 -30 2 -41q0 -153 -47.5 -285.5
t-134 -230.5t-215 -154t-283.5 -56q-111 0 -216 31t-195.5 92.5t-158.5 146.5t-107 201t-39 248q0 207 94 372t259.5 256.5t369.5 91.5zM808 1764q46 0 78 -31.5t32 -77.5t-32 -77.5t-78 -31.5t-77.5 31t-31.5 78t31.5 78t77.5 31z" />
    <glyph glyph-name="gdotaccent" unicode="&#x121;" horiz-adv-x="1235" 
d="M572 966q221 0 338 -161v142h150v-882q0 -227 -138 -353.5t-363 -126.5q-114 0 -220.5 33.5t-178.5 93.5l66 120q149 -111 333 -111q158 0 254.5 88t96.5 250v97q-116 -161 -338 -161q-201 0 -335 136.5t-134 349.5t134 349t335 136zM589 826q-148 0 -241 -99.5
t-93 -245.5q0 -147 93 -246.5t241 -99.5q145 0 239.5 99t94.5 247q0 147 -94.5 246t-239.5 99zM604 1389q44 0 75 -30.5t31 -75.5t-30.5 -75t-75.5 -30t-75 30t-30 75t30 75.5t75 30.5z" />
    <glyph glyph-name="Gcommaaccent" unicode="&#x122;" horiz-adv-x="1639" 
d="M844 1420q166 0 305.5 -61.5t237.5 -173.5l-119 -114q-76 92 -185.5 143t-238.5 51q-117 0 -219 -41.5t-176 -114.5t-116.5 -179t-42.5 -230t42.5 -230t116 -179t174 -114.5t214.5 -41.5q220 0 353 123.5t151 339.5h-436v150h610q2 -30 2 -41q0 -153 -47.5 -285.5
t-134 -230.5t-215 -154t-283.5 -56q-111 0 -216 31t-195.5 92.5t-158.5 146.5t-107 201t-39 248q0 207 94 372t259.5 256.5t369.5 91.5zM922 -88l-74 -350h-132l42 350h164z" />
    <glyph glyph-name="gcommaaccent" unicode="&#x123;" horiz-adv-x="1235" 
d="M572 966q221 0 338 -161v142h150v-882q0 -227 -138 -353.5t-363 -126.5q-114 0 -220.5 33.5t-178.5 93.5l66 120q149 -111 333 -111q158 0 254.5 88t96.5 250v97q-116 -161 -338 -161q-201 0 -335 136.5t-134 349.5t134 349t335 136zM589 826q-148 0 -241 -99.5
t-93 -245.5q0 -147 93 -246.5t241 -99.5q145 0 239.5 99t94.5 247q0 147 -94.5 246t-239.5 99zM513 1092l74 351h132l-42 -351h-164z" />
    <glyph glyph-name="Hcircumflex" unicode="&#x124;" horiz-adv-x="1573" 
d="M363 781h847v619h161v-1400h-161v629h-847v-629h-161v1400h161v-619zM960 1508l-174 189l-175 -189h-160l235 288h200l234 -288h-160z" />
    <glyph glyph-name="hcircumflex" unicode="&#x125;" horiz-adv-x="1201" 
d="M325 815q55 78 139 114.5t178 36.5q176 0 285.5 -104t109.5 -275v-587h-149v538q0 136 -71 211t-202 75q-123 0 -206.5 -79.5t-83.5 -210.5v-534h-150v1440h150v-625zM783 1546l-174 189l-175 -189h-160l235 288h200l234 -288h-160z" />
    <glyph glyph-name="Itilde" unicode="&#x128;" horiz-adv-x="565" 
d="M363 0h-161v1400h161v-1400zM-70 1649q46 58 97.5 84.5t121.5 26.5q58 0 106.5 -20t87 -39.5t72.5 -19.5q66 0 130 67l89 -85q-46 -57 -97.5 -84t-121.5 -27q-57 0 -105.5 20t-87 40t-73.5 20q-66 0 -131 -68z" />
    <glyph glyph-name="itilde" unicode="&#x129;" horiz-adv-x="500" 
d="M325 0h-150v947h150v-947zM-94 1234q46 58 97.5 84.5t121.5 26.5q46 0 86.5 -12.5t65.5 -27t55.5 -27t58.5 -12.5q66 0 130 67l89 -85q-46 -57 -97.5 -84t-121.5 -27q-57 0 -105.5 20t-87 40t-73.5 20q-66 0 -131 -68z" />
    <glyph glyph-name="Imacron" unicode="&#x12a;" horiz-adv-x="565" 
d="M363 0h-161v1400h161v-1400zM-17 1711h598v-121h-598v121z" />
    <glyph glyph-name="imacron" unicode="&#x12b;" horiz-adv-x="500" 
d="M325 0h-150v947h150v-947zM-49 1296h598v-121h-598v121z" />
    <glyph glyph-name="Ibreve" unicode="&#x12c;" horiz-adv-x="565" 
d="M363 0h-161v1400h161v-1400zM61 1818q58 -191 221 -191q164 0 222 191l120 -37q-38 -137 -126.5 -208.5t-215.5 -71.5t-215 71.5t-126 208.5z" />
    <glyph glyph-name="ibreve" unicode="&#x12d;" horiz-adv-x="500" 
d="M325 0h-150v947h150v-947zM29 1403q58 -191 221 -191q164 0 222 191l120 -37q-38 -137 -126.5 -208.5t-215.5 -71.5t-215 71.5t-126 208.5z" />
    <glyph glyph-name="Iogonek" unicode="&#x12e;" horiz-adv-x="565" 
d="M363 0h-161v1400h161v-1400zM489 -332q-83 -83 -195 -83q-94 0 -153.5 48t-59.5 128q0 83 61 152.5t184 144.5l37 -58q-141 -116 -141 -209q0 -35 23.5 -56t61.5 -21q57 0 102 50z" />
    <glyph glyph-name="iogonek" unicode="&#x12f;" horiz-adv-x="500" 
d="M451 -332q-83 -83 -195 -83q-94 0 -153.5 48t-59.5 128q0 83 61 152.5t184 144.5l37 -58q-141 -116 -141 -209q0 -35 23.5 -56t61.5 -21q57 0 102 50zM325 0h-150v947h150v-947zM250 1389q44 0 75 -30.5t31 -75.5t-30.5 -75t-75.5 -30t-75 30t-30 75t30 75.5t75 30.5z
" />
    <glyph glyph-name="Idotaccent" unicode="&#x130;" horiz-adv-x="565" 
d="M363 0h-161v1400h161v-1400zM268 1764q46 0 78 -31.5t32 -77.5t-32 -77.5t-78 -31.5t-77.5 31t-31.5 78t31.5 78t77.5 31z" />
    <glyph glyph-name="dotlessi" unicode="&#x131;" horiz-adv-x="500" 
d="M325 0h-150v947h150v-947z" />
    <glyph glyph-name="Kcommaaccent" unicode="&#x136;" horiz-adv-x="1388" 
d="M529 628h-166v-628h-161v1400h161v-620h169l581 620h208l-658 -687l701 -713h-219zM797 -88l-74 -350h-132l42 350h164z" />
    <glyph glyph-name="kcommaaccent" unicode="&#x137;" horiz-adv-x="1058" 
d="M325 563h137l365 384h187l-430 -446l437 -501h-189l-371 427h-136v-427h-150v1440h150v-877zM654 -88l-74 -350h-132l42 350h164z" />
    <glyph glyph-name="Lacute" unicode="&#x139;" horiz-adv-x="1213" 
d="M1173 0h-971v1400h161v-1248h810v-152zM141 1507l209 300h190l-251 -300h-148z" />
    <glyph glyph-name="lacute" unicode="&#x13a;" horiz-adv-x="500" 
d="M325 0h-150v1440h150v-1440zM84 1545l209 300h190l-251 -300h-148z" />
    <glyph glyph-name="Lcommaaccent" unicode="&#x13b;" horiz-adv-x="1213" 
d="M1173 0h-971v1400h161v-1248h810v-152zM781 -88l-74 -350h-132l42 350h164z" />
    <glyph glyph-name="lcommaaccent" unicode="&#x13c;" horiz-adv-x="500" 
d="M325 0h-150v1440h150v-1440zM345 -88l-74 -350h-132l42 350h164z" />
    <glyph glyph-name="Lcaron" unicode="&#x13d;" horiz-adv-x="1213" 
d="M1173 0h-971v1400h161v-1248h810v-152zM601 1012l7 389h153l-34 -389h-126z" />
    <glyph glyph-name="lcaron" unicode="&#x13e;" horiz-adv-x="543" 
d="M325 0h-150v1440h150v-1440zM432 1051l7 389h153l-34 -389h-126z" />
    <glyph glyph-name="Ldot" unicode="&#x13f;" horiz-adv-x="1213" 
d="M1173 0h-971v1400h161v-1248h810v-152zM857 815q46 0 78 -31.5t32 -77.5t-32 -77.5t-78 -31.5q-47 0 -78 31.5t-31 77.5t31 77.5t78 31.5z" />
    <glyph glyph-name="ldot" unicode="&#x140;" horiz-adv-x="613" 
d="M325 0h-150v1440h150v-1440zM552 837q44 0 75 -30.5t31 -75.5t-30.5 -75t-75.5 -30t-75 30t-30 75t30 75.5t75 30.5z" />
    <glyph glyph-name="Lslash" unicode="&#x141;" horiz-adv-x="1346" 
d="M1306 0h-971v503l-214 -120v172l214 120v725h161v-635l517 290v-172l-517 -290v-441h810v-152z" />
    <glyph glyph-name="lslash" unicode="&#x142;" horiz-adv-x="670" 
d="M409 877l208 148v-155l-208 -148v-722h-150v616l-206 -146v155l206 146v669h150v-563z" />
    <glyph glyph-name="Nacute" unicode="&#x143;" horiz-adv-x="1577" 
d="M1375 0h-145l-867 1124v-1124h-161v1400h145l867 -1124v1124h161v-1400zM647 1507l209 300h190l-251 -300h-148z" />
    <glyph glyph-name="nacute" unicode="&#x144;" horiz-adv-x="1201" 
d="M642 966q176 0 285.5 -104t109.5 -275v-587h-149v538q0 136 -71 211t-202 75q-123 0 -206.5 -79.5t-83.5 -210.5v-534h-150v947h148v-135q55 80 139.5 117t179.5 37zM487 1092l209 300h190l-251 -300h-148z" />
    <glyph glyph-name="Ncommaaccent" unicode="&#x145;" horiz-adv-x="1577" 
d="M1375 0h-145l-867 1124v-1124h-161v1400h145l867 -1124v1124h161v-1400zM886 -88l-74 -350h-132l42 350h164z" />
    <glyph glyph-name="ncommaaccent" unicode="&#x146;" horiz-adv-x="1201" 
d="M642 966q176 0 285.5 -104t109.5 -275v-587h-149v538q0 136 -71 211t-202 75q-123 0 -206.5 -79.5t-83.5 -210.5v-534h-150v947h148v-135q55 80 139.5 117t179.5 37zM700 -88l-74 -350h-132l42 350h164z" />
    <glyph glyph-name="Ncaron" unicode="&#x147;" horiz-adv-x="1577" 
d="M1375 0h-145l-867 1124v-1124h-161v1400h145l867 -1124v1124h161v-1400zM613 1794l175 -189l174 189h160l-234 -288h-200l-235 288h160z" />
    <glyph glyph-name="ncaron" unicode="&#x148;" horiz-adv-x="1201" 
d="M642 966q176 0 285.5 -104t109.5 -275v-587h-149v538q0 136 -71 211t-202 75q-123 0 -206.5 -79.5t-83.5 -210.5v-534h-150v947h148v-135q55 80 139.5 117t179.5 37zM442 1379l175 -189l174 189h160l-234 -288h-200l-235 288h160z" />
    <glyph glyph-name="napostrophe" unicode="&#x149;" horiz-adv-x="1476" 
d="M361 1440l-105 -507h-129l60 507h174zM917 966q176 0 285.5 -104t109.5 -275v-587h-149v538q0 136 -71 211t-202 75q-123 0 -206.5 -79.5t-83.5 -210.5v-534h-150v947h148v-135q55 80 139.5 117t179.5 37z" />
    <glyph glyph-name="Omacron" unicode="&#x14c;" horiz-adv-x="1689" 
d="M844 1420q154 0 288 -54t229.5 -148.5t150.5 -228.5t55 -289t-55 -289t-150.5 -228.5t-229.5 -148.5t-288 -54t-288 54t-229.5 148.5t-150.5 228.5t-55 289t55 289t150.5 228.5t229.5 148.5t288 54zM844 1265q-117 0 -219 -41.5t-176 -114.5t-116.5 -179t-42.5 -230
t42.5 -230t116.5 -179t176 -114.5t219 -41.5q157 0 283 70t199 200t73 295t-73 295t-199 200t-283 70zM545 1711h598v-121h-598v121z" />
    <glyph glyph-name="omacron" unicode="&#x14d;" horiz-adv-x="1203" 
d="M601 966q214 0 356.5 -141t142.5 -351q0 -211 -142.5 -352t-356.5 -141t-356 141t-142 352q0 210 142.5 351t355.5 141zM601 826q-148 0 -247 -100t-99 -252t99 -252.5t247 -100.5t247 100.5t99 252.5t-99 252t-247 100zM302 1296h598v-121h-598v121z" />
    <glyph glyph-name="Obreve" unicode="&#x14e;" horiz-adv-x="1689" 
d="M844 1420q154 0 288 -54t229.5 -148.5t150.5 -228.5t55 -289t-55 -289t-150.5 -228.5t-229.5 -148.5t-288 -54t-288 54t-229.5 148.5t-150.5 228.5t-55 289t55 289t150.5 228.5t229.5 148.5t288 54zM844 1265q-117 0 -219 -41.5t-176 -114.5t-116.5 -179t-42.5 -230
t42.5 -230t116.5 -179t176 -114.5t219 -41.5q157 0 283 70t199 200t73 295t-73 295t-199 200t-283 70zM623 1818q58 -191 221 -191q164 0 222 191l120 -37q-38 -137 -126.5 -208.5t-215.5 -71.5t-215 71.5t-126 208.5z" />
    <glyph glyph-name="obreve" unicode="&#x14f;" horiz-adv-x="1203" 
d="M601 966q214 0 356.5 -141t142.5 -351q0 -211 -142.5 -352t-356.5 -141t-356 141t-142 352q0 210 142.5 351t355.5 141zM601 826q-148 0 -247 -100t-99 -252t99 -252.5t247 -100.5t247 100.5t99 252.5t-99 252t-247 100zM380 1403q58 -191 221 -191q164 0 222 191
l120 -37q-38 -137 -126.5 -208.5t-215.5 -71.5t-215 71.5t-126 208.5z" />
    <glyph glyph-name="Ohungarumlaut" unicode="&#x150;" horiz-adv-x="1689" 
d="M844 1420q154 0 288 -54t229.5 -148.5t150.5 -228.5t55 -289t-55 -289t-150.5 -228.5t-229.5 -148.5t-288 -54t-288 54t-229.5 148.5t-150.5 228.5t-55 289t55 289t150.5 228.5t229.5 148.5t288 54zM844 1265q-117 0 -219 -41.5t-176 -114.5t-116.5 -179t-42.5 -230
t42.5 -230t116.5 -179t176 -114.5t219 -41.5q157 0 283 70t199 200t73 295t-73 295t-199 200t-283 70zM912 1507l215 300h175l-240 -300h-150zM568 1507l200 300h169l-216 -300h-153z" />
    <glyph glyph-name="ohungarumlaut" unicode="&#x151;" horiz-adv-x="1203" 
d="M601 966q214 0 356.5 -141t142.5 -351q0 -211 -142.5 -352t-356.5 -141t-356 141t-142 352q0 210 142.5 351t355.5 141zM601 826q-148 0 -247 -100t-99 -252t99 -252.5t247 -100.5t247 100.5t99 252.5t-99 252t-247 100zM684 1092l215 300h175l-240 -300h-150zM340 1092
l200 300h169l-216 -300h-153z" />
    <glyph glyph-name="OE" unicode="&#x152;" horiz-adv-x="2257" 
d="M2096 0h-1228q-343 0 -545 190t-202 510t202 510t545 190h1219v-151h-815v-469h790v-150h-790v-479h824v-151zM290 700q0 -254 149.5 -401t428.5 -147h243v1096h-243q-278 0 -428 -148t-150 -400z" />
    <glyph glyph-name="oe" unicode="&#x153;" horiz-adv-x="1965" 
d="M1417 966q193 0 318 -136.5t127 -352.5q0 -5 -3 -56h-759q15 -148 108 -228.5t227 -80.5q170 0 300 119l80 -102q-155 -148 -389 -148q-139 0 -246 61t-165 172q-63 -108 -172.5 -170.5t-241.5 -62.5q-214 0 -356 141t-142 352q0 210 142.5 351t355.5 141
q134 0 243 -63.5t172 -172.5q60 112 164 174t237 62zM601 826q-148 0 -247 -100t-99 -252t99 -252.5t247 -100.5t247 100.5t99 252.5t-99 252t-247 100zM1414 833q-128 0 -211 -80t-101 -211h608q-14 132 -94.5 211.5t-201.5 79.5z" />
    <glyph glyph-name="Racute" unicode="&#x154;" horiz-adv-x="1353" 
d="M751 1400q236 0 362.5 -102.5t126.5 -292.5q0 -182 -131.5 -289t-355.5 -107h-23l503 -609h-200l-493 609h-177v-609h-161v1400h549zM363 1249v-494h386q161 0 242.5 63.5t81.5 186.5q0 121 -82.5 182.5t-241.5 61.5h-386zM522 1507l209 300h190l-251 -300h-148z" />
    <glyph glyph-name="racute" unicode="&#x155;" horiz-adv-x="830" 
d="M604 966q103 0 174 -32l-36 -147q-71 38 -164 38q-112 0 -183 -81t-71 -214v-530h-149v947h148v-133q49 73 121.5 112.5t159.5 39.5zM345 1092l209 300h190l-251 -300h-148z" />
    <glyph glyph-name="Rcommaaccent" unicode="&#x156;" horiz-adv-x="1353" 
d="M751 1400q236 0 362.5 -102.5t126.5 -292.5q0 -182 -131.5 -289t-355.5 -107h-23l503 -609h-200l-493 609h-177v-609h-161v1400h549zM363 1249v-494h386q161 0 242.5 63.5t81.5 186.5q0 121 -82.5 182.5t-241.5 61.5h-386zM769 -88l-74 -350h-132l42 350h164z" />
    <glyph glyph-name="rcommaaccent" unicode="&#x157;" horiz-adv-x="830" 
d="M604 966q103 0 174 -32l-36 -147q-71 38 -164 38q-112 0 -183 -81t-71 -214v-530h-149v947h148v-133q49 73 121.5 112.5t159.5 39.5zM346 -88l-74 -350h-132l42 350h164z" />
    <glyph glyph-name="Rcaron" unicode="&#x158;" horiz-adv-x="1353" 
d="M751 1400q236 0 362.5 -102.5t126.5 -292.5q0 -182 -131.5 -289t-355.5 -107h-23l503 -609h-200l-493 609h-177v-609h-161v1400h549zM363 1249v-494h386q161 0 242.5 63.5t81.5 186.5q0 121 -82.5 182.5t-241.5 61.5h-386zM488 1794l175 -189l174 189h160l-234 -288h-200
l-235 288h160z" />
    <glyph glyph-name="rcaron" unicode="&#x159;" horiz-adv-x="830" 
d="M604 966q103 0 174 -32l-36 -147q-71 38 -164 38q-112 0 -183 -81t-71 -214v-530h-149v947h148v-133q49 73 121.5 112.5t159.5 39.5zM300 1379l175 -189l174 189h160l-234 -288h-200l-235 288h160z" />
    <glyph glyph-name="Sacute" unicode="&#x15a;" horiz-adv-x="1346" 
d="M1116 1135q-192 131 -422 131q-161 0 -261.5 -68.5t-100.5 -184.5q0 -98 79 -153t244 -74l133 -16q92 -12 166.5 -36.5t137.5 -66.5t98 -109.5t35 -155.5q0 -133 -76.5 -230.5t-200 -144t-277.5 -46.5q-152 0 -302.5 49t-247.5 131l88 128q75 -65 203 -110.5t258 -45.5
q170 0 279 67t109 188q0 100 -84.5 155t-254.5 74l-141 16q-190 22 -301.5 113t-111.5 257q0 129 72 224.5t191 143t267 47.5q288 0 503 -153zM572 1507l209 300h190l-251 -300h-148z" />
    <glyph glyph-name="sacute" unicode="&#x15b;" horiz-adv-x="987" 
d="M811 746q-51 35 -136 62t-174 27q-102 0 -163 -40t-61 -109q0 -58 48 -89.5t145 -43.5l112 -14q318 -43 318 -264q0 -135 -113 -214t-304 -79q-102 0 -206.5 29t-188.5 92l69 112q132 -103 328 -103q122 0 191.5 39.5t69.5 113.5q0 115 -198 138l-113 13
q-313 39 -313 262q0 134 102.5 210.5t275.5 76.5q108 0 206.5 -28t169.5 -75zM384 1092l209 300h190l-251 -300h-148z" />
    <glyph glyph-name="Scircumflex" unicode="&#x15c;" horiz-adv-x="1346" 
d="M1116 1135q-192 131 -422 131q-161 0 -261.5 -68.5t-100.5 -184.5q0 -98 79 -153t244 -74l133 -16q92 -12 166.5 -36.5t137.5 -66.5t98 -109.5t35 -155.5q0 -133 -76.5 -230.5t-200 -144t-277.5 -46.5q-152 0 -302.5 49t-247.5 131l88 128q75 -65 203 -110.5t258 -45.5
q170 0 279 67t109 188q0 100 -84.5 155t-254.5 74l-141 16q-190 22 -301.5 113t-111.5 257q0 129 72 224.5t191 143t267 47.5q288 0 503 -153zM887 1508l-174 189l-175 -189h-160l235 288h200l234 -288h-160z" />
    <glyph glyph-name="scircumflex" unicode="&#x15d;" horiz-adv-x="987" 
d="M811 746q-51 35 -136 62t-174 27q-102 0 -163 -40t-61 -109q0 -58 48 -89.5t145 -43.5l112 -14q318 -43 318 -264q0 -135 -113 -214t-304 -79q-102 0 -206.5 29t-188.5 92l69 112q132 -103 328 -103q122 0 191.5 39.5t69.5 113.5q0 115 -198 138l-113 13
q-313 39 -313 262q0 134 102.5 210.5t275.5 76.5q108 0 206.5 -28t169.5 -75zM688 1093l-174 189l-175 -189h-160l235 288h200l234 -288h-160z" />
    <glyph glyph-name="Scedilla" unicode="&#x15e;" horiz-adv-x="1346" 
d="M673 -323h-163l111 329l155 -1zM1116 1135q-192 131 -422 131q-161 0 -261.5 -68.5t-100.5 -184.5q0 -98 79 -153t244 -74l133 -16q92 -12 166.5 -36.5t137.5 -66.5t98 -109.5t35 -155.5q0 -133 -76.5 -230.5t-200 -144t-277.5 -46.5q-152 0 -302.5 49t-247.5 131l88 128
q75 -65 203 -110.5t258 -45.5q170 0 279 67t109 188q0 100 -84.5 155t-254.5 74l-141 16q-190 22 -301.5 113t-111.5 257q0 129 72 224.5t191 143t267 47.5q288 0 503 -153z" />
    <glyph glyph-name="scedilla" unicode="&#x15f;" horiz-adv-x="987" 
d="M811 746q-51 35 -136 62t-174 27q-102 0 -163 -40t-61 -109q0 -58 48 -89.5t145 -43.5l112 -14q318 -43 318 -264q0 -135 -113 -214t-304 -79q-102 0 -206.5 29t-188.5 92l69 112q132 -103 328 -103q122 0 191.5 39.5t69.5 113.5q0 115 -198 138l-113 13
q-313 39 -313 262q0 134 102.5 210.5t275.5 76.5q108 0 206.5 -28t169.5 -75zM493 -323h-156l109 329l150 -1z" />
    <glyph glyph-name="Scaron" unicode="&#x160;" horiz-adv-x="1346" 
d="M1116 1135q-192 131 -422 131q-161 0 -261.5 -68.5t-100.5 -184.5q0 -98 79 -153t244 -74l133 -16q92 -12 166.5 -36.5t137.5 -66.5t98 -109.5t35 -155.5q0 -133 -76.5 -230.5t-200 -144t-277.5 -46.5q-152 0 -302.5 49t-247.5 131l88 128q75 -65 203 -110.5t258 -45.5
q170 0 279 67t109 188q0 100 -84.5 155t-254.5 74l-141 16q-190 22 -301.5 113t-111.5 257q0 129 72 224.5t191 143t267 47.5q288 0 503 -153zM538 1794l175 -189l174 189h160l-234 -288h-200l-235 288h160z" />
    <glyph glyph-name="scaron" unicode="&#x161;" horiz-adv-x="987" 
d="M811 746q-51 35 -136 62t-174 27q-102 0 -163 -40t-61 -109q0 -58 48 -89.5t145 -43.5l112 -14q318 -43 318 -264q0 -135 -113 -214t-304 -79q-102 0 -206.5 29t-188.5 92l69 112q132 -103 328 -103q122 0 191.5 39.5t69.5 113.5q0 115 -198 138l-113 13
q-313 39 -313 262q0 134 102.5 210.5t275.5 76.5q108 0 206.5 -28t169.5 -75zM339 1379l175 -189l174 189h160l-234 -288h-200l-235 288h160z" />
    <glyph glyph-name="Tcommaaccent" unicode="&#x162;" horiz-adv-x="1212" 
d="M582 -323h-163l111 329l155 -1zM1172 1248h-486v-1248h-160v1248h-486v152h1132v-152z" />
    <glyph glyph-name="tcommaaccent" unicode="&#x163;" horiz-adv-x="906" 
d="M818 812h-409v-478q0 -107 51 -160t137 -53q105 0 199 67l70 -113q-123 -94 -281 -94q-156 0 -240.5 87.5t-84.5 262.5v481h-207v135h207v301h149v-301h409v-135zM537 -323h-156l109 329l150 -1z" />
    <glyph glyph-name="Tcaron" unicode="&#x164;" horiz-adv-x="1212" 
d="M1172 1248h-486v-1248h-160v1248h-486v152h1132v-152zM431 1794l175 -189l174 189h160l-234 -288h-200l-235 288h160z" />
    <glyph glyph-name="tcaron" unicode="&#x165;" horiz-adv-x="906" 
d="M818 812h-409v-478q0 -107 51 -160t137 -53q105 0 199 67l70 -113q-123 -94 -281 -94q-156 0 -240.5 87.5t-84.5 262.5v481h-207v135h207v301h149v-301h409v-135zM535 1051l7 389h153l-34 -389h-126z" />
    <glyph glyph-name="Utilde" unicode="&#x168;" horiz-adv-x="1517" 
d="M1335 548q0 -139 -45 -248.5t-124 -178t-182.5 -104.5t-225.5 -36t-225.5 36t-182.5 104.5t-123.5 178t-44.5 248.5v852h160v-840q0 -211 114 -318t302 -107t302 107t114 318v840h161v-852zM406 1649q46 58 97.5 84.5t121.5 26.5q58 0 106.5 -20t87 -39.5t72.5 -19.5
q66 0 130 67l89 -85q-46 -57 -97.5 -84t-121.5 -27q-57 0 -105.5 20t-87 40t-73.5 20q-66 0 -131 -68z" />
    <glyph glyph-name="utilde" unicode="&#x169;" horiz-adv-x="1188" 
d="M1024 395q0 -102 -35 -182.5t-95 -130.5t-136.5 -75.5t-163.5 -25.5q-88 0 -164.5 25.5t-136.5 75.5t-94.5 130.5t-34.5 182.5v552h149v-538q0 -142 76.5 -215t204.5 -73q127 0 203.5 73t76.5 215v538h150v-552zM250 1234q46 58 97.5 84.5t121.5 26.5q46 0 86.5 -12.5
t65.5 -27t55.5 -27t58.5 -12.5q66 0 130 67l89 -85q-46 -57 -97.5 -84t-121.5 -27q-57 0 -105.5 20t-87 40t-73.5 20q-66 0 -131 -68z" />
    <glyph glyph-name="Umacron" unicode="&#x16a;" horiz-adv-x="1517" 
d="M1335 548q0 -139 -45 -248.5t-124 -178t-182.5 -104.5t-225.5 -36t-225.5 36t-182.5 104.5t-123.5 178t-44.5 248.5v852h160v-840q0 -211 114 -318t302 -107t302 107t114 318v840h161v-852zM459 1711h598v-121h-598v121z" />
    <glyph glyph-name="umacron" unicode="&#x16b;" horiz-adv-x="1188" 
d="M1024 395q0 -102 -35 -182.5t-95 -130.5t-136.5 -75.5t-163.5 -25.5q-88 0 -164.5 25.5t-136.5 75.5t-94.5 130.5t-34.5 182.5v552h149v-538q0 -142 76.5 -215t204.5 -73q127 0 203.5 73t76.5 215v538h150v-552zM295 1296h598v-121h-598v121z" />
    <glyph glyph-name="Ubreve" unicode="&#x16c;" horiz-adv-x="1517" 
d="M1335 548q0 -139 -45 -248.5t-124 -178t-182.5 -104.5t-225.5 -36t-225.5 36t-182.5 104.5t-123.5 178t-44.5 248.5v852h160v-840q0 -211 114 -318t302 -107t302 107t114 318v840h161v-852zM537 1818q58 -191 221 -191q164 0 222 191l120 -37q-38 -137 -126.5 -208.5
t-215.5 -71.5t-215 71.5t-126 208.5z" />
    <glyph glyph-name="ubreve" unicode="&#x16d;" horiz-adv-x="1188" 
d="M1024 395q0 -102 -35 -182.5t-95 -130.5t-136.5 -75.5t-163.5 -25.5q-88 0 -164.5 25.5t-136.5 75.5t-94.5 130.5t-34.5 182.5v552h149v-538q0 -142 76.5 -215t204.5 -73q127 0 203.5 73t76.5 215v538h150v-552zM373 1403q58 -191 221 -191q164 0 222 191l120 -37
q-38 -137 -126.5 -208.5t-215.5 -71.5t-215 71.5t-126 208.5z" />
    <glyph glyph-name="Uring" unicode="&#x16e;" horiz-adv-x="1517" 
d="M1335 548q0 -139 -45 -248.5t-124 -178t-182.5 -104.5t-225.5 -36t-225.5 36t-182.5 104.5t-123.5 178t-44.5 248.5v852h160v-840q0 -211 114 -318t302 -107t302 107t114 318v840h161v-852zM758 1487q-93 0 -160 66t-67 159t67 158.5t160 65.5q94 0 161 -65.5t67 -158.5
t-67 -159t-161 -66zM758 1582q53 0 90.5 38t37.5 92t-37.5 91.5t-90.5 37.5t-90 -37.5t-37 -91.5q0 -55 37 -92.5t90 -37.5z" />
    <glyph glyph-name="uring" unicode="&#x16f;" horiz-adv-x="1188" 
d="M1024 395q0 -102 -35 -182.5t-95 -130.5t-136.5 -75.5t-163.5 -25.5q-88 0 -164.5 25.5t-136.5 75.5t-94.5 130.5t-34.5 182.5v552h149v-538q0 -142 76.5 -215t204.5 -73q127 0 203.5 73t76.5 215v538h150v-552zM593 1072q-93 0 -160 66t-67 159t67 158.5t160 65.5
q94 0 161 -65.5t67 -158.5t-67 -159t-161 -66zM593 1167q53 0 90.5 38t37.5 92t-37.5 91.5t-90.5 37.5t-90 -37.5t-37 -91.5q0 -55 37 -92.5t90 -37.5z" />
    <glyph glyph-name="Uhungarumlaut" unicode="&#x170;" horiz-adv-x="1517" 
d="M1335 548q0 -139 -45 -248.5t-124 -178t-182.5 -104.5t-225.5 -36t-225.5 36t-182.5 104.5t-123.5 178t-44.5 248.5v852h160v-840q0 -211 114 -318t302 -107t302 107t114 318v840h161v-852zM826 1507l215 300h175l-240 -300h-150zM482 1507l200 300h169l-216 -300h-153z
" />
    <glyph glyph-name="uhungarumlaut" unicode="&#x171;" horiz-adv-x="1188" 
d="M1024 395q0 -102 -35 -182.5t-95 -130.5t-136.5 -75.5t-163.5 -25.5q-88 0 -164.5 25.5t-136.5 75.5t-94.5 130.5t-34.5 182.5v552h149v-538q0 -142 76.5 -215t204.5 -73q127 0 203.5 73t76.5 215v538h150v-552zM677 1092l215 300h175l-240 -300h-150zM333 1092l200 300
h169l-216 -300h-153z" />
    <glyph glyph-name="Uogonek" unicode="&#x172;" horiz-adv-x="1517" 
d="M1335 548q0 -139 -45 -248.5t-124 -178t-182.5 -104.5t-225.5 -36t-225.5 36t-182.5 104.5t-123.5 178t-44.5 248.5v852h160v-840q0 -211 114 -318t302 -107t302 107t114 318v840h161v-852zM1199 -325q-95 -90 -232 -90q-116 0 -188.5 58t-72.5 148q0 103 82 170t253 130
l14 -45q-106 -57 -154.5 -109.5t-48.5 -118.5q0 -46 34 -75t90 -29q81 0 143 58z" />
    <glyph glyph-name="uogonek" unicode="&#x173;" horiz-adv-x="1188" 
d="M1024 395q0 -102 -35 -182.5t-95 -130.5t-136.5 -75.5t-163.5 -25.5q-88 0 -164.5 25.5t-136.5 75.5t-94.5 130.5t-34.5 182.5v552h149v-538q0 -142 76.5 -215t204.5 -73q127 0 203.5 73t76.5 215v538h150v-552zM987 -325q-95 -90 -232 -90q-116 0 -188.5 58t-72.5 148
q0 103 82 170t253 130l14 -45q-106 -57 -154.5 -109.5t-48.5 -118.5q0 -46 34 -75t90 -29q81 0 143 58z" />
    <glyph glyph-name="Ydieresis" unicode="&#x178;" horiz-adv-x="1287" 
d="M725 587v-587h-160v589l-554 811h192l443 -664l443 664h187zM443 1758q44 0 75 -31t31 -76t-30.5 -75t-75.5 -30t-75.5 30t-30.5 75t30.5 76t75.5 31zM849 1758q44 0 75 -31t31 -76t-30.5 -75t-75.5 -30t-75 30t-30 75t30 76t75 31z" />
    <glyph glyph-name="Zacute" unicode="&#x179;" horiz-adv-x="1314" 
d="M1190 1276l-855 -1124h858v-152h-1072v124l856 1124h-846v152h1059v-124zM520 1507l209 300h190l-251 -300h-148z" />
    <glyph glyph-name="zacute" unicode="&#x17a;" horiz-adv-x="1055" 
d="M924 838l-604 -703h613v-135h-811v108l610 704h-592v135h784v-109zM402 1092l209 300h190l-251 -300h-148z" />
    <glyph glyph-name="Zdotaccent" unicode="&#x17b;" horiz-adv-x="1314" 
d="M1190 1276l-855 -1124h858v-152h-1072v124l856 1124h-846v152h1059v-124zM647 1764q46 0 78 -31.5t32 -77.5t-32 -77.5t-78 -31.5q-47 0 -78 31t-31 78t31 78t78 31z" />
    <glyph glyph-name="zdotaccent" unicode="&#x17c;" horiz-adv-x="1055" 
d="M924 838l-604 -703h613v-135h-811v108l610 704h-592v135h784v-109zM532 1389q44 0 75 -30.5t31 -75.5t-30.5 -75t-75.5 -30t-75 30t-30 75t30 75.5t75 30.5z" />
    <glyph glyph-name="Zcaron" unicode="&#x17d;" horiz-adv-x="1314" 
d="M1190 1276l-855 -1124h858v-152h-1072v124l856 1124h-846v152h1059v-124zM486 1794l175 -189l174 189h160l-234 -288h-200l-235 288h160z" />
    <glyph glyph-name="zcaron" unicode="&#x17e;" horiz-adv-x="1055" 
d="M924 838l-604 -703h613v-135h-811v108l610 704h-592v135h784v-109zM357 1379l175 -189l174 189h160l-234 -288h-200l-235 288h160z" />
    <glyph glyph-name="longs" unicode="&#x17f;" horiz-adv-x="645" 
d="M481 1459q141 0 259 -71l-53 -125q-94 56 -196 56q-175 0 -175 -210v-1109h-150v1109q0 161 77 255.5t238 94.5z" />
    <glyph glyph-name="Scommaaccent" unicode="&#x218;" horiz-adv-x="1346" 
d="M1116 1135q-192 131 -422 131q-161 0 -261.5 -68.5t-100.5 -184.5q0 -98 79 -153t244 -74l133 -16q92 -12 166.5 -36.5t137.5 -66.5t98 -109.5t35 -155.5q0 -133 -76.5 -230.5t-200 -144t-277.5 -46.5q-152 0 -302.5 49t-247.5 131l88 128q75 -65 203 -110.5t258 -45.5
q170 0 279 67t109 188q0 100 -84.5 155t-254.5 74l-141 16q-190 22 -301.5 113t-111.5 257q0 129 72 224.5t191 143t267 47.5q288 0 503 -153zM800 -88l-74 -350h-132l42 350h164z" />
    <glyph glyph-name="scommaaccent" unicode="&#x219;" horiz-adv-x="987" 
d="M811 746q-51 35 -136 62t-174 27q-102 0 -163 -40t-61 -109q0 -58 48 -89.5t145 -43.5l112 -14q318 -43 318 -264q0 -135 -113 -214t-304 -79q-102 0 -206.5 29t-188.5 92l69 112q132 -103 328 -103q122 0 191.5 39.5t69.5 113.5q0 115 -198 138l-113 13
q-313 39 -313 262q0 134 102.5 210.5t275.5 76.5q108 0 206.5 -28t169.5 -75zM602 -88l-74 -350h-132l42 350h164z" />
    <glyph glyph-name="uni021A" unicode="&#x21a;" horiz-adv-x="1212" 
d="M1172 1248h-486v-1248h-160v1248h-486v152h1132v-152zM709 -88l-74 -350h-132l42 350h164z" />
    <glyph glyph-name="uni021B" unicode="&#x21b;" horiz-adv-x="906" 
d="M818 812h-409v-478q0 -107 51 -160t137 -53q105 0 199 67l70 -113q-123 -94 -281 -94q-156 0 -240.5 87.5t-84.5 262.5v481h-207v135h207v301h149v-301h409v-135zM646 -88l-74 -350h-132l42 350h164z" />
    <glyph glyph-name="gravecomb" unicode="&#x300;" horiz-adv-x="1" 
d="M-883 1392h189l210 -300h-148z" />
    <glyph glyph-name="acutecomb" unicode="&#x301;" horiz-adv-x="1" 
d="M-732 1092l209 300h190l-251 -300h-148z" />
    <glyph glyph-name="uni0302" unicode="&#x302;" horiz-adv-x="1" 
d="M-428 1093l-174 189l-175 -189h-160l235 288h200l234 -288h-160z" />
    <glyph glyph-name="tildecomb" unicode="&#x303;" horiz-adv-x="1" 
d="M-946 1234q46 58 97.5 84.5t121.5 26.5q46 0 86.5 -12.5t65.5 -27t55.5 -27t58.5 -12.5q66 0 130 67l89 -85q-46 -57 -97.5 -84t-121.5 -27q-57 0 -105.5 20t-87 40t-73.5 20q-66 0 -131 -68z" />
    <glyph glyph-name="uni0304" unicode="&#x304;" horiz-adv-x="1" 
d="M-901 1296h598v-121h-598v121z" />
    <glyph glyph-name="uni0306" unicode="&#x306;" horiz-adv-x="1" 
d="M-823 1403q58 -191 221 -191q164 0 222 191l120 -37q-38 -137 -126.5 -208.5t-215.5 -71.5t-215 71.5t-126 208.5z" />
    <glyph glyph-name="uni0307" unicode="&#x307;" horiz-adv-x="1" 
d="M-602 1389q44 0 75 -30.5t31 -75.5t-30.5 -75t-75.5 -30t-75 30t-30 75t30 75.5t75 30.5z" />
    <glyph glyph-name="uni0308" unicode="&#x308;" horiz-adv-x="1" 
d="M-805 1343q44 0 75 -31t31 -76t-30.5 -75t-75.5 -30t-75.5 30t-30.5 75t30.5 76t75.5 31zM-399 1343q44 0 75 -31t31 -76t-30.5 -75t-75.5 -30t-75 30t-30 75t30 76t75 31z" />
    <glyph glyph-name="uni030A" unicode="&#x30a;" horiz-adv-x="1" 
d="M-603 1072q-93 0 -160 66t-67 159t67 158.5t160 65.5q94 0 161 -65.5t67 -158.5t-67 -159t-161 -66zM-603 1167q53 0 90.5 38t37.5 92t-37.5 91.5t-90.5 37.5t-90 -37.5t-37 -91.5q0 -55 37 -92.5t90 -37.5z" />
    <glyph glyph-name="uni030B" unicode="&#x30b;" horiz-adv-x="1" 
d="M-519 1092l215 300h175l-240 -300h-150zM-863 1092l200 300h169l-216 -300h-153z" />
    <glyph glyph-name="uni030C" unicode="&#x30c;" horiz-adv-x="1" 
d="M-777 1379l175 -189l174 189h160l-234 -288h-200l-235 288h160z" />
    <glyph glyph-name="uni0312" unicode="&#x312;" horiz-adv-x="1" 
d="M-693 1092l74 351h132l-42 -351h-164z" />
    <glyph glyph-name="uni0326" unicode="&#x326;" horiz-adv-x="1" 
d="M-506 -88l-74 -350h-132l42 350h164z" />
    <glyph glyph-name="uni0327" unicode="&#x327;" horiz-adv-x="1" 
d="M-574 -323h-156l109 329l150 -1z" />
    <glyph glyph-name="uni0328" unicode="&#x328;" horiz-adv-x="1" 
d="M-354 -325q-94 -90 -232 -90q-116 0 -188.5 58t-72.5 148q0 103 82 170t253 130l14 -45q-106 -57 -154.5 -109.5t-48.5 -118.5q0 -46 34 -75t90 -29q81 0 143 58z" />
    <glyph glyph-name="uni1E9E" unicode="&#x1e9e;" horiz-adv-x="1464" 
d="M705 750l363 400q-112 115 -331 115q-182 0 -288 -94.5t-106 -255.5v-915h-161v924q0 105 36 194.5t104.5 157t175.5 105.5t242 38q196 0 326 -63t222 -183l-373 -405q189 -23 308 -125.5t119 -263.5q0 -119 -70 -210.5t-185 -139t-254 -47.5q-167 0 -295 42l39 152
q110 -40 232 -40q167 0 265 64.5t98 178.5q0 117 -100.5 184t-275.5 67h-91v120z" />
    <glyph glyph-name="uni2007" unicode="&#x2007;" 
 />
    <glyph glyph-name="uni2008" unicode="&#x2008;" horiz-adv-x="523" 
 />
    <glyph glyph-name="uni2009" unicode="&#x2009;" horiz-adv-x="178" 
 />
    <glyph glyph-name="uni200B" unicode="&#x200b;" horiz-adv-x="0" 
 />
    <glyph glyph-name="endash" unicode="&#x2013;" horiz-adv-x="1192" 
d="M1071 461h-950v136h950v-136z" />
    <glyph glyph-name="emdash" unicode="&#x2014;" horiz-adv-x="1622" 
d="M1561 461h-1500v136h1500v-136z" />
    <glyph glyph-name="quoteleft" unicode="&#x2018;" horiz-adv-x="494" 
d="M133 933l105 507h129l-60 -507h-174z" />
    <glyph glyph-name="quoteright" unicode="&#x2019;" horiz-adv-x="494" 
d="M361 1440l-105 -507h-129l60 507h174z" />
    <glyph glyph-name="quotesinglbase" unicode="&#x201a;" horiz-adv-x="494" 
d="M361 248l-105 -507h-129l60 507h174z" />
    <glyph glyph-name="quotedblleft" unicode="&#x201c;" horiz-adv-x="849" 
d="M133 933l105 507h129l-60 -507h-174zM488 933l105 507h129l-60 -507h-174z" />
    <glyph glyph-name="quotedblright" unicode="&#x201d;" horiz-adv-x="848" 
d="M715 1440l-105 -507h-129l60 507h174zM361 1440l-105 -507h-129l60 507h174z" />
    <glyph glyph-name="quotedblbase" unicode="&#x201e;" horiz-adv-x="848" 
d="M715 248l-105 -507h-129l60 507h174zM361 248l-105 -507h-129l60 507h174z" />
    <glyph glyph-name="bullet" unicode="&#x2022;" horiz-adv-x="864" 
d="M433 756q93 0 160 -66.5t67 -160.5t-67 -160.5t-160 -66.5q-95 0 -161 66.5t-66 160.5t66 160.5t161 66.5z" />
    <glyph glyph-name="guilsinglleft" unicode="&#x2039;" horiz-adv-x="625" 
d="M478 159h-160l-192 370l192 370h160l-191 -370z" />
    <glyph glyph-name="guilsinglright" unicode="&#x203a;" horiz-adv-x="625" 
d="M147 899h160l192 -370l-192 -370h-160l191 370z" />
    <glyph glyph-name="Euro" unicode="&#x20ac;" horiz-adv-x="1400" 
d="M1044 478h-630q44 -167 156.5 -260t275.5 -93q241 0 376 202l99 -103q-171 -242 -475 -242q-230 0 -385.5 132t-208.5 364h-175v124h156q-4 41 -4 98q0 55 4 98h-156v124h175q52 230 208 363t386 133q155 0 276 -62t202 -175l-104 -108q-135 202 -374 202
q-164 0 -275.5 -93t-156.5 -260h630v-124h-652q-5 -53 -5 -98q0 -46 5 -98h652v-124z" />
    <glyph glyph-name="trademark" unicode="&#x2122;" horiz-adv-x="1434" 
d="M1245 815v443l-165 -382h-112l-165 381v-442h-108v586h153l176 -403l176 403h153v-586h-108zM277 815v486h-196v99h499v-99h-196v-486h-107z" />
    <glyph glyph-name="CR" unicode="&#xe001;" horiz-adv-x="534" 
 />
    <glyph glyph-name="eight.lf" unicode="&#xe002;" horiz-adv-x="1261" 
d="M630 1418q135 0 244 -44t175.5 -132.5t66.5 -206.5q0 -122 -67 -204.5t-177 -123.5q125 -42 201 -125t76 -209q0 -122 -71 -212t-187.5 -135t-260.5 -45t-260.5 45t-187.5 135t-71 212q0 126 76 209t201 125q-110 41 -177 123.5t-67 204.5q0 118 66.5 206.5t175.5 132.5
t244 44zM630 638q-154 0 -255 -67.5t-101 -188.5q0 -122 101 -189.5t255 -67.5q153 0 254 67.5t101 189.5q0 121 -101 188.5t-254 67.5zM630 1274q-139 0 -231 -65.5t-92 -181.5q0 -121 91.5 -187.5t231.5 -66.5t231.5 66.5t91.5 187.5q0 116 -92 181.5t-231 65.5z" />
    <glyph glyph-name="eight.osf" unicode="&#xe003;" horiz-adv-x="1207" 
d="M604 1419q128 0 233.5 -47t168.5 -136t63 -203q0 -118 -65.5 -200t-172.5 -126q122 -44 196 -127t74 -206q0 -117 -67.5 -207.5t-180.5 -138t-249 -47.5q-137 0 -250 47.5t-180.5 138t-67.5 207.5q0 123 74 206.5t195 126.5q-106 43 -171 125.5t-65 200.5q0 114 63 203
t168.5 136t233.5 47zM604 637q-144 0 -241 -71t-97 -186t97 -186t241 -71q143 0 240 71t97 186t-97 186t-240 71zM604 1276q-129 0 -217.5 -68.5t-88.5 -179.5q0 -116 88 -185.5t218 -69.5t217.5 69.5t87.5 185.5q0 111 -88 179.5t-217 68.5z" />
    <glyph glyph-name="eight.tosf" unicode="&#xe004;" 
d="M613 1419q128 0 233.5 -47t168.5 -136t63 -203q0 -118 -65.5 -200t-172.5 -126q122 -44 196 -127t74 -206q0 -117 -67.5 -207.5t-180.5 -138t-249 -47.5q-137 0 -250 47.5t-180.5 138t-67.5 207.5q0 123 74 206.5t195 126.5q-106 43 -171 125.5t-65 200.5q0 114 63 203
t168.5 136t233.5 47zM613 637q-144 0 -241 -71t-97 -186t97 -186t241 -71q143 0 240 71t97 186t-97 186t-240 71zM613 1276q-129 0 -217.5 -68.5t-88.5 -179.5q0 -116 88 -185.5t218 -69.5t217.5 69.5t87.5 185.5q0 111 -88 179.5t-217 68.5z" />
    <glyph glyph-name="five.lf" unicode="&#xe005;" horiz-adv-x="1156" 
d="M974 1254h-618l-13 -414h206q236 0 362.5 -117t126.5 -295q0 -139 -65 -242t-172.5 -154t-241.5 -51q-295 0 -474 218l103 100q69 -82 166 -126.5t205 -44.5q149 0 234 82t85 205q0 125 -91 202t-285 77h-305l18 706h759v-146z" />
    <glyph glyph-name="five.osf" unicode="&#xe006;" horiz-adv-x="1144" 
d="M966 896h-617l-12 -417h202q122 0 217.5 -33t155 -90.5t90 -132.5t30.5 -162q0 -137 -66 -239t-172.5 -152t-238.5 -50q-297 0 -474 222l106 96q68 -84 164 -128t203 -44q150 0 234.5 80.5t84.5 200.5q0 133 -90.5 210.5t-290.5 77.5h-299l16 705h757v-144z" />
    <glyph glyph-name="five.tosf" unicode="&#xe007;" 
d="M996 896h-617l-12 -417h202q122 0 217.5 -33t155 -90.5t90 -132.5t30.5 -162q0 -137 -66 -239t-172.5 -152t-238.5 -50q-297 0 -474 222l106 96q68 -84 164 -128t203 -44q150 0 234.5 80.5t84.5 200.5q0 133 -90.5 210.5t-290.5 77.5h-299l16 705h757v-144z" />
    <glyph glyph-name="four.lf" unicode="&#xe008;" horiz-adv-x="1152" 
d="M860 440h239v-146h-239v-294h-154v294h-654v119l523 986h175l-513 -959h469v390h154v-390z" />
    <glyph glyph-name="four.osf" unicode="&#xe009;" horiz-adv-x="1143" 
d="M834 144h259v-144h-259v-360h-151v360h-633v119l486 921h164l-470 -896h453v346h151v-346z" />
    <glyph glyph-name="four.tosf" unicode="&#xe00a;" 
d="M881 144h259v-144h-259v-360h-151v360h-633v119l486 921h164l-470 -896h453v346h151v-346z" />
    <glyph glyph-name="nine.lf" unicode="&#xe00b;" horiz-adv-x="1157" 
d="M711 529q-66 -22 -144 -22q-207 0 -344.5 130t-137.5 326q0 195 141.5 325t354.5 130q214 0 355.5 -130t141.5 -325q0 -149 -104 -310l-417 -653h-188zM581 650q146 0 241.5 88t95.5 225q0 136 -95.5 224t-241.5 88t-241.5 -88.5t-95.5 -223.5q0 -136 95.5 -224.5
t241.5 -88.5z" />
    <glyph glyph-name="nine.osf" unicode="&#xe00c;" horiz-adv-x="1148" 
d="M730 191q-77 -42 -180 -42q-196 0 -332.5 131t-136.5 325q0 195 141.5 325t354.5 130t354.5 -130t141.5 -326q0 -149 -104 -308l-417 -655h-186zM577 291q147 0 243 88t96 225q0 138 -96 226t-243 88t-243 -88t-96 -226q0 -137 95.5 -225t243.5 -88z" />
    <glyph glyph-name="nine.tosf" unicode="&#xe00d;" 
d="M747 191q-77 -42 -180 -42q-196 0 -332.5 131t-136.5 325q0 195 141.5 325t354.5 130t354.5 -130t141.5 -326q0 -149 -104 -308l-417 -655h-186zM594 291q147 0 243 88t96 225q0 138 -96 226t-243 88t-243 -88t-96 -226q0 -137 95.5 -225t243.5 -88z" />
    <glyph glyph-name="one.lf" unicode="&#xe00e;" horiz-adv-x="844" 
d="M634 0h-154v1193l-414 -179v161l568 242v-1417z" />
    <glyph glyph-name="one.osf" unicode="&#xe00f;" horiz-adv-x="767" 
d="M568 0h-151v857l-348 -117v150l499 173v-1063z" />
    <glyph glyph-name="one.tosf" unicode="&#xe010;" 
d="M582 146v723l-389 -113v152l540 155v-917l355 1v-147h-880v145z" />
    <glyph glyph-name="seven.lf" unicode="&#xe011;" horiz-adv-x="1095" 
d="M1029 1279l-633 -1279h-180l627 1254h-764v146h950v-121z" />
    <glyph glyph-name="seven.osf" unicode="&#xe012;" horiz-adv-x="1098" 
d="M1023 922l-636 -1282h-176l630 1256h-766v144h948v-118z" />
    <glyph glyph-name="seven.tosf" unicode="&#xe013;" 
d="M1095 922l-636 -1282h-176l630 1256h-766v144h948v-118z" />
    <glyph glyph-name="six.lf" unicode="&#xe014;" horiz-adv-x="1157" 
d="M425 853q77 40 177 40q197 0 333.5 -131t136.5 -325q0 -195 -141.5 -325t-354.5 -130q-214 0 -355.5 130t-141.5 325q0 149 104 310l417 653h188zM576 750q-146 0 -242 -88t-96 -225q0 -136 95.5 -224t242.5 -88q146 0 241.5 88t95.5 224q0 137 -95.5 225t-241.5 88z" />
    <glyph glyph-name="six.osf" unicode="&#xe015;" horiz-adv-x="1147" 
d="M417 850q75 42 180 42q196 0 332.5 -131t136.5 -325q0 -195 -141 -325t-354 -130q-214 0 -355 130t-141 326q0 147 104 308l416 655h187zM571 750q-147 0 -243 -88t-96 -225t96 -225.5t243 -88.5t242.5 88.5t95.5 225.5t-95.5 225t-242.5 88z" />
    <glyph glyph-name="six.tosf" unicode="&#xe016;" 
d="M453 850q75 42 180 42q196 0 332.5 -131t136.5 -325q0 -195 -141 -325t-354 -130q-214 0 -355 130t-141 326q0 147 104 308l416 655h187zM607 750q-147 0 -243 -88t-96 -225t96 -225.5t243 -88.5t242.5 88.5t95.5 225.5t-95.5 225t-242.5 88z" />
    <glyph glyph-name="three.lf" unicode="&#xe017;" horiz-adv-x="1113" 
d="M507 1418q207 0 335 -106.5t128 -276.5q0 -120 -58 -202t-161 -126q115 -41 182.5 -126.5t67.5 -205.5q0 -97 -40 -173.5t-108 -123.5t-153 -71.5t-180 -24.5q-291 0 -454 184l99 103q66 -69 157 -106t195 -37q139 0 231 66t92 190q0 118 -96.5 186t-241.5 68h-184v141
h183q135 0 221.5 65t86.5 185q0 111 -88 179t-223 68q-99 0 -179 -44.5t-130 -114.5l-111 95q63 94 173.5 151t255.5 57z" />
    <glyph glyph-name="three.osf" unicode="&#xe018;" horiz-adv-x="1097" 
d="M503 1060q204 0 330.5 -107t126.5 -278q0 -118 -57.5 -200t-158.5 -126q114 -44 180.5 -128.5t66.5 -203.5q0 -97 -39.5 -174t-107 -124.5t-151.5 -72t-177 -24.5q-144 0 -260 48.5t-193 137.5l100 102q66 -69 157 -106.5t193 -37.5q140 0 229.5 65.5t89.5 191.5
q0 118 -96 186.5t-240 68.5h-181v140h181q134 0 219.5 65t85.5 186q0 113 -87.5 181t-220.5 68q-98 0 -176 -45t-128 -115l-112 91q62 96 171 153.5t255 57.5z" />
    <glyph glyph-name="three.tosf" unicode="&#xe019;" 
d="M569 1060q204 0 330.5 -107t126.5 -278q0 -118 -57.5 -200t-158.5 -126q114 -44 180.5 -128.5t66.5 -203.5q0 -97 -39.5 -174t-107 -124.5t-151.5 -72t-177 -24.5q-144 0 -260 48.5t-193 137.5l100 102q66 -69 157 -106.5t193 -37.5q140 0 229.5 65.5t89.5 191.5
q0 118 -96 186.5t-240 68.5h-181v140h181q134 0 219.5 65t85.5 186q0 113 -87.5 181t-220.5 68q-98 0 -176 -45t-128 -115l-112 91q62 96 171 153.5t255 57.5z" />
    <glyph glyph-name="two.lf" unicode="&#xe01a;" horiz-adv-x="1099" 
d="M85 1186q156 232 429 232q208 0 327.5 -121.5t119.5 -311.5q0 -117 -51.5 -212t-136.5 -184l-418 -442h652v-147h-881v121l529 558q144 151 144 306q0 125 -77 205.5t-213 80.5q-57 0 -105.5 -13.5t-86 -40t-65 -54.5t-55.5 -67z" />
    <glyph glyph-name="two.osf" unicode="&#xe01b;" horiz-adv-x="1075" 
d="M81 847q29 38 64 71t87.5 67.5t124 54.5t152.5 20q185 0 302 -103.5t117 -258.5q0 -129 -81.5 -228.5t-222.5 -183.5l-234 -141h598v-145h-871v124l423 267q229 143 229 300q0 94 -71 158.5t-195 64.5q-107 0 -180 -43.5t-134 -116.5z" />
    <glyph glyph-name="two.tosf" unicode="&#xe01c;" 
d="M161 847q29 38 64 71t87.5 67.5t124 54.5t152.5 20q185 0 302 -103.5t117 -258.5q0 -129 -81.5 -228.5t-222.5 -183.5l-234 -141h598v-145h-871v124l423 267q229 143 229 300q0 94 -71 158.5t-195 64.5q-107 0 -180 -43.5t-134 -116.5z" />
    <glyph glyph-name="uni030C.alt001" unicode="&#xe01d;" horiz-adv-x="1" 
d="M-682 1051l7 389h153l-34 -389h-126z" />
    <glyph glyph-name="uni0328.alt001" unicode="&#xe01e;" horiz-adv-x="1" 
d="M-397 -332q-83 -83 -195 -83q-94 0 -153.5 48t-59.5 128q0 83 61 152.5t184 144.5l37 -58q-141 -116 -141 -209q0 -35 23.5 -56t61.5 -21q57 0 102 50z" />
    <glyph glyph-name="uni0328.alt002" unicode="&#xe01f;" horiz-adv-x="1" 
d="M-521 16q-94 -46 -137 -93t-43 -105q0 -46 34 -75t90 -29q81 0 143 58l80 -97q-94 -90 -232 -90q-116 0 -188.5 58t-72.5 148q0 96 74.5 161.5t228.5 119.5z" />
    <glyph glyph-name="uni0328.alt003" unicode="&#xe020;" horiz-adv-x="1" 
d="M-397 -332q-83 -83 -194 -83q-94 0 -153.5 48t-59.5 128q0 90 78.5 157t246.5 140l35 -58q-114 -55 -166.5 -105t-52.5 -104q0 -35 23.5 -56t61.5 -21q54 0 102 50z" />
    <glyph glyph-name="uni0328.alt004" unicode="&#xe021;" horiz-adv-x="1" 
d="M-354 -325q-94 -90 -232 -90q-116 0 -188.5 58t-72.5 148q0 103 82 170t253 130l18 -59q-107 -53 -157 -102.5t-50 -111.5q0 -46 34 -75t90 -29q81 0 143 58z" />
    <glyph glyph-name="zero.lf" unicode="&#xe022;" horiz-adv-x="1419" 
d="M709 1418q120 0 225 -49.5t184 -140t124.5 -227.5t45.5 -301t-45.5 -300.5t-124.5 -227t-184 -140.5t-225 -50q-119 0 -224.5 50t-184 140.5t-124 227t-45.5 300.5t45.5 301t124 227.5t184 140t224.5 49.5zM709 1270q-178 0 -297 -152t-119 -418t119 -418t297 -152
q180 0 299 152t119 418t-119 418t-299 152z" />
    <glyph glyph-name="zero.osf" unicode="&#xe023;" horiz-adv-x="1349" 
d="M675 1061q152 0 276.5 -65.5t199 -189.5t74.5 -284t-74.5 -284.5t-199 -190.5t-276.5 -66t-277 66.5t-199 191t-74 283.5q0 160 74 284t199 189.5t277 65.5zM675 920q-170 0 -284 -109t-114 -289t114 -290t284 -110t283.5 109t113.5 291q0 180 -113.5 289t-283.5 109z
" />
    <glyph glyph-name="zero.tosf" unicode="&#xe024;" 
d="M599 1060q144 0 262.5 -65t189.5 -189t71 -285q0 -162 -71 -286.5t-189 -189.5t-263 -65q-108 0 -203 39t-166 108t-112 171.5t-41 222.5q0 161 70.5 285t189 189t262.5 65zM599 923q-158 0 -264 -109.5t-106 -292.5q0 -184 106 -293.5t264 -109.5q159 0 265 109t106 294
q0 183 -106 292.5t-265 109.5z" />
    <glyph glyph-name="uniFB00" unicode="&#xfb00;" horiz-adv-x="1700" 
d="M796 812h-377v-812h-150v812h-216v135h216v162q0 161 77 255.5t238 94.5q141 0 259 -71l-54 -125q-92 56 -195 56q-175 0 -175 -210v-162h377v-135zM1633 812h-377v-812h-150v812h-216v135h216v162q0 161 77 255.5t238 94.5q141 0 259 -71l-54 -125q-92 56 -195 56
q-175 0 -175 -210v-162h377v-135z" />
    <glyph glyph-name="fi" unicode="&#xfb01;" horiz-adv-x="1363" 
d="M796 812h-377v-812h-150v812h-216v135h216v162q0 161 77 255.5t238 94.5q141 0 259 -71l-54 -125q-92 56 -195 56q-175 0 -175 -210v-162h377v-135zM1188 0h-150v947h150v-947zM1113 1389q44 0 75 -30.5t31 -75.5t-30.5 -75t-75.5 -30t-75 30t-30 75t30 75.5t75 30.5z
" />
    <glyph glyph-name="fl" unicode="&#xfb02;" horiz-adv-x="1363" 
d="M796 812h-377v-812h-150v812h-216v135h216v162q0 161 77 255.5t238 94.5q141 0 259 -71l-54 -125q-92 56 -195 56q-175 0 -175 -210v-162h377v-135zM1188 0h-150v1440h150v-1440z" />
    <glyph glyph-name="uniFB03" unicode="&#xfb03;" horiz-adv-x="2200" 
d="M796 812h-377v-812h-150v812h-216v135h216v162q0 161 77 255.5t238 94.5q141 0 259 -71l-54 -125q-92 56 -195 56q-175 0 -175 -210v-162h377v-135zM1633 812h-377v-812h-150v812h-216v135h216v162q0 161 77 255.5t238 94.5q141 0 259 -71l-54 -125q-92 56 -195 56
q-175 0 -175 -210v-162h377v-135zM2025 0h-150v947h150v-947zM1950 1389q44 0 75 -30.5t31 -75.5t-30.5 -75t-75.5 -30t-75 30t-30 75t30 75.5t75 30.5z" />
    <glyph glyph-name="uniFB04" unicode="&#xfb04;" horiz-adv-x="2200" 
d="M796 812h-377v-812h-150v812h-216v135h216v162q0 161 77 255.5t238 94.5q141 0 259 -71l-54 -125q-92 56 -195 56q-175 0 -175 -210v-162h377v-135zM1633 812h-377v-812h-150v812h-216v135h216v162q0 161 77 255.5t238 94.5q141 0 259 -71l-54 -125q-92 56 -195 56
q-175 0 -175 -210v-162h377v-135zM2025 0h-150v1440h150v-1440z" />
    <glyph glyph-name="uniFB05" unicode="&#xfb05;" horiz-adv-x="1464" 
d="M1377 812h-409v-478q0 -107 51 -160t137 -53q105 0 198 66l70 -112q-123 -94 -281 -94q-156 0 -240 87.5t-84 262.5v481h-205v135h205v91q0 138 -69 209.5t-183 71.5q-113 0 -182 -71.5t-69 -209.5v-1038h-150v1048q0 102 32.5 182t89 129t127.5 74.5t152 25.5
t152.5 -25.5t127.5 -74.5t88.5 -129t32.5 -182v-101h409v-135z" />
    <glyph glyph-name="uniFB06" unicode="&#xfb06;" horiz-adv-x="1893" 
d="M811 746q-51 35 -136 62t-174 27q-102 0 -163 -40t-61 -109q0 -58 48 -89.5t145 -43.5l112 -14q318 -43 318 -264q0 -135 -113 -214t-304 -79q-102 0 -206.5 29t-188.5 92l69 112q132 -103 328 -103q122 0 191.5 39.5t69.5 113.5q0 115 -198 138l-113 13
q-313 39 -313 262q0 134 102.5 210.5t275.5 76.5q108 0 206.5 -28t169.5 -75zM1805 812h-409v-478q0 -107 51 -160t137 -53q105 0 199 67l70 -113q-123 -94 -281 -94q-156 0 -240.5 87.5t-84.5 262.5v481h-207v135h207v301h149v-301h409v-135z" />
    <glyph glyph-name="uniFEFF" unicode="&#xfeff;" horiz-adv-x="0" 
 />
    </font>
</defs>
</svg>
