<?xml version="1.0" standalone="no"?>
<!DOCTYPE svg PUBLIC "-//W3C//DTD SVG 1.1//EN" "http://www.w3.org/Graphics/SVG/1.1/DTD/svg11.dtd" >
<svg>
<metadata>
Created by FontForge 20110222 at Wed Feb  4 20:26:29 2015
 By deploy user
2013 published by FontShop International GmbH
</metadata>
<defs>
<font id="Mark-Regular-Italic" horiz-adv-x="1200" >
  <font-face 
    font-family="Mark"
    font-weight="400"
    font-style="italic"
    font-stretch="normal"
    units-per-em="2000"
    panose-1="2 0 5 0 0 0 0 0 0 0"
    ascent="1580"
    descent="-420"
    x-height="947"
    cap-height="1400"
    bbox="-835 -471 2318 1936"
    underline-thickness="136"
    underline-position="-124"
    slope="-12"
    unicode-range="U+0020-FEFF"
  />
<missing-glyph horiz-adv-x="1179" 
d="M65 1400h1049v-1400h-1049v1400zM978 136v1128h-777v-1128h777z" />
    <glyph glyph-name="ellipsis" unicode="&#x2e;&#x2e;&#x2e;" horiz-adv-x="1472" 
d="M179 233q50 0 87 -37.5t37 -87.5t-37 -88t-87 -38t-88 38t-38 88t38 87.5t88 37.5zM662 233q50 0 87.5 -37.5t37.5 -87.5t-37.5 -88t-87.5 -38t-87.5 38t-37.5 88t37.5 87.5t87.5 37.5zM1145 233q50 0 87.5 -37.5t37.5 -87.5t-37.5 -88t-87.5 -38t-87.5 38t-37.5 88
t37.5 87.5t87.5 37.5z" />
    <glyph glyph-name=".notdef" horiz-adv-x="1179" 
d="M65 1400h1049v-1400h-1049v1400zM978 136v1128h-777v-1128h777z" />
    <glyph glyph-name=".null" unicode="&#xe000;" horiz-adv-x="0" 
 />
    <glyph glyph-name="nonmarkingreturn" horiz-adv-x="666" 
 />
    <glyph glyph-name="space" unicode=" " horiz-adv-x="534" 
 />
    <glyph glyph-name="exclam" unicode="!" horiz-adv-x="506" 
d="M313 445h-128l173 955h183zM182 233q50 0 87.5 -37.5t37.5 -87.5t-37.5 -88t-87.5 -38t-87.5 38t-37.5 88t37.5 87.5t87.5 37.5z" />
    <glyph glyph-name="quotedbl" unicode="&#x22;" horiz-adv-x="1021" 
d="M624 1440l-108 -507h-149l108 507h149zM958 1440l-108 -507h-149l108 507h149z" />
    <glyph glyph-name="numbersign" unicode="#" horiz-adv-x="1394" 
d="M545 1032l124 368h140l-124 -368h345l124 368h140l-124 -368h228l-45 -133h-227l-132 -391h227l-44 -133h-227l-126 -375h-140l126 375h-345l-126 -375h-140l126 375h-230l44 133h230l132 391h-231l45 133h230zM509 508h345l132 391h-345z" />
    <glyph glyph-name="dollar" unicode="$" horiz-adv-x="1400" 
d="M1239 1111q-132 95 -292 123l-100 -472q170 -30 271.5 -112.5t101.5 -224.5q0 -180 -144 -298t-389 -118l-41 -196h-138l44 207q-106 15 -211.5 57t-187.5 113l91 124q121 -115 338 -151l100 473l-12 2q-169 28 -263 114t-94 222q0 80 31 153.5t90.5 133.5t158 95.5
t223.5 35.5h26l40 188h139l-43 -201q194 -33 347 -144zM476 994q0 -85 58 -134.5t180 -73.5l97 461h-4q-85 0 -151.5 -22.5t-104 -59.5t-56.5 -80.5t-19 -90.5zM1059 407q0 80 -60 129.5t-184 74.5l-97 -457q157 6 249 77t92 176z" />
    <glyph glyph-name="percent" unicode="%" horiz-adv-x="1971" 
d="M597 1419q146 0 241 -94t95 -240q0 -160 -110.5 -274.5t-271.5 -114.5q-148 0 -243 93.5t-95 239.5q0 161 110.5 275.5t273.5 114.5zM589 1287q-102 0 -168.5 -73.5t-66.5 -176.5q0 -92 57 -150.5t146 -58.5q102 0 169 73t67 176q0 92 -57 151t-147 59zM590 0h-166
l1055 1400h166zM1518 703q147 0 242 -93.5t95 -239.5q0 -161 -110.5 -275.5t-272.5 -114.5q-147 0 -242 94t-95 240q0 160 110.5 274.5t272.5 114.5zM1511 571q-102 0 -169 -73t-67 -176q0 -92 57 -151t147 -59q102 0 168.5 73.5t66.5 176.5q0 92 -57 150.5t-146 58.5z" />
    <glyph glyph-name="ampersand" unicode="&#x26;" horiz-adv-x="1382" 
d="M1272 672l-287 -356l253 -316h-195l-158 199q-96 -103 -198 -160.5t-230 -57.5q-169 0 -275 88.5t-106 238.5q0 65 21 123.5t53.5 102.5t84 87.5t98.5 74t111 66.5q-70 95 -100.5 164.5t-30.5 143.5q0 69 23 130.5t66.5 111t114.5 78.5t160 29q144 0 238 -80t94 -201
q0 -70 -27.5 -129.5t-83 -111t-107.5 -87t-134 -82.5l243 -305l264 327zM473 117q93 0 169 46.5t160 141.5l-276 349q-68 -39 -113.5 -70.5t-90 -73t-66.5 -88.5t-22 -100q0 -91 67 -148t172 -57zM468 1066q0 -45 24 -96t85 -136q66 37 108 64t84.5 63.5t63 76.5t20.5 85
q0 71 -49 114.5t-135 43.5q-95 0 -148 -62t-53 -153z" />
    <glyph glyph-name="quotesingle" unicode="'" horiz-adv-x="687" 
d="M624 1440l-108 -507h-149l108 507h149z" />
    <glyph glyph-name="parenleft" unicode="(" horiz-adv-x="756" 
d="M842 1292q-120 -40 -223 -131.5t-172 -212t-107.5 -262t-38.5 -282.5q0 -357 245 -556l-77 -129q-329 248 -329 683q0 220 79 430t229.5 371t342.5 223z" />
    <glyph glyph-name="parenright" unicode=")" horiz-adv-x="756" 
d="M-45 -154q120 39 223 131t172 212.5t107.5 262t38.5 282.5q0 357 -245 556l77 129q329 -248 329 -683q0 -163 -46.5 -326.5t-129.5 -302.5t-206.5 -244.5t-268.5 -150.5z" />
    <glyph glyph-name="asterisk" unicode="*" horiz-adv-x="880" 
d="M522 1177l56 263h115l-59 -276l268 57l12 -112l-269 -56l103 -217l-102 -57l-103 216l-193 -192l-79 77l193 193l-233 109l56 105z" />
    <glyph glyph-name="plus" unicode="+" 
d="M437 96l77 365h-363l28 136h364l79 368h138l-79 -368h368l-29 -136h-368l-77 -365h-138z" />
    <glyph glyph-name="comma" unicode="," horiz-adv-x="483" 
d="M308 248l-203 -507h-138l167 507h174z" />
    <glyph glyph-name="hyphen" unicode="-" horiz-adv-x="816" 
d="M678 461h-546l29 136h546z" />
    <glyph glyph-name="period" unicode="." horiz-adv-x="505" 
d="M178 232q50 0 87.5 -37.5t37.5 -87.5t-37.5 -88t-87.5 -38t-87.5 38t-37.5 88t37.5 87.5t87.5 37.5z" />
    <glyph glyph-name="slash" unicode="/" horiz-adv-x="992" 
d="M54 -200h-170l1063 1740h170z" />
    <glyph glyph-name="zero" unicode="0" 
d="M753 1418q201 0 318.5 -130t117.5 -366q0 -181 -44.5 -349t-125.5 -300t-205 -211.5t-271 -79.5q-201 0 -318.5 130t-117.5 366q0 181 44.5 349t125.5 300t205 211.5t271 79.5zM749 1270q-110 0 -203 -68t-153 -179.5t-93 -249t-33 -280.5q0 -176 74.5 -269.5
t206.5 -93.5q110 0 202.5 68.5t152.5 179.5t93.5 248.5t33.5 280.5q0 176 -74.5 269.5t-206.5 93.5z" />
    <glyph glyph-name="one" unicode="1" 
d="M496 147l224 1058l-426 -130l34 161l592 181l-270 -1270h385l-31 -147h-913l31 147h374z" />
    <glyph glyph-name="two" unicode="2" 
d="M290 1192q67 94 181 160t247 66q98 0 177 -30.5t127 -82.5t73.5 -116.5t25.5 -136.5q0 -129 -71 -242t-214 -239l-480 -424h629l-31 -147h-863l25 120l608 544q126 111 181 196t55 179q0 95 -65.5 163.5t-186.5 68.5q-94 0 -176.5 -48.5t-140.5 -126.5z" />
    <glyph glyph-name="three" unicode="3" 
d="M284 1215q166 203 444 203q186 0 297 -93t111 -241q0 -126 -74.5 -229t-209.5 -154q82 -42 127 -112.5t45 -163.5q0 -90 -36 -170.5t-101 -141t-163.5 -96t-216.5 -35.5q-145 0 -256 46t-174 129l106 101q53 -63 139.5 -97.5t186.5 -34.5q171 0 264.5 86t93.5 211
q0 99 -75.5 156t-200.5 57h-176l31 141h162q162 0 264.5 86.5t102.5 200.5q0 93 -73.5 151.5t-188.5 58.5q-104 0 -188.5 -46t-143.5 -118z" />
    <glyph glyph-name="four" unicode="4" 
d="M881 440h239l-31 -146h-239l-62 -294h-154l62 294h-641l26 125l683 980h182l-669 -959h450l84 390h154z" />
    <glyph glyph-name="five" unicode="5" 
d="M1129 1254h-590l-101 -414h162q88 0 161 -18t123 -49.5t87.5 -75t54.5 -95t22.5 -108.5t-7.5 -116q-19 -100 -67 -177.5t-117 -124.5t-151.5 -71t-175.5 -24q-143 0 -257.5 55t-189.5 163l116 91q117 -162 337 -162q138 0 232.5 72t114.5 190q6 47 4 91.5t-24.5 83
t-58.5 67.5t-98.5 45.5t-143.5 16.5h-302l167 706h733z" />
    <glyph glyph-name="six" unicode="6" 
d="M510 866q65 28 137 28q186 0 316 -120.5t130 -301.5q0 -99 -39 -189t-106.5 -156t-165 -105t-208.5 -39q-201 0 -336.5 118.5t-135.5 306.5q0 180 145 360l500 632h194zM615 750q-155 0 -253.5 -97t-98.5 -238q0 -128 89.5 -208.5t230.5 -80.5q152 0 251 98t99 239
q0 129 -90.5 208t-227.5 79z" />
    <glyph glyph-name="seven" unicode="7" 
d="M1221 1273l-791 -1273h-184l789 1254h-753l31 146h931z" />
    <glyph glyph-name="eight" unicode="8" 
d="M768 1418q112 0 210.5 -40t161.5 -120.5t63 -183.5q0 -126 -86.5 -227t-238.5 -149q98 -43 153.5 -114t55.5 -165q0 -187 -155.5 -312.5t-403.5 -125.5q-123 0 -226.5 40.5t-168 119.5t-64.5 183q0 138 88.5 242t250.5 149q-83 40 -130 107t-47 155t36.5 167t103.5 140.5
t170 97.5t227 36zM618 638q-174 0 -279.5 -84t-105.5 -209q0 -101 87 -160.5t216 -59.5q175 0 282.5 83t107.5 208q0 101 -87.5 161.5t-220.5 60.5zM758 1274q-168 0 -266.5 -83t-98.5 -206q0 -98 76.5 -155t199.5 -57q166 0 268.5 81.5t102.5 201.5q0 100 -83 159t-199 59z
" />
    <glyph glyph-name="nine" unicode="9" 
d="M786 533q-62 -27 -137 -27q-186 0 -316 120.5t-130 301.5q0 203 148 346t371 143q202 0 337 -118.5t135 -306.5q0 -178 -145 -360l-499 -632h-194zM682 650q154 0 253 97t99 238q0 127 -90 208t-231 81q-151 0 -250 -98t-99 -239q0 -129 90.5 -208t227.5 -79z" />
    <glyph glyph-name="colon" unicode=":" horiz-adv-x="505" 
d="M331 966q50 0 87.5 -37t37.5 -88q0 -50 -37.5 -88t-87.5 -38t-87.5 38t-37.5 88q0 51 37.5 88t87.5 37zM175 233q50 0 87.5 -37.5t37.5 -87.5t-37.5 -88t-87.5 -38t-87.5 38t-37.5 88t37.5 87.5t87.5 37.5z" />
    <glyph glyph-name="semicolon" unicode=";" horiz-adv-x="483" 
d="M310 966q50 0 87 -37t37 -88q0 -50 -37 -88t-87 -38t-88 38t-38 88q0 51 37.5 88t88.5 37zM308 248l-203 -507h-138l167 507h174z" />
    <glyph glyph-name="less" unicode="&#x3c;" 
d="M231 603l866 372l-36 -171l-694 -286l572 -286l-32 -148l-707 372z" />
    <glyph glyph-name="equal" unicode="=" 
d="M993 276h-870l29 136h870zM1071 646h-870l30 136h869z" />
    <glyph glyph-name="greater" unicode="&#x3e;" 
d="M1001 456l-866 -372l36 171l694 286l-572 286l32 148l707 -372z" />
    <glyph glyph-name="question" unicode="?" horiz-adv-x="842" 
d="M200 445l66 314h82q178 0 269.5 72t91.5 195q0 112 -99 174.5t-259 62.5q-31 0 -69 -2l6 152q45 5 91 5q219 0 359 -101.5t140 -270.5q0 -185 -128.5 -299t-369.5 -128l-45 -174h-135zM206 232q50 0 87.5 -37.5t37.5 -87.5t-37.5 -88t-87.5 -38t-87.5 38t-37.5 88
t37.5 87.5t87.5 37.5z" />
    <glyph glyph-name="at" unicode="@" horiz-adv-x="1915" 
d="M1347 -172q-199 -138 -458 -138q-208 0 -374.5 89t-262 253t-95.5 375q0 180 67.5 344.5t184.5 285.5t285 193t359 72q206 0 371 -83t260 -237t95 -353q0 -233 -103.5 -385.5t-265.5 -152.5q-84 0 -138.5 40.5t-76.5 102.5q-112 -132 -285 -132q-156 0 -255 97.5
t-99 251.5q0 182 122 314.5t297 132.5q98 0 170 -40t110 -115l30 140h127l-98 -455q-10 -44 -10 -82q0 -67 31.5 -102t84.5 -35q98 0 161 118.5t63 298.5q0 250 -168 403.5t-433 153.5q-160 0 -300.5 -62t-238.5 -166t-154 -245.5t-56 -296.5q0 -184 80 -322t216.5 -209.5
t309.5 -71.5q218 0 386 115zM982 776q-123 0 -208 -93.5t-85 -222.5q0 -106 65.5 -172t168.5 -66q124 0 209.5 93.5t85.5 223.5q0 105 -66 171t-170 66z" />
    <glyph glyph-name="A" unicode="A" horiz-adv-x="1421" 
d="M1277 0h-165l-74 390h-683l-238 -390h-174l863 1400h199zM448 542h561l-132 699z" />
    <glyph glyph-name="B" unicode="B" horiz-adv-x="1374" 
d="M905 1400q197 0 317.5 -85t120.5 -244q0 -126 -72.5 -227t-203.5 -140q102 -42 152 -134.5t24 -212.5q-19 -86 -56.5 -149t-87.5 -102.5t-122 -63.5t-150 -33t-180 -9h-555l298 1400h515zM391 635l-103 -484h383q179 0 278.5 47.5t126.5 168.5q30 137 -52 202.5
t-249 65.5h-384zM522 1249l-99 -464h360q204 0 300 74.5t96 196.5q0 69 -42.5 113.5t-108 62t-154.5 17.5h-352z" />
    <glyph glyph-name="C" unicode="C" horiz-adv-x="1481" 
d="M1348 219q-101 -115 -235.5 -177t-289.5 -62q-188 0 -339 83t-237 233.5t-86 340.5q0 165 59.5 310t162.5 248.5t246.5 163.5t305.5 60q50 0 100.5 -6t116 -24.5t123 -48t116 -82t100.5 -121.5l-123 -98q-69 114 -188 170t-255 56q-165 0 -301.5 -81t-215.5 -222.5
t-79 -311.5q0 -149 66 -267t181 -183t257 -65q119 0 225.5 49.5t183.5 137.5z" />
    <glyph glyph-name="D" unicode="D" horiz-adv-x="1553" 
d="M850 1400q303 0 475.5 -158t172.5 -427q0 -170 -59.5 -318t-169.5 -258.5t-279 -174.5t-377 -64h-521l298 1400h460zM521 1248l-233 -1096h343q165 0 298.5 50t220 137.5t132.5 205.5t46 255q0 207 -126.5 327.5t-369.5 120.5h-311z" />
    <glyph glyph-name="E" unicode="E" horiz-adv-x="1306" 
d="M1163 630h-773l-102 -479h805l-32 -151h-969l298 1400h956l-32 -151h-792l-100 -469h773z" />
    <glyph glyph-name="F" unicode="F" horiz-adv-x="1257" 
d="M1155 629h-765l-134 -629h-164l298 1400h949l-33 -152h-785l-99 -467h766z" />
    <glyph glyph-name="G" unicode="G" horiz-adv-x="1612" 
d="M1330 1075q-74 95 -182 142t-225 47q-123 0 -232.5 -47t-189.5 -128.5t-127 -198.5t-47 -250q0 -226 142 -365t366 -139q210 0 348 120.5t178 335.5h-435l31 149h592q0 -29 -4 -61q-39 -312 -236 -505t-489 -193q-188 0 -338.5 81.5t-236.5 228.5t-86 333q0 134 39 256.5
t110 219t166.5 168.5t214.5 110.5t247 38.5q57 0 116.5 -9.5t132 -33t142.5 -72.5t123 -119z" />
    <glyph glyph-name="H" unicode="H" horiz-adv-x="1546" 
d="M422 781h833l132 619h164l-299 -1400h-164l134 629h-832l-134 -629h-164l298 1400h164z" />
    <glyph glyph-name="I" unicode="I" horiz-adv-x="549" 
d="M256 0h-164l298 1400h164z" />
    <glyph glyph-name="J" unicode="J" horiz-adv-x="1098" 
d="M915 469q-101 -488 -516 -488q-129 0 -237.5 55.5t-171.5 149.5l117 105q44 -67 124.5 -111.5t173.5 -44.5q277 0 354 371l186 894h163z" />
    <glyph glyph-name="K" unicode="K" horiz-adv-x="1351" 
d="M422 780h147l668 620h216l-762 -694l554 -706h-195l-490 628h-171l-133 -628h-164l298 1400h164z" />
    <glyph glyph-name="L" unicode="L" horiz-adv-x="1184" 
d="M288 152h789l-33 -152h-952l298 1400h164z" />
    <glyph glyph-name="M" unicode="M" horiz-adv-x="1824" 
d="M1531 0h-163l257 1205l-682 -1050h-169l-261 1055l-258 -1210h-163l298 1400h236l258 -1061l694 1061h251z" />
    <glyph glyph-name="N" unicode="N" horiz-adv-x="1548" 
d="M1254 0h-149l-605 1147l-245 -1147h-163l298 1400h151l604 -1147l244 1147h164z" />
    <glyph glyph-name="O" unicode="O" horiz-adv-x="1663" 
d="M934 1419q188 0 339 -79t239.5 -227.5t88.5 -340.5q0 -214 -98.5 -395t-277 -289t-399.5 -108q-188 0 -339.5 79t-239.5 227.5t-88 341.5q0 159 58 304t159 252.5t246.5 171t311.5 63.5zM921 1265q-128 0 -240 -51t-189 -137t-121 -199.5t-44 -237.5q0 -228 144 -366.5
t368 -138.5q128 0 240 51t189 136.5t121 199.5t44 238q0 151 -67 266.5t-183 177t-262 61.5z" />
    <glyph glyph-name="P" unicode="P" horiz-adv-x="1285" 
d="M376 563l-120 -563h-164l298 1400h467q211 0 327 -97.5t116 -264.5q0 -212 -149.5 -343.5t-424.5 -131.5h-350zM521 1248l-113 -534h325q200 0 300 84t100 225q0 110 -74 167.5t-217 57.5h-321z" />
    <glyph glyph-name="Q" unicode="Q" horiz-adv-x="1679" 
d="M934 1419q188 0 339 -79t239.5 -227.5t88.5 -340.5q0 -293 -176 -511l182 -261h-181l-109 153q-210 -173 -491 -173q-188 0 -339.5 79t-239.5 227.5t-88 341.5q0 159 58 304t159 252.5t246.5 171t311.5 63.5zM921 1265q-128 0 -240 -51t-189 -137t-121 -199.5t-44 -237.5
q0 -228 144 -366.5t368 -138.5q226 0 387 147l-273 391h184l190 -272q106 162 106 359q0 151 -67 266.5t-183 177t-262 61.5z" />
    <glyph glyph-name="R" unicode="R" horiz-adv-x="1326" 
d="M891 1400q207 0 322 -95.5t115 -249.5q0 -55 -13 -107.5t-39.5 -103t-70.5 -92.5t-101.5 -74.5t-138 -50.5t-175.5 -18h-64l445 -609h-192l-431 609h-163l-129 -609h-164l298 1400h501zM521 1248l-105 -493h379q97 0 169.5 22.5t114 63t61 89.5t19.5 108q0 97 -73 153.5
t-211 56.5h-354z" />
    <glyph glyph-name="S" unicode="S" horiz-adv-x="1324" 
d="M1217 1126q-202 141 -448 141q-92 0 -163 -23t-111.5 -62t-61 -84t-20.5 -94q0 -89 64.5 -141t198.5 -76l119 -21q401 -71 401 -353q0 -189 -153 -311t-414 -122q-130 0 -284.5 45t-270.5 144l96 130q93 -85 226 -125.5t240 -40.5q179 0 285.5 74t106.5 188
q0 87 -71 139.5t-217 77.5l-122 21q-178 31 -276.5 120t-98.5 230q0 66 20 128t63 118t105 98t151.5 67t196.5 25q305 0 528 -163z" />
    <glyph glyph-name="T" unicode="T" horiz-adv-x="1187" 
d="M1313 1248h-469l-265 -1248h-164l265 1248h-477l33 152h1109z" />
    <glyph glyph-name="U" unicode="U" horiz-adv-x="1471" 
d="M1312 540q-62 -288 -229.5 -423.5t-419.5 -135.5q-82 0 -154.5 16t-134 50.5t-106 84.5t-69.5 121t-25 157q0 70 18 151l179 839h164l-179 -835q-14 -60 -14 -129q0 -153 92 -227t248 -74q177 0 301 102.5t168 315.5l180 847h164z" />
    <glyph glyph-name="V" unicode="V" horiz-adv-x="1397" 
d="M705 0h-198l-266 1400h163l229 -1242l745 1242h173z" />
    <glyph glyph-name="W" unicode="W" horiz-adv-x="2190" 
d="M1577 0h-193l-132 1182l-624 -1182h-200l-161 1400h163l132 -1224l642 1224h176l132 -1218l636 1218h170z" />
    <glyph glyph-name="X" unicode="X" horiz-adv-x="1349" 
d="M813 706l365 -706h-179l-297 583l-539 -583h-201l664 715l-350 685h179l283 -562l520 562h202z" />
    <glyph glyph-name="Y" unicode="Y" horiz-adv-x="1274" 
d="M741 585l-124 -585h-164l127 601l-370 799h173l303 -657l569 657h203z" />
    <glyph glyph-name="Z" unicode="Z" horiz-adv-x="1305" 
d="M1342 1272l-1049 -1120h848l-33 -152h-1062l29 135l1046 1113h-840l32 152h1056z" />
    <glyph glyph-name="bracketleft" unicode="[" horiz-adv-x="738" 
d="M504 -263h-468l354 1663h468l-29 -138h-315l-295 -1387h315z" />
    <glyph glyph-name="backslash" unicode="\" horiz-adv-x="1732" 
d="M329 1540h170l1063 -1740h-170z" />
    <glyph glyph-name="bracketright" unicode="]" horiz-adv-x="738" 
d="M274 1400h468l-354 -1663h-468l29 138h314l295 1387h-314z" />
    <glyph glyph-name="underscore" unicode="_" horiz-adv-x="937" 
d="M784 -272h-947l28 136h947z" />
    <glyph glyph-name="a" unicode="a" horiz-adv-x="1213" 
d="M626 966q122 0 207.5 -52t127.5 -140l37 173h149l-202 -947h-148l26 121q-133 -140 -331 -140q-177 0 -292.5 120t-115.5 302q0 149 70.5 278t196 207t275.5 78zM526 122q144 0 250.5 98t128.5 248q22 152 -58 254.5t-225 102.5q-160 0 -272 -119.5t-112 -286.5
q0 -129 78 -213t210 -84z" />
    <glyph glyph-name="b" unicode="b" horiz-adv-x="1212" 
d="M588 -19q-122 0 -209 52t-126 141l-38 -174h-150l306 1440h150l-127 -597q126 123 313 123q182 0 302 -120t120 -302q0 -149 -70.5 -278t-195.5 -207t-275 -78zM687 825q-144 0 -251.5 -98.5t-127.5 -247.5q-22 -152 58.5 -254.5t225.5 -102.5q159 0 271 119.5t112 286.5
q0 129 -78 213t-210 84z" />
    <glyph glyph-name="c" unicode="c" horiz-adv-x="1011" 
d="M877 701q-98 124 -264 124q-156 0 -263.5 -114t-107.5 -274q0 -136 85.5 -225t212.5 -89q151 0 262 106l86 -98q-142 -148 -354 -148q-198 0 -322 126.5t-124 317.5q0 146 68.5 269t191.5 196t272 73q251 0 374 -180z" />
    <glyph glyph-name="d" unicode="d" horiz-adv-x="1213" 
d="M625 966q122 0 207.5 -52t127.5 -140l142 666h150l-306 -1440h-149l26 121q-133 -140 -332 -140q-176 0 -291.5 120t-115.5 302q0 149 70.5 278t195.5 207t275 78zM526 122q144 0 250.5 98t128.5 248q22 152 -58 254.5t-225 102.5q-160 0 -272 -119.5t-112 -286.5
q0 -129 78 -213t210 -84z" />
    <glyph glyph-name="e" unicode="e" horiz-adv-x="1079" 
d="M895 116q-85 -71 -176 -103.5t-207 -32.5q-201 0 -316 115.5t-115 296.5q0 79 21.5 159.5t66.5 155t107.5 132.5t151 92.5t190.5 34.5q176 0 283 -102.5t107 -273.5q0 -89 -29 -169h-746v-23q0 -131 78 -209t217 -78q161 0 292 108zM610 833q-72 0 -133.5 -24t-104 -66
t-72 -92.5t-46.5 -108.5h603q3 22 3 44q0 115 -68.5 181t-181.5 66z" />
    <glyph glyph-name="f" unicode="f" horiz-adv-x="829" 
d="M841 812h-355l-173 -812h-151l173 812h-213l29 135h213l40 188q33 157 121 240.5t226 83.5q142 0 238 -79l-73 -116q-73 55 -166 55q-72 0 -124 -50.5t-75 -153.5l-36 -168h354z" />
    <glyph glyph-name="g" unicode="g" horiz-adv-x="1211" 
d="M957 61q-47 -225 -184.5 -347t-331.5 -122q-249 0 -420 143l85 114q137 -123 337 -123q136 0 236 91t130 244l11 58q-124 -121 -304 -121q-191 0 -310.5 118t-119.5 296q0 150 70.5 277.5t194 202t271.5 74.5q124 0 210 -51.5t127 -141.5l38 174h148zM525 138
q155 0 261 103t118 264q10 138 -70.5 229t-213.5 91q-162 0 -270.5 -114t-108.5 -285q0 -126 79 -207t205 -81z" />
    <glyph glyph-name="h" unicode="h" horiz-adv-x="1179" 
d="M704 966q159 0 251 -90t92 -236q0 -54 -11 -104l-115 -536h-150l114 535q10 40 10 82q0 94 -56.5 150.5t-168.5 56.5q-128 0 -220 -79.5t-124 -228.5l-110 -516h-151l307 1440h149l-129 -609q123 135 312 135z" />
    <glyph glyph-name="i" unicode="i" horiz-adv-x="484" 
d="M216 0h-151l202 947h151zM412 1389q45 0 76 -30.5t31 -75.5t-31 -75t-76 -30q-44 0 -74.5 30t-30.5 75t30.5 75.5t74.5 30.5z" />
    <glyph glyph-name="j" unicode="j" horiz-adv-x="491" 
d="M189 -162q-26 -125 -99 -189t-178 -64q-90 0 -151 40l55 123q37 -22 87 -22q52 0 89 33t51 98l231 1090h151zM419 1389q45 0 76 -30.5t31 -75.5t-31 -75t-76 -30q-44 0 -74.5 30t-30.5 75t30.5 75.5t74.5 30.5z" />
    <glyph glyph-name="k" unicode="k" horiz-adv-x="1028" 
d="M335 563h130l412 384h195l-504 -461l334 -486h-169l-286 427h-141l-90 -427h-151l306 1440h151z" />
    <glyph glyph-name="l" unicode="l" horiz-adv-x="483" 
d="M216 0h-151l306 1440h151z" />
    <glyph glyph-name="m" unicode="m" horiz-adv-x="1886" 
d="M1411 966q159 0 251 -90t92 -236q0 -54 -11 -104l-116 -536h-150l114 535q10 40 10 82q0 94 -57 150.5t-170 56.5q-128 0 -220 -79.5t-124 -228.5l-110 -516h-149l114 535q14 57 7 109.5t-30 92.5t-72.5 63.5t-120.5 23.5q-128 0 -220 -79.5t-124 -228.5l-110 -516h-150
l202 947h149l-25 -118q123 137 313 137q120 0 202.5 -52t117.5 -142q72 101 173.5 147.5t213.5 46.5z" />
    <glyph glyph-name="n" unicode="n" horiz-adv-x="1179" 
d="M704 966q159 0 251 -90t92 -236q0 -54 -11 -104l-115 -536h-150l114 535q10 40 10 82q0 94 -57 150.5t-169 56.5q-128 0 -220 -79.5t-124 -228.5l-110 -516h-150l202 947h149l-25 -118q123 137 313 137z" />
    <glyph glyph-name="o" unicode="o" horiz-adv-x="1170" 
d="M626 966q202 0 329.5 -126t127.5 -319q0 -146 -70 -270t-194.5 -197.5t-274.5 -73.5q-201 0 -328.5 126t-127.5 320q0 146 69.5 269.5t194 197t274.5 73.5zM614 826q-157 0 -265 -115t-108 -276q0 -137 87.5 -225.5t224.5 -88.5q160 0 268.5 114.5t108.5 275.5
q0 138 -88 226.5t-228 88.5z" />
    <glyph glyph-name="p" unicode="p" horiz-adv-x="1211" 
d="M587 -19q-121 0 -208.5 52t-126.5 140l-121 -573h-151l287 1347h149l-26 -121q133 140 331 140q176 0 291.5 -120t115.5 -302q0 -149 -70.5 -278t-195.5 -207t-275 -78zM687 825q-145 0 -252 -98.5t-127 -247.5q-22 -152 58 -254.5t225 -102.5q160 0 272 119.5t112 286.5
q0 129 -78 213t-210 84z" />
    <glyph glyph-name="q" unicode="q" horiz-adv-x="1213" 
d="M626 966q122 0 207.5 -52t127.5 -140l37 173h149l-287 -1347h-151l107 500q-127 -119 -310 -119q-182 0 -302 120t-120 302q0 149 70.5 278t196 207t275.5 78zM526 122q144 0 250.5 98t128.5 248q22 152 -58 254.5t-225 102.5q-160 0 -272 -119.5t-112 -286.5
q0 -129 78 -213t210 -84z" />
    <glyph glyph-name="r" unicode="r" horiz-adv-x="804" 
d="M392 836q115 130 290 130q96 0 169 -39l-57 -141q-59 38 -146 38q-118 0 -204 -79t-119 -232l-110 -513h-150l202 947h149z" />
    <glyph glyph-name="s" unicode="s" horiz-adv-x="953" 
d="M844 746q-56 38 -143 63.5t-170 25.5q-100 0 -163 -36t-71 -100q-8 -66 34.5 -101t133.5 -48l85 -13q154 -24 224.5 -95t57.5 -181q-14 -127 -124.5 -203t-282.5 -76q-109 0 -222 35t-191 95l83 111q139 -111 328 -111q111 0 179.5 38t76.5 109q12 117 -170 144l-87 13
q-154 23 -223 95t-57 180q16 130 121 202t269 72q238 0 390 -105z" />
    <glyph glyph-name="t" unicode="t" horiz-adv-x="890" 
d="M868 812h-393l-97 -461q-24 -113 19 -171.5t129 -58.5q101 0 200 68l62 -115q-126 -93 -279 -93q-163 0 -241.5 98t-39.5 276l97 457h-203l29 135h203l64 301h150l-64 -301h393z" />
    <glyph glyph-name="u" unicode="u" horiz-adv-x="1166" 
d="M992 389q-44 -204 -176.5 -306t-317.5 -102q-161 0 -263.5 87.5t-102.5 243.5q0 50 12 108l113 527h151l-114 -534q-10 -41 -10 -85q0 -104 63.5 -155.5t168.5 -51.5q122 0 211.5 75t119.5 219l113 532h150z" />
    <glyph glyph-name="v" unicode="v" horiz-adv-x="1027" 
d="M507 -2h-174l-206 949h153l164 -803l494 803h163z" />
    <glyph glyph-name="w" unicode="w" horiz-adv-x="1674" 
d="M1128 159l443 788h164l-544 -947h-177l-125 785l-419 -785h-174l-156 947h150l121 -785l420 785h165z" />
    <glyph glyph-name="x" unicode="x" horiz-adv-x="998" 
d="M584 473l280 -473h-165l-220 371l-347 -371h-179l458 485l-277 462h166l213 -365l343 365h180z" />
    <glyph glyph-name="y" unicode="y" horiz-adv-x="1037" 
d="M156 -404h-171l456 626l-322 725h158l259 -593l419 593h169z" />
    <glyph glyph-name="z" unicode="z" horiz-adv-x="1017" 
d="M968 834l-708 -699h585l-28 -135h-788l24 117l714 695h-579l29 135h776z" />
    <glyph glyph-name="braceleft" unicode="{" horiz-adv-x="844" 
d="M914 1262h-39q-118 0 -185 -55t-86 -188l-19 -128q-22 -140 -86 -218t-174 -111q89 -38 121 -120.5t2 -195.5l-35 -131q-31 -118 15.5 -178.5t151.5 -60.5h60l-30 -138h-59q-180 0 -255 117t-28 296l31 113q31 114 -18 175t-160 61l29 138q124 0 191.5 60t87.5 191
l22 142q29 191 140 280t300 89h53z" />
    <glyph glyph-name="bar" unicode="|" horiz-adv-x="688" 
d="M262 -265h-149l354 1665h149z" />
    <glyph glyph-name="braceright" unicode="}" horiz-adv-x="844" 
d="M-29 -124h39q118 0 183.5 54.5t87.5 188.5l19 128q36 264 259 328q-88 38 -120 121t-2 196l35 131q31 118 -15.5 178.5t-151.5 60.5h-60l30 138h59q180 0 255 -117t28 -296l-31 -113q-31 -114 18 -175t160 -61l-29 -138q-124 0 -191.5 -60t-87.5 -191l-22 -142
q-29 -191 -140 -280t-300 -89h-53z" />
    <glyph glyph-name="uni00A0" unicode="&#xa0;" horiz-adv-x="534" 
 />
    <glyph glyph-name="exclamdown" unicode="&#xa1;" horiz-adv-x="506" 
d="M193 502h128l-173 -955h-183zM324 714q-50 0 -87.5 37.5t-37.5 87.5t37.5 88t87.5 38t87.5 -38t37.5 -88t-37.5 -87.5t-87.5 -37.5z" />
    <glyph glyph-name="sterling" unicode="&#xa3;" horiz-adv-x="1400" 
d="M1126 0h-1015l32 147h173l103 485h-174l30 136h173l41 193q48 227 182.5 342t315.5 115q250 0 356 -173l-122 -93q-81 119 -244 119q-266 0 -341 -348l-33 -155h512l-29 -136h-512l-102 -485h685z" />
    <glyph glyph-name="yen" unicode="&#xa5;" horiz-adv-x="1400" 
d="M1132 317h-388l-67 -317h-155l67 317h-387l27 123h386l42 197h-388l28 123h323l-310 640h173l277 -589l526 589h190l-577 -640h328l-28 -123h-387l-42 -197h389z" />
    <glyph glyph-name="section" unicode="&#xa7;" horiz-adv-x="1242" 
d="M1161 1162q-157 117 -362 117q-136 0 -233 -54t-113 -133q-19 -98 42.5 -147.5t197.5 -64.5l101 -11q175 -18 268.5 -109.5t64.5 -229.5q-33 -153 -197 -238q114 -99 82 -254q-29 -150 -174.5 -239.5t-343.5 -89.5q-137 0 -268.5 45t-203.5 117l98 113q58 -57 161 -96
t221 -39q142 0 240.5 52t116.5 139q19 96 -48.5 143t-212.5 67l-109 14q-166 21 -251.5 105.5t-58.5 214.5q32 157 198 245q-111 91 -77 259q30 147 171 238.5t336 91.5q275 0 445 -141zM602 746q-49 6 -102 20q-69 -26 -114 -71t-57 -100q-19 -89 46 -136.5t207 -62.5
l101 -11q74 -8 130 -29q68 27 112.5 69t55.5 92q19 95 -55 149t-216 69z" />
    <glyph glyph-name="copyright" unicode="&#xa9;" horiz-adv-x="1892" 
d="M940 -90q-205 0 -377.5 95t-275.5 266t-103 381q0 131 43 258t122.5 233.5t185 188t240 127t277.5 45.5q205 0 377.5 -95t275.5 -266t103 -381q0 -131 -43 -258t-122.5 -233.5t-185 -188t-240 -127t-277.5 -45.5zM1042 1373q-150 0 -285.5 -60t-230 -158.5t-150 -228.5
t-55.5 -266q0 -176 86 -319t229.5 -221.5t313.5 -78.5q150 0 285.5 60t230 158.5t150 228.5t55.5 266q0 176 -86 319t-229.5 221.5t-313.5 78.5zM1279 870q-39 67 -103.5 100.5t-137.5 33.5q-134 0 -222.5 -95.5t-88.5 -229.5q0 -122 76.5 -195.5t189.5 -73.5q72 0 136 32
t108 90l91 -84q-62 -80 -150 -124t-192 -44q-168 0 -284.5 107t-116.5 283q0 125 58 231.5t164.5 170t237.5 63.5q117 0 211.5 -52.5t142.5 -143.5z" />
    <glyph glyph-name="guillemotleft" unicode="&#xab;" horiz-adv-x="1021" 
d="M679 514l108 -355h-152l-113 370l271 370h167zM283 514l108 -355h-152l-113 370l271 370h167z" />
    <glyph glyph-name="uni00AD" unicode="&#xad;" horiz-adv-x="816" 
d="M678 461h-546l29 136h546z" />
    <glyph glyph-name="registered" unicode="&#xae;" horiz-adv-x="985" 
d="M639 1435q160 0 273 -108t113 -273q0 -113 -57.5 -212.5t-159.5 -161t-223 -61.5q-161 0 -275 108t-114 273q0 113 58 213t161 161t224 61zM590 709q139 0 237.5 103t98.5 237q0 127 -86 211t-206 84q-141 0 -240 -102t-99 -237q0 -128 86.5 -212t208.5 -84zM667 1221
q70 0 107 -39.5t25 -92.5q-22 -93 -149 -104l109 -143h-93l-99 142h-30l-30 -142h-81l80 379h161zM572 1150l-22 -101h86q69 0 80 46q7 25 -9.5 40t-48.5 15h-86z" />
    <glyph glyph-name="degree" unicode="&#xb0;" horiz-adv-x="787" 
d="M497 730q-137 0 -230 92.5t-93 226.5q0 150 106 259t266 109q135 0 229 -93t94 -226q0 -149 -108 -258.5t-264 -109.5zM504 851q94 0 164.5 71t70.5 167q0 86 -58.5 146.5t-142.5 60.5q-95 0 -165 -71t-70 -167q0 -87 58 -147t143 -60z" />
    <glyph glyph-name="periodcentered" unicode="&#xb7;" horiz-adv-x="681" 
d="M359 654q50 0 87 -37t37 -87q0 -51 -37 -88.5t-87 -37.5t-88 37.5t-38 88.5q0 50 38 87t88 37z" />
    <glyph glyph-name="guillemotright" unicode="&#xbb;" horiz-adv-x="1021" 
d="M366 544l-108 355h152l113 -370l-271 -370h-167zM762 544l-108 355h152l113 -370l-271 -370h-167z" />
    <glyph glyph-name="questiondown" unicode="&#xbf;" horiz-adv-x="842" 
d="M642 502l-66 -314h-82q-177 0 -269 -72.5t-92 -194.5q0 -112 99 -174.5t259 -62.5q31 0 69 2l-6 -152q-45 -5 -91 -5q-219 0 -359 101.5t-140 270.5q0 184 128.5 298.5t369.5 128.5l45 174h135zM636 715q-50 0 -87.5 37.5t-37.5 87.5t37.5 88t87.5 38t87.5 -38t37.5 -88
t-37.5 -87.5t-87.5 -37.5z" />
    <glyph glyph-name="Agrave" unicode="&#xc0;" horiz-adv-x="1421" 
d="M1277 0h-165l-74 390h-683l-238 -390h-174l863 1400h199zM448 542h561l-132 699zM648 1807h189l210 -300h-148z" />
    <glyph glyph-name="Aacute" unicode="&#xc1;" horiz-adv-x="1421" 
d="M1277 0h-165l-74 390h-683l-238 -390h-174l863 1400h199zM448 542h561l-132 699zM766 1507l241 300h194l-282 -300h-153z" />
    <glyph glyph-name="Acircumflex" unicode="&#xc2;" horiz-adv-x="1421" 
d="M1277 0h-165l-74 390h-683l-238 -390h-174l863 1400h199zM448 542h561l-132 699zM1077 1508l-130 197l-209 -197h-168l288 288h200l176 -288h-157z" />
    <glyph glyph-name="Atilde" unicode="&#xc3;" horiz-adv-x="1421" 
d="M1277 0h-165l-74 390h-683l-238 -390h-174l863 1400h199zM448 542h561l-132 699zM585 1652q52 57 105.5 82.5t121.5 25.5q60 0 107 -20t82.5 -39.5t66.5 -19.5q68 0 141 68l85 -89q-54 -57 -106.5 -82.5t-120.5 -25.5q-58 0 -104.5 20t-83 40t-69.5 20q-66 0 -140 -69z
" />
    <glyph glyph-name="Adieresis" unicode="&#xc4;" horiz-adv-x="1421" 
d="M1277 0h-165l-74 390h-683l-238 -390h-174l863 1400h199zM448 542h561l-132 699zM748 1758q44 0 75 -31t31 -76t-30.5 -75t-75.5 -30t-75.5 30t-30.5 75t30.5 76t75.5 31zM1154 1758q44 0 75 -31t31 -76t-30.5 -75t-75.5 -30t-75 30t-30 75t30 76t75 31z" />
    <glyph glyph-name="Aring" unicode="&#xc5;" horiz-adv-x="1421" 
d="M1277 0h-165l-74 390h-683l-238 -390h-174l863 1400h199zM448 542h561l-132 699zM936 1487q-93 0 -160 66t-67 159t67 158.5t160 65.5q94 0 161 -65.5t67 -158.5t-67 -159t-161 -66zM936 1582q53 0 90.5 38t37.5 92t-37.5 91.5t-90.5 37.5t-90 -37.5t-37 -91.5
q0 -55 37 -92.5t90 -37.5z" />
    <glyph glyph-name="AE" unicode="&#xc6;" horiz-adv-x="2262" 
d="M2017 0h-969l77 365h-638l-348 -365h-205l1341 1400h1027l-32 -151h-792l-100 -469h773l-32 -150h-773l-102 -479h805zM1158 517l150 708l-676 -708h526z" />
    <glyph glyph-name="Ccedilla" unicode="&#xc7;" horiz-adv-x="1481" 
d="M721 -323h-175l179 329l161 -1zM1348 219q-101 -115 -235.5 -177t-289.5 -62q-188 0 -339 83t-237 233.5t-86 340.5q0 165 59.5 310t162.5 248.5t246.5 163.5t305.5 60q50 0 100.5 -6t116 -24.5t123 -48t116 -82t100.5 -121.5l-123 -98q-69 114 -188 170t-255 56
q-165 0 -301.5 -81t-215.5 -222.5t-79 -311.5q0 -149 66 -267t181 -183t257 -65q119 0 225.5 49.5t183.5 137.5z" />
    <glyph glyph-name="Egrave" unicode="&#xc8;" horiz-adv-x="1306" 
d="M1163 630h-773l-102 -479h805l-32 -151h-969l298 1400h956l-32 -151h-792l-100 -469h773zM609 1807h189l210 -300h-148z" />
    <glyph glyph-name="Eacute" unicode="&#xc9;" horiz-adv-x="1306" 
d="M1163 630h-773l-102 -479h805l-32 -151h-969l298 1400h956l-32 -151h-792l-100 -469h773zM727 1507l241 300h194l-282 -300h-153z" />
    <glyph glyph-name="Ecircumflex" unicode="&#xca;" horiz-adv-x="1306" 
d="M1163 630h-773l-102 -479h805l-32 -151h-969l298 1400h956l-32 -151h-792l-100 -469h773zM1038 1508l-130 197l-209 -197h-168l288 288h200l176 -288h-157z" />
    <glyph glyph-name="Edieresis" unicode="&#xcb;" horiz-adv-x="1306" 
d="M1163 630h-773l-102 -479h805l-32 -151h-969l298 1400h956l-32 -151h-792l-100 -469h773zM709 1758q44 0 75 -31t31 -76t-30.5 -75t-75.5 -30t-75.5 30t-30.5 75t30.5 76t75.5 31zM1115 1758q44 0 75 -31t31 -76t-30.5 -75t-75.5 -30t-75 30t-30 75t30 76t75 31z" />
    <glyph glyph-name="Igrave" unicode="&#xcc;" horiz-adv-x="549" 
d="M256 0h-164l298 1400h164zM214 1807h189l210 -300h-148z" />
    <glyph glyph-name="Iacute" unicode="&#xcd;" horiz-adv-x="549" 
d="M256 0h-164l298 1400h164zM332 1507l241 300h194l-282 -300h-153z" />
    <glyph glyph-name="Icircumflex" unicode="&#xce;" horiz-adv-x="549" 
d="M256 0h-164l298 1400h164zM643 1508l-130 197l-209 -197h-168l288 288h200l176 -288h-157z" />
    <glyph glyph-name="Idieresis" unicode="&#xcf;" horiz-adv-x="549" 
d="M256 0h-164l298 1400h164zM314 1758q44 0 75 -31t31 -76t-30.5 -75t-75.5 -30t-75.5 30t-30.5 75t30.5 76t75.5 31zM720 1758q44 0 75 -31t31 -76t-30.5 -75t-75.5 -30t-75 30t-30 75t30 76t75 31z" />
    <glyph glyph-name="Eth" unicode="&#xd0;" horiz-adv-x="1708" 
d="M1005 1400q303 0 475.5 -158t172.5 -427q0 -170 -59.5 -318t-169.5 -258.5t-279 -174.5t-377 -64h-521l134 629h-232l33 152h231l132 619h460zM932 629h-387l-102 -477h343q165 0 298.5 50t220 137.5t132.5 205.5t46 255q0 207 -126.5 327.5t-369.5 120.5h-311l-99 -467
h387z" />
    <glyph glyph-name="Ntilde" unicode="&#xd1;" horiz-adv-x="1548" 
d="M1254 0h-149l-605 1147l-245 -1147h-163l298 1400h151l604 -1147l244 1147h164zM639 1652q52 57 105.5 82.5t121.5 25.5q60 0 107 -20t82.5 -39.5t66.5 -19.5q68 0 141 68l85 -89q-54 -57 -106.5 -82.5t-120.5 -25.5q-58 0 -104.5 20t-83 40t-69.5 20q-66 0 -140 -69z
" />
    <glyph glyph-name="Ograve" unicode="&#xd2;" horiz-adv-x="1663" 
d="M934 1419q188 0 339 -79t239.5 -227.5t88.5 -340.5q0 -214 -98.5 -395t-277 -289t-399.5 -108q-188 0 -339.5 79t-239.5 227.5t-88 341.5q0 159 58 304t159 252.5t246.5 171t311.5 63.5zM921 1265q-128 0 -240 -51t-189 -137t-121 -199.5t-44 -237.5q0 -228 144 -366.5
t368 -138.5q128 0 240 51t189 136.5t121 199.5t44 238q0 151 -67 266.5t-183 177t-262 61.5zM698 1807h189l210 -300h-148z" />
    <glyph glyph-name="Oacute" unicode="&#xd3;" horiz-adv-x="1663" 
d="M934 1419q188 0 339 -79t239.5 -227.5t88.5 -340.5q0 -214 -98.5 -395t-277 -289t-399.5 -108q-188 0 -339.5 79t-239.5 227.5t-88 341.5q0 159 58 304t159 252.5t246.5 171t311.5 63.5zM921 1265q-128 0 -240 -51t-189 -137t-121 -199.5t-44 -237.5q0 -228 144 -366.5
t368 -138.5q128 0 240 51t189 136.5t121 199.5t44 238q0 151 -67 266.5t-183 177t-262 61.5zM816 1507l241 300h194l-282 -300h-153z" />
    <glyph glyph-name="Ocircumflex" unicode="&#xd4;" horiz-adv-x="1663" 
d="M934 1419q188 0 339 -79t239.5 -227.5t88.5 -340.5q0 -214 -98.5 -395t-277 -289t-399.5 -108q-188 0 -339.5 79t-239.5 227.5t-88 341.5q0 159 58 304t159 252.5t246.5 171t311.5 63.5zM921 1265q-128 0 -240 -51t-189 -137t-121 -199.5t-44 -237.5q0 -228 144 -366.5
t368 -138.5q128 0 240 51t189 136.5t121 199.5t44 238q0 151 -67 266.5t-183 177t-262 61.5zM1127 1508l-130 197l-209 -197h-168l288 288h200l176 -288h-157z" />
    <glyph glyph-name="Otilde" unicode="&#xd5;" horiz-adv-x="1663" 
d="M934 1419q188 0 339 -79t239.5 -227.5t88.5 -340.5q0 -214 -98.5 -395t-277 -289t-399.5 -108q-188 0 -339.5 79t-239.5 227.5t-88 341.5q0 159 58 304t159 252.5t246.5 171t311.5 63.5zM921 1265q-128 0 -240 -51t-189 -137t-121 -199.5t-44 -237.5q0 -228 144 -366.5
t368 -138.5q128 0 240 51t189 136.5t121 199.5t44 238q0 151 -67 266.5t-183 177t-262 61.5zM635 1652q52 57 105.5 82.5t121.5 25.5q60 0 107 -20t82.5 -39.5t66.5 -19.5q68 0 141 68l85 -89q-54 -57 -106.5 -82.5t-120.5 -25.5q-58 0 -104.5 20t-83 40t-69.5 20
q-66 0 -140 -69z" />
    <glyph glyph-name="Odieresis" unicode="&#xd6;" horiz-adv-x="1663" 
d="M934 1419q188 0 339 -79t239.5 -227.5t88.5 -340.5q0 -214 -98.5 -395t-277 -289t-399.5 -108q-188 0 -339.5 79t-239.5 227.5t-88 341.5q0 159 58 304t159 252.5t246.5 171t311.5 63.5zM921 1265q-128 0 -240 -51t-189 -137t-121 -199.5t-44 -237.5q0 -228 144 -366.5
t368 -138.5q128 0 240 51t189 136.5t121 199.5t44 238q0 151 -67 266.5t-183 177t-262 61.5zM798 1758q44 0 75 -31t31 -76t-30.5 -75t-75.5 -30t-75.5 30t-30.5 75t30.5 76t75.5 31zM1204 1758q44 0 75 -31t31 -76t-30.5 -75t-75.5 -30t-75 30t-30 75t30 76t75 31z" />
    <glyph glyph-name="multiply" unicode="&#xd7;" 
d="M822 146l-226 287l-366 -302l-83 104l356 294l-231 294l106 87l225 -285l368 305l83 -105l-359 -296l233 -296z" />
    <glyph glyph-name="Oslash" unicode="&#xd8;" horiz-adv-x="1663" 
d="M934 1419q280 0 467 -170l193 172l96 -108l-195 -173q106 -157 106 -368q0 -214 -98.5 -395t-277 -289t-399.5 -108q-269 0 -455 158l-178 -158l-96 107l177 158q-115 164 -115 383q0 159 58 304t159 252.5t246.5 171t311.5 63.5zM921 1265q-128 0 -240 -51t-189 -137
t-121 -199.5t-44 -237.5q0 -161 75 -281l874 779q-143 127 -355 127zM1433 760q0 147 -67 265l-869 -775q136 -115 342 -115q128 0 240 51t189 136.5t121 199.5t44 238z" />
    <glyph glyph-name="Ugrave" unicode="&#xd9;" horiz-adv-x="1471" 
d="M1312 540q-62 -288 -229.5 -423.5t-419.5 -135.5q-82 0 -154.5 16t-134 50.5t-106 84.5t-69.5 121t-25 157q0 70 18 151l179 839h164l-179 -835q-14 -60 -14 -129q0 -153 92 -227t248 -74q177 0 301 102.5t168 315.5l180 847h164zM675 1807h189l210 -300h-148z" />
    <glyph glyph-name="Uacute" unicode="&#xda;" horiz-adv-x="1471" 
d="M1312 540q-62 -288 -229.5 -423.5t-419.5 -135.5q-82 0 -154.5 16t-134 50.5t-106 84.5t-69.5 121t-25 157q0 70 18 151l179 839h164l-179 -835q-14 -60 -14 -129q0 -153 92 -227t248 -74q177 0 301 102.5t168 315.5l180 847h164zM793 1507l241 300h194l-282 -300h-153z
" />
    <glyph glyph-name="Ucircumflex" unicode="&#xdb;" horiz-adv-x="1471" 
d="M1312 540q-62 -288 -229.5 -423.5t-419.5 -135.5q-82 0 -154.5 16t-134 50.5t-106 84.5t-69.5 121t-25 157q0 70 18 151l179 839h164l-179 -835q-14 -60 -14 -129q0 -153 92 -227t248 -74q177 0 301 102.5t168 315.5l180 847h164zM1104 1508l-130 197l-209 -197h-168
l288 288h200l176 -288h-157z" />
    <glyph glyph-name="Udieresis" unicode="&#xdc;" horiz-adv-x="1471" 
d="M1312 540q-62 -288 -229.5 -423.5t-419.5 -135.5q-82 0 -154.5 16t-134 50.5t-106 84.5t-69.5 121t-25 157q0 70 18 151l179 839h164l-179 -835q-14 -60 -14 -129q0 -153 92 -227t248 -74q177 0 301 102.5t168 315.5l180 847h164zM775 1758q44 0 75 -31t31 -76t-30.5 -75
t-75.5 -30t-75.5 30t-30.5 75t30.5 76t75.5 31zM1181 1758q44 0 75 -31t31 -76t-30.5 -75t-75.5 -30t-75 30t-30 75t30 76t75 31z" />
    <glyph glyph-name="Yacute" unicode="&#xdd;" horiz-adv-x="1274" 
d="M741 585l-124 -585h-164l127 601l-370 799h173l303 -657l569 657h203zM679 1507l241 300h194l-282 -300h-153z" />
    <glyph glyph-name="Thorn" unicode="&#xde;" horiz-adv-x="1303" 
d="M497 1134h321q210 0 326.5 -98t116.5 -264q0 -212 -149 -344t-425 -132h-368l-63 -296h-164l298 1400h164zM465 982l-114 -534h343q200 0 299.5 84t99.5 225q0 109 -74 167t-217 58h-337z" />
    <glyph glyph-name="germandbls" unicode="&#xdf;" horiz-adv-x="1197" 
d="M272 1011q48 222 181 335t339 113q171 0 283.5 -98.5t112.5 -246.5q0 -131 -79.5 -240t-206.5 -152q102 -38 155.5 -142.5t29.5 -221.5q-27 -130 -100 -216.5t-168.5 -123.5t-212.5 -37q-147 0 -241 51l64 125q69 -37 172 -37q133 0 222.5 62.5t112.5 186.5
q24 126 -49.5 208t-220.5 82h-67l30 136h29q158 0 254 68q57 40 90 106.5t33 130.5q0 97 -74 158t-177 61q-137 0 -234 -78t-131 -246l-211 -995h-151z" />
    <glyph glyph-name="agrave" unicode="&#xe0;" horiz-adv-x="1213" 
d="M626 966q122 0 207.5 -52t127.5 -140l37 173h149l-202 -947h-148l26 121q-133 -140 -331 -140q-177 0 -292.5 120t-115.5 302q0 149 70.5 278t196 207t275.5 78zM526 122q144 0 250.5 98t128.5 248q22 152 -58 254.5t-225 102.5q-160 0 -272 -119.5t-112 -286.5
q0 -129 78 -213t210 -84zM412 1392h189l210 -300h-148z" />
    <glyph glyph-name="aacute" unicode="&#xe1;" horiz-adv-x="1213" 
d="M626 966q122 0 207.5 -52t127.5 -140l37 173h149l-202 -947h-148l26 121q-133 -140 -331 -140q-177 0 -292.5 120t-115.5 302q0 149 70.5 278t196 207t275.5 78zM526 122q144 0 250.5 98t128.5 248q22 152 -58 254.5t-225 102.5q-160 0 -272 -119.5t-112 -286.5
q0 -129 78 -213t210 -84zM550 1092l241 300h194l-282 -300h-153z" />
    <glyph glyph-name="acircumflex" unicode="&#xe2;" horiz-adv-x="1213" 
d="M626 966q122 0 207.5 -52t127.5 -140l37 173h149l-202 -947h-148l26 121q-133 -140 -331 -140q-177 0 -292.5 120t-115.5 302q0 149 70.5 278t196 207t275.5 78zM526 122q144 0 250.5 98t128.5 248q22 152 -58 254.5t-225 102.5q-160 0 -272 -119.5t-112 -286.5
q0 -129 78 -213t210 -84zM852 1093l-130 197l-209 -197h-168l288 288h200l176 -288h-157z" />
    <glyph glyph-name="atilde" unicode="&#xe3;" horiz-adv-x="1213" 
d="M626 966q122 0 207.5 -52t127.5 -140l37 173h149l-202 -947h-148l26 121q-133 -140 -331 -140q-177 0 -292.5 120t-115.5 302q0 149 70.5 278t196 207t275.5 78zM526 122q144 0 250.5 98t128.5 248q22 152 -58 254.5t-225 102.5q-160 0 -272 -119.5t-112 -286.5
q0 -129 78 -213t210 -84zM342 1237q52 57 105.5 82.5t121.5 25.5q47 0 87.5 -12.5t63.5 -27t51 -27t54 -12.5q68 0 141 68l85 -89q-54 -57 -106.5 -82.5t-120.5 -25.5q-58 0 -104.5 20t-83 40t-69.5 20q-66 0 -140 -69z" />
    <glyph glyph-name="adieresis" unicode="&#xe4;" horiz-adv-x="1213" 
d="M626 966q122 0 207.5 -52t127.5 -140l37 173h149l-202 -947h-148l26 121q-133 -140 -331 -140q-177 0 -292.5 120t-115.5 302q0 149 70.5 278t196 207t275.5 78zM526 122q144 0 250.5 98t128.5 248q22 152 -58 254.5t-225 102.5q-160 0 -272 -119.5t-112 -286.5
q0 -129 78 -213t210 -84zM511 1343q44 0 75 -31t31 -76t-30.5 -75t-75.5 -30t-75.5 30t-30.5 75t30.5 76t75.5 31zM917 1343q44 0 75 -31t31 -76t-30.5 -75t-75.5 -30t-75 30t-30 75t30 76t75 31z" />
    <glyph glyph-name="aring" unicode="&#xe5;" horiz-adv-x="1213" 
d="M626 966q122 0 207.5 -52t127.5 -140l37 173h149l-202 -947h-148l26 121q-133 -140 -331 -140q-177 0 -292.5 120t-115.5 302q0 149 70.5 278t196 207t275.5 78zM526 122q144 0 250.5 98t128.5 248q22 152 -58 254.5t-225 102.5q-160 0 -272 -119.5t-112 -286.5
q0 -129 78 -213t210 -84zM690 1072q-93 0 -160 66t-67 159t67 158.5t160 65.5q94 0 161 -65.5t67 -158.5t-67 -159t-161 -66zM690 1167q53 0 90.5 38t37.5 92t-37.5 91.5t-90.5 37.5t-90 -37.5t-37 -91.5q0 -55 37 -92.5t90 -37.5z" />
    <glyph glyph-name="ae" unicode="&#xe6;" horiz-adv-x="1767" 
d="M1582 116q-85 -71 -175 -103.5t-207 -32.5q-132 0 -228 51t-148 142q-182 -192 -426 -192q-145 0 -237 72t-92 188q0 133 104 218.5t298 85.5h319l1 5q9 42 9 78q0 99 -63.5 151t-183.5 52q-138 0 -276 -85l-55 117q164 103 356 103q254 0 332 -186q69 87 170 136.5
t226 49.5q176 0 283 -102.5t107 -273.5q0 -89 -29 -169h-747v-23q0 -131 78.5 -209t217.5 -78q161 0 292 108zM1298 833q-139 0 -230 -83.5t-127 -207.5h603q3 22 3 44q0 115 -68 181t-181 66zM418 113q96 0 190.5 45.5t170.5 133.5q-10 44 -10 100v29h-288q-124 0 -187 -48
t-63 -118q0 -68 49.5 -105t137.5 -37z" />
    <glyph glyph-name="ccedilla" unicode="&#xe7;" horiz-adv-x="1011" 
d="M877 701q-98 124 -264 124q-156 0 -263.5 -114t-107.5 -274q0 -136 85.5 -225t212.5 -89q151 0 262 106l86 -98q-142 -148 -354 -148q-198 0 -322 126.5t-124 317.5q0 146 68.5 269t191.5 196t272 73q251 0 374 -180zM432 -323h-168l179 329l154 -1z" />
    <glyph glyph-name="egrave" unicode="&#xe8;" horiz-adv-x="1079" 
d="M895 116q-85 -71 -176 -103.5t-207 -32.5q-201 0 -316 115.5t-115 296.5q0 79 21.5 159.5t66.5 155t107.5 132.5t151 92.5t190.5 34.5q176 0 283 -102.5t107 -273.5q0 -89 -29 -169h-746v-23q0 -131 78 -209t217 -78q161 0 292 108zM610 833q-72 0 -133.5 -24t-104 -66
t-72 -92.5t-46.5 -108.5h603q3 22 3 44q0 115 -68.5 181t-181.5 66zM378 1392h189l210 -300h-148z" />
    <glyph glyph-name="eacute" unicode="&#xe9;" horiz-adv-x="1079" 
d="M895 116q-85 -71 -176 -103.5t-207 -32.5q-201 0 -316 115.5t-115 296.5q0 79 21.5 159.5t66.5 155t107.5 132.5t151 92.5t190.5 34.5q176 0 283 -102.5t107 -273.5q0 -89 -29 -169h-746v-23q0 -131 78 -209t217 -78q161 0 292 108zM610 833q-72 0 -133.5 -24t-104 -66
t-72 -92.5t-46.5 -108.5h603q3 22 3 44q0 115 -68.5 181t-181.5 66zM516 1092l241 300h194l-282 -300h-153z" />
    <glyph glyph-name="ecircumflex" unicode="&#xea;" horiz-adv-x="1079" 
d="M895 116q-85 -71 -176 -103.5t-207 -32.5q-201 0 -316 115.5t-115 296.5q0 79 21.5 159.5t66.5 155t107.5 132.5t151 92.5t190.5 34.5q176 0 283 -102.5t107 -273.5q0 -89 -29 -169h-746v-23q0 -131 78 -209t217 -78q161 0 292 108zM610 833q-72 0 -133.5 -24t-104 -66
t-72 -92.5t-46.5 -108.5h603q3 22 3 44q0 115 -68.5 181t-181.5 66zM818 1093l-130 197l-209 -197h-168l288 288h200l176 -288h-157z" />
    <glyph glyph-name="edieresis" unicode="&#xeb;" horiz-adv-x="1079" 
d="M895 116q-85 -71 -176 -103.5t-207 -32.5q-201 0 -316 115.5t-115 296.5q0 79 21.5 159.5t66.5 155t107.5 132.5t151 92.5t190.5 34.5q176 0 283 -102.5t107 -273.5q0 -89 -29 -169h-746v-23q0 -131 78 -209t217 -78q161 0 292 108zM610 833q-72 0 -133.5 -24t-104 -66
t-72 -92.5t-46.5 -108.5h603q3 22 3 44q0 115 -68.5 181t-181.5 66zM477 1343q44 0 75 -31t31 -76t-30.5 -75t-75.5 -30t-75.5 30t-30.5 75t30.5 76t75.5 31zM883 1343q44 0 75 -31t31 -76t-30.5 -75t-75.5 -30t-75 30t-30 75t30 76t75 31z" />
    <glyph glyph-name="igrave" unicode="&#xec;" horiz-adv-x="484" 
d="M216 0h-151l202 947h151zM101 1392h189l210 -300h-148z" />
    <glyph glyph-name="iacute" unicode="&#xed;" horiz-adv-x="484" 
d="M216 0h-151l202 947h151zM239 1092l241 300h194l-282 -300h-153z" />
    <glyph glyph-name="icircumflex" unicode="&#xee;" horiz-adv-x="484" 
d="M216 0h-151l202 947h151zM541 1093l-130 197l-209 -197h-168l288 288h200l176 -288h-157z" />
    <glyph glyph-name="idieresis" unicode="&#xef;" horiz-adv-x="484" 
d="M216 0h-151l202 947h151zM200 1343q44 0 75 -31t31 -76t-30.5 -75t-75.5 -30t-75.5 30t-30.5 75t30.5 76t75.5 31zM606 1343q44 0 75 -31t31 -76t-30.5 -75t-75.5 -30t-75 30t-30 75t30 76t75 31z" />
    <glyph glyph-name="eth" unicode="&#xf0;" horiz-adv-x="1174" 
d="M1043 1321l-208 -114q258 -258 258 -616q0 -64 -11 -138q-28 -205 -178 -338.5t-349 -133.5q-205 0 -337 125.5t-132 315.5q0 138 68 258.5t187 192.5t259 72q109 0 195 -42t142 -118q-53 200 -226 355l-239 -130l-51 96l195 107q-106 71 -236 122l68 117
q173 -66 300 -168l244 133zM613 804q-88 0 -161 -34t-117.5 -89t-69 -120t-24.5 -131q0 -135 90.5 -222t233.5 -87q88 0 160.5 34t118 88.5t70 119.5t24.5 131q0 136 -91 223t-234 87z" />
    <glyph glyph-name="ntilde" unicode="&#xf1;" horiz-adv-x="1179" 
d="M704 966q159 0 251 -90t92 -236q0 -54 -11 -104l-115 -536h-150l114 535q10 40 10 82q0 94 -57 150.5t-169 56.5q-128 0 -220 -79.5t-124 -228.5l-110 -516h-150l202 947h149l-25 -118q123 137 313 137zM373 1237q52 57 105.5 82.5t121.5 25.5q47 0 87.5 -12.5t63.5 -27
t51 -27t54 -12.5q68 0 141 68l85 -89q-54 -57 -106.5 -82.5t-120.5 -25.5q-58 0 -104.5 20t-83 40t-69.5 20q-66 0 -140 -69z" />
    <glyph glyph-name="ograve" unicode="&#xf2;" horiz-adv-x="1170" 
d="M626 966q202 0 329.5 -126t127.5 -319q0 -146 -70 -270t-194.5 -197.5t-274.5 -73.5q-201 0 -328.5 126t-127.5 320q0 146 69.5 269.5t194 197t274.5 73.5zM614 826q-157 0 -265 -115t-108 -276q0 -137 87.5 -225.5t224.5 -88.5q160 0 268.5 114.5t108.5 275.5
q0 138 -88 226.5t-228 88.5zM405 1392h189l210 -300h-148z" />
    <glyph glyph-name="oacute" unicode="&#xf3;" horiz-adv-x="1170" 
d="M626 966q202 0 329.5 -126t127.5 -319q0 -146 -70 -270t-194.5 -197.5t-274.5 -73.5q-201 0 -328.5 126t-127.5 320q0 146 69.5 269.5t194 197t274.5 73.5zM614 826q-157 0 -265 -115t-108 -276q0 -137 87.5 -225.5t224.5 -88.5q160 0 268.5 114.5t108.5 275.5
q0 138 -88 226.5t-228 88.5zM543 1092l241 300h194l-282 -300h-153z" />
    <glyph glyph-name="ocircumflex" unicode="&#xf4;" horiz-adv-x="1170" 
d="M626 966q202 0 329.5 -126t127.5 -319q0 -146 -70 -270t-194.5 -197.5t-274.5 -73.5q-201 0 -328.5 126t-127.5 320q0 146 69.5 269.5t194 197t274.5 73.5zM614 826q-157 0 -265 -115t-108 -276q0 -137 87.5 -225.5t224.5 -88.5q160 0 268.5 114.5t108.5 275.5
q0 138 -88 226.5t-228 88.5zM845 1093l-130 197l-209 -197h-168l288 288h200l176 -288h-157z" />
    <glyph glyph-name="otilde" unicode="&#xf5;" horiz-adv-x="1170" 
d="M626 966q202 0 329.5 -126t127.5 -319q0 -146 -70 -270t-194.5 -197.5t-274.5 -73.5q-201 0 -328.5 126t-127.5 320q0 146 69.5 269.5t194 197t274.5 73.5zM614 826q-157 0 -265 -115t-108 -276q0 -137 87.5 -225.5t224.5 -88.5q160 0 268.5 114.5t108.5 275.5
q0 138 -88 226.5t-228 88.5zM335 1237q52 57 105.5 82.5t121.5 25.5q47 0 87.5 -12.5t63.5 -27t51 -27t54 -12.5q68 0 141 68l85 -89q-54 -57 -106.5 -82.5t-120.5 -25.5q-58 0 -104.5 20t-83 40t-69.5 20q-66 0 -140 -69z" />
    <glyph glyph-name="odieresis" unicode="&#xf6;" horiz-adv-x="1170" 
d="M626 966q202 0 329.5 -126t127.5 -319q0 -146 -70 -270t-194.5 -197.5t-274.5 -73.5q-201 0 -328.5 126t-127.5 320q0 146 69.5 269.5t194 197t274.5 73.5zM614 826q-157 0 -265 -115t-108 -276q0 -137 87.5 -225.5t224.5 -88.5q160 0 268.5 114.5t108.5 275.5
q0 138 -88 226.5t-228 88.5zM504 1343q44 0 75 -31t31 -76t-30.5 -75t-75.5 -30t-75.5 30t-30.5 75t30.5 76t75.5 31zM910 1343q44 0 75 -31t31 -76t-30.5 -75t-75.5 -30t-75 30t-30 75t30 76t75 31z" />
    <glyph glyph-name="oslash" unicode="&#xf8;" horiz-adv-x="1170" 
d="M626 966q181 0 306 -105l134 120l82 -92l-135 -120q70 -110 70 -248q0 -146 -70 -270t-194.5 -197.5t-274.5 -73.5q-179 0 -303 102l-131 -117l-82 91l132 117q-72 110 -72 253q0 146 69.5 269.5t194 197t274.5 73.5zM614 826q-157 0 -265 -115t-108 -276q0 -89 37 -157
l539 481q-86 67 -203 67zM930 511q0 85 -35 153l-539 -480q82 -63 197 -63q160 0 268.5 114.5t108.5 275.5z" />
    <glyph glyph-name="ugrave" unicode="&#xf9;" horiz-adv-x="1166" 
d="M992 389q-44 -204 -176.5 -306t-317.5 -102q-161 0 -263.5 87.5t-102.5 243.5q0 50 12 108l113 527h151l-114 -534q-10 -41 -10 -85q0 -104 63.5 -155.5t168.5 -51.5q122 0 211.5 75t119.5 219l113 532h150zM439 1392h189l210 -300h-148z" />
    <glyph glyph-name="uacute" unicode="&#xfa;" horiz-adv-x="1166" 
d="M992 389q-44 -204 -176.5 -306t-317.5 -102q-161 0 -263.5 87.5t-102.5 243.5q0 50 12 108l113 527h151l-114 -534q-10 -41 -10 -85q0 -104 63.5 -155.5t168.5 -51.5q122 0 211.5 75t119.5 219l113 532h150zM577 1092l241 300h194l-282 -300h-153z" />
    <glyph glyph-name="ucircumflex" unicode="&#xfb;" horiz-adv-x="1166" 
d="M992 389q-44 -204 -176.5 -306t-317.5 -102q-161 0 -263.5 87.5t-102.5 243.5q0 50 12 108l113 527h151l-114 -534q-10 -41 -10 -85q0 -104 63.5 -155.5t168.5 -51.5q122 0 211.5 75t119.5 219l113 532h150zM879 1093l-130 197l-209 -197h-168l288 288h200l176 -288h-157
z" />
    <glyph glyph-name="udieresis" unicode="&#xfc;" horiz-adv-x="1166" 
d="M992 389q-44 -204 -176.5 -306t-317.5 -102q-161 0 -263.5 87.5t-102.5 243.5q0 50 12 108l113 527h151l-114 -534q-10 -41 -10 -85q0 -104 63.5 -155.5t168.5 -51.5q122 0 211.5 75t119.5 219l113 532h150zM538 1343q44 0 75 -31t31 -76t-30.5 -75t-75.5 -30t-75.5 30
t-30.5 75t30.5 76t75.5 31zM944 1343q44 0 75 -31t31 -76t-30.5 -75t-75.5 -30t-75 30t-30 75t30 76t75 31z" />
    <glyph glyph-name="yacute" unicode="&#xfd;" horiz-adv-x="1037" 
d="M156 -404h-171l456 626l-322 725h158l259 -593l419 593h169zM492 1092l241 300h194l-282 -300h-153z" />
    <glyph glyph-name="thorn" unicode="&#xfe;" horiz-adv-x="1211" 
d="M587 -19q-121 0 -208.5 52t-126.5 140l-121 -573h-151l391 1840h151l-128 -595q131 121 313 121t301.5 -120t119.5 -302q0 -149 -70.5 -278t-195.5 -207t-275 -78zM687 825q-145 0 -252 -98.5t-127 -247.5q-22 -152 58 -254.5t225 -102.5q160 0 272 119.5t112 286.5
q0 129 -78 213t-210 84z" />
    <glyph glyph-name="ydieresis" unicode="&#xff;" horiz-adv-x="1037" 
d="M156 -404h-171l456 626l-322 725h158l259 -593l419 593h169zM453 1343q44 0 75 -31t31 -76t-30.5 -75t-75.5 -30t-75.5 30t-30.5 75t30.5 76t75.5 31zM859 1343q44 0 75 -31t31 -76t-30.5 -75t-75.5 -30t-75 30t-30 75t30 76t75 31z" />
    <glyph glyph-name="Amacron" unicode="&#x100;" horiz-adv-x="1421" 
d="M1277 0h-165l-74 390h-683l-238 -390h-174l863 1400h199zM448 542h561l-132 699zM659 1711h598l-25 -121h-598z" />
    <glyph glyph-name="amacron" unicode="&#x101;" horiz-adv-x="1213" 
d="M626 966q122 0 207.5 -52t127.5 -140l37 173h149l-202 -947h-148l26 121q-133 -140 -331 -140q-177 0 -292.5 120t-115.5 302q0 149 70.5 278t196 207t275.5 78zM526 122q144 0 250.5 98t128.5 248q22 152 -58 254.5t-225 102.5q-160 0 -272 -119.5t-112 -286.5
q0 -129 78 -213t210 -84zM428 1296h598l-25 -121h-598z" />
    <glyph glyph-name="Abreve" unicode="&#x102;" horiz-adv-x="1421" 
d="M1277 0h-165l-74 390h-683l-238 -390h-174l863 1400h199zM448 542h561l-132 699zM755 1818q8 -95 55.5 -143t127.5 -48q152 0 245 191l119 -37q-134 -280 -377 -280q-126 0 -204.5 72.5t-86.5 207.5z" />
    <glyph glyph-name="abreve" unicode="&#x103;" horiz-adv-x="1213" 
d="M626 966q122 0 207.5 -52t127.5 -140l37 173h149l-202 -947h-148l26 121q-133 -140 -331 -140q-177 0 -292.5 120t-115.5 302q0 149 70.5 278t196 207t275.5 78zM526 122q144 0 250.5 98t128.5 248q22 152 -58 254.5t-225 102.5q-160 0 -272 -119.5t-112 -286.5
q0 -129 78 -213t210 -84zM512 1403q8 -95 55.5 -143t127.5 -48q152 0 245 191l119 -37q-134 -280 -377 -280q-126 0 -204.5 72.5t-86.5 207.5z" />
    <glyph glyph-name="Aogonek" unicode="&#x104;" horiz-adv-x="1421" 
d="M1277 0h-165l-74 390h-683l-238 -390h-174l863 1400h199zM448 542h561l-132 699zM1232 -335q-86 -79 -194 -79q-91 0 -147 43.5t-56 118.5q0 95 87 166.5t276 143.5l28 -58q-246 -108 -246 -217q0 -32 21.5 -50.5t57.5 -18.5q55 0 105 48z" />
    <glyph glyph-name="aogonek" unicode="&#x105;" horiz-adv-x="1213" 
d="M626 966q122 0 207.5 -52t127.5 -140l37 173h149l-202 -947h-148l26 121q-133 -140 -331 -140q-177 0 -292.5 120t-115.5 302q0 149 70.5 278t196 207t275.5 78zM526 122q144 0 250.5 98t128.5 248q22 152 -58 254.5t-225 102.5q-160 0 -272 -119.5t-112 -286.5
q0 -129 78 -213t210 -84zM951 -335q-86 -79 -194 -79q-91 0 -147 43.5t-56 118.5q0 95 87 166.5t276 143.5l28 -58q-246 -108 -246 -217q0 -32 21.5 -50.5t57.5 -18.5q55 0 105 48z" />
    <glyph glyph-name="Cacute" unicode="&#x106;" horiz-adv-x="1481" 
d="M1348 219q-101 -115 -235.5 -177t-289.5 -62q-188 0 -339 83t-237 233.5t-86 340.5q0 165 59.5 310t162.5 248.5t246.5 163.5t305.5 60q50 0 100.5 -6t116 -24.5t123 -48t116 -82t100.5 -121.5l-123 -98q-69 114 -188 170t-255 56q-165 0 -301.5 -81t-215.5 -222.5
t-79 -311.5q0 -149 66 -267t181 -183t257 -65q119 0 225.5 49.5t183.5 137.5zM802 1507l241 300h194l-282 -300h-153z" />
    <glyph glyph-name="cacute" unicode="&#x107;" horiz-adv-x="1011" 
d="M877 701q-98 124 -264 124q-156 0 -263.5 -114t-107.5 -274q0 -136 85.5 -225t212.5 -89q151 0 262 106l86 -98q-142 -148 -354 -148q-198 0 -322 126.5t-124 317.5q0 146 68.5 269t191.5 196t272 73q251 0 374 -180zM511 1092l241 300h194l-282 -300h-153z" />
    <glyph glyph-name="Ccircumflex" unicode="&#x108;" horiz-adv-x="1481" 
d="M1348 219q-101 -115 -235.5 -177t-289.5 -62q-188 0 -339 83t-237 233.5t-86 340.5q0 165 59.5 310t162.5 248.5t246.5 163.5t305.5 60q50 0 100.5 -6t116 -24.5t123 -48t116 -82t100.5 -121.5l-123 -98q-69 114 -188 170t-255 56q-165 0 -301.5 -81t-215.5 -222.5
t-79 -311.5q0 -149 66 -267t181 -183t257 -65q119 0 225.5 49.5t183.5 137.5zM1113 1508l-130 197l-209 -197h-168l288 288h200l176 -288h-157z" />
    <glyph glyph-name="ccircumflex" unicode="&#x109;" horiz-adv-x="1011" 
d="M877 701q-98 124 -264 124q-156 0 -263.5 -114t-107.5 -274q0 -136 85.5 -225t212.5 -89q151 0 262 106l86 -98q-142 -148 -354 -148q-198 0 -322 126.5t-124 317.5q0 146 68.5 269t191.5 196t272 73q251 0 374 -180zM813 1093l-130 197l-209 -197h-168l288 288h200
l176 -288h-157z" />
    <glyph glyph-name="Cdotaccent" unicode="&#x10a;" horiz-adv-x="1481" 
d="M1348 219q-101 -115 -235.5 -177t-289.5 -62q-188 0 -339 83t-237 233.5t-86 340.5q0 165 59.5 310t162.5 248.5t246.5 163.5t305.5 60q50 0 100.5 -6t116 -24.5t123 -48t116 -82t100.5 -121.5l-123 -98q-69 114 -188 170t-255 56q-165 0 -301.5 -81t-215.5 -222.5
t-79 -311.5q0 -149 66 -267t181 -183t257 -65q119 0 225.5 49.5t183.5 137.5zM976 1767q47 0 80 -32t33 -79t-32.5 -78.5t-80.5 -31.5q-47 0 -78.5 31.5t-31.5 78.5t31.5 79t78.5 32z" />
    <glyph glyph-name="cdotaccent" unicode="&#x10b;" horiz-adv-x="1011" 
d="M877 701q-98 124 -264 124q-156 0 -263.5 -114t-107.5 -274q0 -136 85.5 -225t212.5 -89q151 0 262 106l86 -98q-142 -148 -354 -148q-198 0 -322 126.5t-124 317.5q0 146 68.5 269t191.5 196t272 73q251 0 374 -180zM684 1389q45 0 76 -30.5t31 -75.5t-31 -75t-76 -30
q-44 0 -74.5 30t-30.5 75t30.5 75.5t74.5 30.5z" />
    <glyph glyph-name="Ccaron" unicode="&#x10c;" horiz-adv-x="1481" 
d="M1348 219q-101 -115 -235.5 -177t-289.5 -62q-188 0 -339 83t-237 233.5t-86 340.5q0 165 59.5 310t162.5 248.5t246.5 163.5t305.5 60q50 0 100.5 -6t116 -24.5t123 -48t116 -82t100.5 -121.5l-123 -98q-69 114 -188 170t-255 56q-165 0 -301.5 -81t-215.5 -222.5
t-79 -311.5q0 -149 66 -267t181 -183t257 -65q119 0 225.5 49.5t183.5 137.5zM835 1794l129 -198l210 198h168l-288 -288h-200l-176 288h157z" />
    <glyph glyph-name="ccaron" unicode="&#x10d;" horiz-adv-x="1011" 
d="M877 701q-98 124 -264 124q-156 0 -263.5 -114t-107.5 -274q0 -136 85.5 -225t212.5 -89q151 0 262 106l86 -98q-142 -148 -354 -148q-198 0 -322 126.5t-124 317.5q0 146 68.5 269t191.5 196t272 73q251 0 374 -180zM523 1379l129 -198l210 198h168l-288 -288h-200
l-176 288h157z" />
    <glyph glyph-name="Dcaron" unicode="&#x10e;" horiz-adv-x="1553" 
d="M850 1400q303 0 475.5 -158t172.5 -427q0 -170 -59.5 -318t-169.5 -258.5t-279 -174.5t-377 -64h-521l298 1400h460zM521 1248l-233 -1096h343q165 0 298.5 50t220 137.5t132.5 205.5t46 255q0 207 -126.5 327.5t-369.5 120.5h-311zM789 1794l129 -198l210 198h168
l-288 -288h-200l-176 288h157z" />
    <glyph glyph-name="dcaron" unicode="&#x10f;" horiz-adv-x="1287" 
d="M625 966q122 0 207.5 -52t127.5 -140l142 666h150l-306 -1440h-149l26 121q-133 -140 -332 -140q-176 0 -291.5 120t-115.5 302q0 149 70.5 278t195.5 207t275 78zM526 122q144 0 250.5 98t128.5 248q22 152 -58 254.5t-225 102.5q-160 0 -272 -119.5t-112 -286.5
q0 -129 78 -213t210 -84zM1302 1051l89 389h166l-131 -389h-124z" />
    <glyph glyph-name="Dcroat" unicode="&#x110;" horiz-adv-x="1708" 
d="M1005 1400q303 0 475.5 -158t172.5 -427q0 -170 -59.5 -318t-169.5 -258.5t-279 -174.5t-377 -64h-521l134 629h-232l33 152h231l132 619h460zM932 629h-387l-102 -477h343q165 0 298.5 50t220 137.5t132.5 205.5t46 255q0 207 -126.5 327.5t-369.5 120.5h-311l-99 -467
h387z" />
    <glyph glyph-name="dcroat" unicode="&#x111;" horiz-adv-x="1213" 
d="M1355 1115h-172l-237 -1115h-149l26 121q-133 -140 -332 -140q-176 0 -291.5 120t-115.5 302q0 149 70.5 278t195.5 207t275 78q122 0 207.5 -52t127.5 -140l72 341h-383l27 136h385l41 189h150l-40 -189h171zM526 122q144 0 250.5 98t128.5 248q22 152 -58 254.5
t-225 102.5q-160 0 -272 -119.5t-112 -286.5q0 -129 78 -213t210 -84z" />
    <glyph glyph-name="Emacron" unicode="&#x112;" horiz-adv-x="1306" 
d="M1163 630h-773l-102 -479h805l-32 -151h-969l298 1400h956l-32 -151h-792l-100 -469h773zM620 1711h598l-25 -121h-598z" />
    <glyph glyph-name="emacron" unicode="&#x113;" horiz-adv-x="1079" 
d="M895 116q-85 -71 -176 -103.5t-207 -32.5q-201 0 -316 115.5t-115 296.5q0 79 21.5 159.5t66.5 155t107.5 132.5t151 92.5t190.5 34.5q176 0 283 -102.5t107 -273.5q0 -89 -29 -169h-746v-23q0 -131 78 -209t217 -78q161 0 292 108zM610 833q-72 0 -133.5 -24t-104 -66
t-72 -92.5t-46.5 -108.5h603q3 22 3 44q0 115 -68.5 181t-181.5 66zM394 1296h598l-25 -121h-598z" />
    <glyph glyph-name="Ebreve" unicode="&#x114;" horiz-adv-x="1306" 
d="M1163 630h-773l-102 -479h805l-32 -151h-969l298 1400h956l-32 -151h-792l-100 -469h773zM716 1818q8 -95 55.5 -143t127.5 -48q152 0 245 191l119 -37q-134 -280 -377 -280q-126 0 -204.5 72.5t-86.5 207.5z" />
    <glyph glyph-name="ebreve" unicode="&#x115;" horiz-adv-x="1079" 
d="M895 116q-85 -71 -176 -103.5t-207 -32.5q-201 0 -316 115.5t-115 296.5q0 79 21.5 159.5t66.5 155t107.5 132.5t151 92.5t190.5 34.5q176 0 283 -102.5t107 -273.5q0 -89 -29 -169h-746v-23q0 -131 78 -209t217 -78q161 0 292 108zM610 833q-72 0 -133.5 -24t-104 -66
t-72 -92.5t-46.5 -108.5h603q3 22 3 44q0 115 -68.5 181t-181.5 66zM478 1403q8 -95 55.5 -143t127.5 -48q152 0 245 191l119 -37q-134 -280 -377 -280q-126 0 -204.5 72.5t-86.5 207.5z" />
    <glyph glyph-name="Edotaccent" unicode="&#x116;" horiz-adv-x="1306" 
d="M1163 630h-773l-102 -479h805l-32 -151h-969l298 1400h956l-32 -151h-792l-100 -469h773zM901 1767q47 0 80 -32t33 -79t-32.5 -78.5t-80.5 -31.5q-47 0 -78.5 31.5t-31.5 78.5t31.5 79t78.5 32z" />
    <glyph glyph-name="edotaccent" unicode="&#x117;" horiz-adv-x="1079" 
d="M895 116q-85 -71 -176 -103.5t-207 -32.5q-201 0 -316 115.5t-115 296.5q0 79 21.5 159.5t66.5 155t107.5 132.5t151 92.5t190.5 34.5q176 0 283 -102.5t107 -273.5q0 -89 -29 -169h-746v-23q0 -131 78 -209t217 -78q161 0 292 108zM610 833q-72 0 -133.5 -24t-104 -66
t-72 -92.5t-46.5 -108.5h603q3 22 3 44q0 115 -68.5 181t-181.5 66zM689 1389q45 0 76 -30.5t31 -75.5t-31 -75t-76 -30q-44 0 -74.5 30t-30.5 75t30.5 75.5t74.5 30.5z" />
    <glyph glyph-name="Eogonek" unicode="&#x118;" horiz-adv-x="1306" 
d="M1163 630h-773l-102 -479h805l-32 -151h-969l298 1400h956l-32 -151h-792l-100 -469h773zM940 11q-223 -91 -223 -207q0 -40 31.5 -65t85.5 -25q76 0 143 50l58 -104q-103 -74 -225 -74q-112 0 -179.5 53t-67.5 135q0 96 83.5 166.5t284.5 128.5z" />
    <glyph glyph-name="eogonek" unicode="&#x119;" horiz-adv-x="1079" 
d="M895 116q-85 -71 -176 -103.5t-207 -32.5q-201 0 -316 115.5t-115 296.5q0 79 21.5 159.5t66.5 155t107.5 132.5t151 92.5t190.5 34.5q176 0 283 -102.5t107 -273.5q0 -89 -29 -169h-746v-23q0 -131 78 -209t217 -78q161 0 292 108zM610 833q-72 0 -133.5 -24t-104 -66
t-72 -92.5t-46.5 -108.5h603q3 22 3 44q0 115 -68.5 181t-181.5 66zM838 -337q-93 -78 -216 -78q-116 0 -188 57.5t-72 146.5q0 91 83 165.5t289 128.5l24 -55q-137 -50 -192.5 -104t-55.5 -112q0 -45 32 -72t89 -27q73 0 140 50z" />
    <glyph glyph-name="Ecaron" unicode="&#x11a;" horiz-adv-x="1306" 
d="M1163 630h-773l-102 -479h805l-32 -151h-969l298 1400h956l-32 -151h-792l-100 -469h773zM760 1794l129 -198l210 198h168l-288 -288h-200l-176 288h157z" />
    <glyph glyph-name="ecaron" unicode="&#x11b;" horiz-adv-x="1079" 
d="M895 116q-85 -71 -176 -103.5t-207 -32.5q-201 0 -316 115.5t-115 296.5q0 79 21.5 159.5t66.5 155t107.5 132.5t151 92.5t190.5 34.5q176 0 283 -102.5t107 -273.5q0 -89 -29 -169h-746v-23q0 -131 78 -209t217 -78q161 0 292 108zM610 833q-72 0 -133.5 -24t-104 -66
t-72 -92.5t-46.5 -108.5h603q3 22 3 44q0 115 -68.5 181t-181.5 66zM528 1379l129 -198l210 198h168l-288 -288h-200l-176 288h157z" />
    <glyph glyph-name="Gcircumflex" unicode="&#x11c;" horiz-adv-x="1612" 
d="M1330 1075q-74 95 -182 142t-225 47q-123 0 -232.5 -47t-189.5 -128.5t-127 -198.5t-47 -250q0 -226 142 -365t366 -139q210 0 348 120.5t178 335.5h-435l31 149h592q0 -29 -4 -61q-39 -312 -236 -505t-489 -193q-188 0 -338.5 81.5t-236.5 228.5t-86 333q0 134 39 256.5
t110 219t166.5 168.5t214.5 110.5t247 38.5q57 0 116.5 -9.5t132 -33t142.5 -72.5t123 -119zM1107 1508l-130 197l-209 -197h-168l288 288h200l176 -288h-157z" />
    <glyph glyph-name="gcircumflex" unicode="&#x11d;" horiz-adv-x="1211" 
d="M957 61q-47 -225 -184.5 -347t-331.5 -122q-249 0 -420 143l85 114q137 -123 337 -123q136 0 236 91t130 244l11 58q-124 -121 -304 -121q-191 0 -310.5 118t-119.5 296q0 150 70.5 277.5t194 202t271.5 74.5q124 0 210 -51.5t127 -141.5l38 174h148zM525 138
q155 0 261 103t118 264q10 138 -70.5 229t-213.5 91q-162 0 -270.5 -114t-108.5 -285q0 -126 79 -207t205 -81zM845 1093l-130 197l-209 -197h-168l288 288h200l176 -288h-157z" />
    <glyph glyph-name="Gbreve" unicode="&#x11e;" horiz-adv-x="1612" 
d="M1330 1075q-74 95 -182 142t-225 47q-123 0 -232.5 -47t-189.5 -128.5t-127 -198.5t-47 -250q0 -226 142 -365t366 -139q210 0 348 120.5t178 335.5h-435l31 149h592q0 -29 -4 -61q-39 -312 -236 -505t-489 -193q-188 0 -338.5 81.5t-236.5 228.5t-86 333q0 134 39 256.5
t110 219t166.5 168.5t214.5 110.5t247 38.5q57 0 116.5 -9.5t132 -33t142.5 -72.5t123 -119zM785 1818q8 -95 55.5 -143t127.5 -48q152 0 245 191l119 -37q-134 -280 -377 -280q-126 0 -204.5 72.5t-86.5 207.5z" />
    <glyph glyph-name="gbreve" unicode="&#x11f;" horiz-adv-x="1211" 
d="M957 61q-47 -225 -184.5 -347t-331.5 -122q-249 0 -420 143l85 114q137 -123 337 -123q136 0 236 91t130 244l11 58q-124 -121 -304 -121q-191 0 -310.5 118t-119.5 296q0 150 70.5 277.5t194 202t271.5 74.5q124 0 210 -51.5t127 -141.5l38 174h148zM525 138
q155 0 261 103t118 264q10 138 -70.5 229t-213.5 91q-162 0 -270.5 -114t-108.5 -285q0 -126 79 -207t205 -81zM505 1403q8 -95 55.5 -143t127.5 -48q152 0 245 191l119 -37q-134 -280 -377 -280q-126 0 -204.5 72.5t-86.5 207.5z" />
    <glyph glyph-name="Gdotaccent" unicode="&#x120;" horiz-adv-x="1612" 
d="M1330 1075q-74 95 -182 142t-225 47q-123 0 -232.5 -47t-189.5 -128.5t-127 -198.5t-47 -250q0 -226 142 -365t366 -139q210 0 348 120.5t178 335.5h-435l31 149h592q0 -29 -4 -61q-39 -312 -236 -505t-489 -193q-188 0 -338.5 81.5t-236.5 228.5t-86 333q0 134 39 256.5
t110 219t166.5 168.5t214.5 110.5t247 38.5q57 0 116.5 -9.5t132 -33t142.5 -72.5t123 -119zM970 1767q47 0 80 -32t33 -79t-32.5 -78.5t-80.5 -31.5q-47 0 -78.5 31.5t-31.5 78.5t31.5 79t78.5 32z" />
    <glyph glyph-name="gdotaccent" unicode="&#x121;" horiz-adv-x="1211" 
d="M957 61q-47 -225 -184.5 -347t-331.5 -122q-249 0 -420 143l85 114q137 -123 337 -123q136 0 236 91t130 244l11 58q-124 -121 -304 -121q-191 0 -310.5 118t-119.5 296q0 150 70.5 277.5t194 202t271.5 74.5q124 0 210 -51.5t127 -141.5l38 174h148zM525 138
q155 0 261 103t118 264q10 138 -70.5 229t-213.5 91q-162 0 -270.5 -114t-108.5 -285q0 -126 79 -207t205 -81zM716 1389q45 0 76 -30.5t31 -75.5t-31 -75t-76 -30q-44 0 -74.5 30t-30.5 75t30.5 75.5t74.5 30.5z" />
    <glyph glyph-name="Gcommaaccent" unicode="&#x122;" horiz-adv-x="1612" 
d="M1330 1075q-74 95 -182 142t-225 47q-123 0 -232.5 -47t-189.5 -128.5t-127 -198.5t-47 -250q0 -226 142 -365t366 -139q210 0 348 120.5t178 335.5h-435l31 149h592q0 -29 -4 -61q-39 -312 -236 -505t-489 -193q-188 0 -338.5 81.5t-236.5 228.5t-86 333q0 134 39 256.5
t110 219t166.5 168.5t214.5 110.5t247 38.5q57 0 116.5 -9.5t132 -33t142.5 -72.5t123 -119zM860 -88l-141 -350h-142l116 350h167z" />
    <glyph glyph-name="gcommaaccent" unicode="&#x123;" horiz-adv-x="1211" 
d="M957 61q-47 -225 -184.5 -347t-331.5 -122q-249 0 -420 143l85 114q137 -123 337 -123q136 0 236 91t130 244l11 58q-124 -121 -304 -121q-191 0 -310.5 118t-119.5 296q0 150 70.5 277.5t194 202t271.5 74.5q124 0 210 -51.5t127 -141.5l38 174h148zM525 138
q155 0 261 103t118 264q10 138 -70.5 229t-213.5 91q-162 0 -270.5 -114t-108.5 -285q0 -126 79 -207t205 -81zM594 1092l141 351h141l-116 -351h-166z" />
    <glyph glyph-name="Hcircumflex" unicode="&#x124;" horiz-adv-x="1546" 
d="M422 781h833l132 619h164l-299 -1400h-164l134 629h-832l-134 -629h-164l298 1400h164zM1145 1508l-130 197l-209 -197h-168l288 288h200l176 -288h-157z" />
    <glyph glyph-name="hcircumflex" unicode="&#x125;" horiz-adv-x="1179" 
d="M704 966q159 0 251 -90t92 -236q0 -54 -11 -104l-115 -536h-150l114 535q10 40 10 82q0 94 -56.5 150.5t-168.5 56.5q-128 0 -220 -79.5t-124 -228.5l-110 -516h-151l307 1440h149l-129 -609q123 135 312 135zM967 1546l-130 197l-209 -197h-168l288 288h200l176 -288
h-157z" />
    <glyph glyph-name="Itilde" unicode="&#x128;" horiz-adv-x="549" 
d="M256 0h-164l298 1400h164zM151 1652q52 57 105.5 82.5t121.5 25.5q60 0 107 -20t82.5 -39.5t66.5 -19.5q68 0 141 68l85 -89q-54 -57 -106.5 -82.5t-120.5 -25.5q-58 0 -104.5 20t-83 40t-69.5 20q-66 0 -140 -69z" />
    <glyph glyph-name="itilde" unicode="&#x129;" horiz-adv-x="484" 
d="M216 0h-151l202 947h151zM31 1237q52 57 105.5 82.5t121.5 25.5q47 0 87.5 -12.5t63.5 -27t51 -27t54 -12.5q68 0 141 68l85 -89q-54 -57 -106.5 -82.5t-120.5 -25.5q-58 0 -104.5 20t-83 40t-69.5 20q-66 0 -140 -69z" />
    <glyph glyph-name="Imacron" unicode="&#x12a;" horiz-adv-x="549" 
d="M256 0h-164l298 1400h164zM225 1711h598l-25 -121h-598z" />
    <glyph glyph-name="imacron" unicode="&#x12b;" horiz-adv-x="484" 
d="M216 0h-151l202 947h151zM117 1296h598l-25 -121h-598z" />
    <glyph glyph-name="Ibreve" unicode="&#x12c;" horiz-adv-x="549" 
d="M256 0h-164l298 1400h164zM321 1818q8 -95 55.5 -143t127.5 -48q152 0 245 191l119 -37q-134 -280 -377 -280q-126 0 -204.5 72.5t-86.5 207.5z" />
    <glyph glyph-name="ibreve" unicode="&#x12d;" horiz-adv-x="484" 
d="M216 0h-151l202 947h151zM201 1403q8 -95 55.5 -143t127.5 -48q152 0 245 191l119 -37q-134 -280 -377 -280q-126 0 -204.5 72.5t-86.5 207.5z" />
    <glyph glyph-name="Iogonek" unicode="&#x12e;" horiz-adv-x="549" 
d="M256 0h-164l298 1400h164zM333 -342q-79 -71 -181 -71q-94 0 -154 46.5t-60 122.5q0 81 61.5 149.5t220.5 149.5l36 -55q-175 -117 -175 -215q0 -32 22.5 -51.5t61.5 -19.5q52 0 100 45z" />
    <glyph glyph-name="iogonek" unicode="&#x12f;" horiz-adv-x="484" 
d="M293 -342q-79 -71 -181 -71q-94 0 -154 46.5t-60 122.5q0 81 61.5 149.5t220.5 149.5l36 -55q-175 -117 -175 -215q0 -32 22.5 -51.5t61.5 -19.5q52 0 100 45zM216 0h-151l202 947h151zM412 1389q45 0 76 -30.5t31 -75.5t-31 -75t-76 -30q-44 0 -74.5 30t-30.5 75
t30.5 75.5t74.5 30.5z" />
    <glyph glyph-name="Idotaccent" unicode="&#x130;" horiz-adv-x="549" 
d="M256 0h-164l298 1400h164zM506 1767q47 0 80 -32t33 -79t-32.5 -78.5t-80.5 -31.5q-47 0 -78.5 31.5t-31.5 78.5t31.5 79t78.5 32z" />
    <glyph glyph-name="dotlessi" unicode="&#x131;" horiz-adv-x="484" 
d="M216 0h-151l202 947h151z" />
    <glyph glyph-name="Kcommaaccent" unicode="&#x136;" horiz-adv-x="1351" 
d="M422 780h147l668 620h216l-762 -694l554 -706h-195l-490 628h-171l-133 -628h-164l298 1400h164zM716 -88l-141 -350h-142l116 350h167z" />
    <glyph glyph-name="kcommaaccent" unicode="&#x137;" horiz-adv-x="1028" 
d="M335 563h130l412 384h195l-504 -461l334 -486h-169l-286 427h-141l-90 -427h-151l306 1440h151zM538 -88l-141 -350h-142l116 350h167z" />
    <glyph glyph-name="Lacute" unicode="&#x139;" horiz-adv-x="1184" 
d="M288 152h789l-33 -152h-952l298 1400h164zM332 1507l241 300h194l-282 -300h-153z" />
    <glyph glyph-name="lacute" unicode="&#x13a;" horiz-adv-x="483" 
d="M216 0h-151l306 1440h151zM298 1507l241 300h194l-282 -300h-153z" />
    <glyph glyph-name="Lcommaaccent" unicode="&#x13b;" horiz-adv-x="1184" 
d="M288 152h789l-33 -152h-952l298 1400h164zM670 -88l-141 -350h-142l116 350h167z" />
    <glyph glyph-name="lcommaaccent" unicode="&#x13c;" horiz-adv-x="483" 
d="M216 0h-151l306 1440h151zM216 -88l-141 -350h-142l116 350h167z" />
    <glyph glyph-name="Lcaron" unicode="&#x13d;" horiz-adv-x="1184" 
d="M288 152h789l-33 -152h-952l298 1400h164zM714 1012l89 389h166l-131 -389h-124z" />
    <glyph glyph-name="lcaron" unicode="&#x13e;" horiz-adv-x="557" 
d="M216 0h-151l306 1440h151zM572 1051l89 389h166l-131 -389h-124z" />
    <glyph glyph-name="Ldot" unicode="&#x13f;" horiz-adv-x="1184" 
d="M288 152h789l-33 -152h-952l298 1400h164zM885 818q47 0 80 -32t33 -79t-32.5 -78.5t-80.5 -31.5q-47 0 -78.5 31.5t-31.5 78.5t31.5 79t78.5 32z" />
    <glyph glyph-name="ldot" unicode="&#x140;" horiz-adv-x="601" 
d="M216 0h-151l306 1440h151zM593 837q45 0 76 -30.5t31 -75.5t-31 -75t-76 -30q-44 0 -74.5 30t-30.5 75t30.5 75.5t74.5 30.5z" />
    <glyph glyph-name="Lslash" unicode="&#x141;" horiz-adv-x="1326" 
d="M564 782l518 259l-38 -179l-518 -259l-96 -451h789l-33 -152h-952l109 511l-245 -122l38 179l245 122l151 710h164z" />
    <glyph glyph-name="lslash" unicode="&#x142;" horiz-adv-x="652" 
d="M480 887l240 140l-35 -164l-240 -140l-153 -723h-151l132 622l-219 -128l35 164l219 128l139 654h151z" />
    <glyph glyph-name="Nacute" unicode="&#x143;" horiz-adv-x="1548" 
d="M1254 0h-149l-605 1147l-245 -1147h-163l298 1400h151l604 -1147l244 1147h164zM820 1507l241 300h194l-282 -300h-153z" />
    <glyph glyph-name="nacute" unicode="&#x144;" horiz-adv-x="1179" 
d="M704 966q159 0 251 -90t92 -236q0 -54 -11 -104l-115 -536h-150l114 535q10 40 10 82q0 94 -57 150.5t-169 56.5q-128 0 -220 -79.5t-124 -228.5l-110 -516h-150l202 947h149l-25 -118q123 137 313 137zM581 1092l241 300h194l-282 -300h-153z" />
    <glyph glyph-name="Ncommaaccent" unicode="&#x145;" horiz-adv-x="1548" 
d="M1254 0h-149l-605 1147l-245 -1147h-163l298 1400h151l604 -1147l244 1147h164zM771 -88l-141 -350h-142l116 350h167z" />
    <glyph glyph-name="ncommaaccent" unicode="&#x146;" horiz-adv-x="1179" 
d="M704 966q159 0 251 -90t92 -236q0 -54 -11 -104l-115 -536h-150l114 535q10 40 10 82q0 94 -57 150.5t-169 56.5q-128 0 -220 -79.5t-124 -228.5l-110 -516h-150l202 947h149l-25 -118q123 137 313 137zM568 -88l-141 -350h-142l116 350h167z" />
    <glyph glyph-name="Ncaron" unicode="&#x147;" horiz-adv-x="1548" 
d="M1254 0h-149l-605 1147l-245 -1147h-163l298 1400h151l604 -1147l244 1147h164zM853 1794l129 -198l210 198h168l-288 -288h-200l-176 288h157z" />
    <glyph glyph-name="ncaron" unicode="&#x148;" horiz-adv-x="1179" 
d="M704 966q159 0 251 -90t92 -236q0 -54 -11 -104l-115 -536h-150l114 535q10 40 10 82q0 94 -57 150.5t-169 56.5q-128 0 -220 -79.5t-124 -228.5l-110 -516h-150l202 947h149l-25 -118q123 137 313 137zM593 1379l129 -198l210 198h168l-288 -288h-200l-176 288h157z" />
    <glyph glyph-name="napostrophe" unicode="&#x149;" horiz-adv-x="1454" 
d="M561 1440l-203 -507h-138l167 507h174zM979 966q159 0 251 -90t92 -236q0 -54 -11 -104l-115 -536h-150l114 535q10 40 10 82q0 94 -57 150.5t-169 56.5q-128 0 -220 -79.5t-124 -228.5l-110 -516h-150l202 947h149l-25 -118q123 137 313 137z" />
    <glyph glyph-name="Omacron" unicode="&#x14c;" horiz-adv-x="1663" 
d="M934 1419q188 0 339 -79t239.5 -227.5t88.5 -340.5q0 -214 -98.5 -395t-277 -289t-399.5 -108q-188 0 -339.5 79t-239.5 227.5t-88 341.5q0 159 58 304t159 252.5t246.5 171t311.5 63.5zM921 1265q-128 0 -240 -51t-189 -137t-121 -199.5t-44 -237.5q0 -228 144 -366.5
t368 -138.5q128 0 240 51t189 136.5t121 199.5t44 238q0 151 -67 266.5t-183 177t-262 61.5zM709 1711h598l-25 -121h-598z" />
    <glyph glyph-name="omacron" unicode="&#x14d;" horiz-adv-x="1170" 
d="M626 966q202 0 329.5 -126t127.5 -319q0 -146 -70 -270t-194.5 -197.5t-274.5 -73.5q-201 0 -328.5 126t-127.5 320q0 146 69.5 269.5t194 197t274.5 73.5zM614 826q-157 0 -265 -115t-108 -276q0 -137 87.5 -225.5t224.5 -88.5q160 0 268.5 114.5t108.5 275.5
q0 138 -88 226.5t-228 88.5zM421 1296h598l-25 -121h-598z" />
    <glyph glyph-name="Obreve" unicode="&#x14e;" horiz-adv-x="1663" 
d="M934 1419q188 0 339 -79t239.5 -227.5t88.5 -340.5q0 -214 -98.5 -395t-277 -289t-399.5 -108q-188 0 -339.5 79t-239.5 227.5t-88 341.5q0 159 58 304t159 252.5t246.5 171t311.5 63.5zM921 1265q-128 0 -240 -51t-189 -137t-121 -199.5t-44 -237.5q0 -228 144 -366.5
t368 -138.5q128 0 240 51t189 136.5t121 199.5t44 238q0 151 -67 266.5t-183 177t-262 61.5zM805 1818q8 -95 55.5 -143t127.5 -48q152 0 245 191l119 -37q-134 -280 -377 -280q-126 0 -204.5 72.5t-86.5 207.5z" />
    <glyph glyph-name="obreve" unicode="&#x14f;" horiz-adv-x="1170" 
d="M626 966q202 0 329.5 -126t127.5 -319q0 -146 -70 -270t-194.5 -197.5t-274.5 -73.5q-201 0 -328.5 126t-127.5 320q0 146 69.5 269.5t194 197t274.5 73.5zM614 826q-157 0 -265 -115t-108 -276q0 -137 87.5 -225.5t224.5 -88.5q160 0 268.5 114.5t108.5 275.5
q0 138 -88 226.5t-228 88.5zM505 1403q8 -95 55.5 -143t127.5 -48q152 0 245 191l119 -37q-134 -280 -377 -280q-126 0 -204.5 72.5t-86.5 207.5z" />
    <glyph glyph-name="Ohungarumlaut" unicode="&#x150;" horiz-adv-x="1663" 
d="M934 1419q188 0 339 -79t239.5 -227.5t88.5 -340.5q0 -214 -98.5 -395t-277 -289t-399.5 -108q-188 0 -339.5 79t-239.5 227.5t-88 341.5q0 159 58 304t159 252.5t246.5 171t311.5 63.5zM921 1265q-128 0 -240 -51t-189 -137t-121 -199.5t-44 -237.5q0 -228 144 -366.5
t368 -138.5q128 0 240 51t189 136.5t121 199.5t44 238q0 151 -67 266.5t-183 177t-262 61.5zM1045 1507l248 300h179l-272 -300h-155zM701 1507l233 300h174l-250 -300h-157z" />
    <glyph glyph-name="ohungarumlaut" unicode="&#x151;" horiz-adv-x="1170" 
d="M626 966q202 0 329.5 -126t127.5 -319q0 -146 -70 -270t-194.5 -197.5t-274.5 -73.5q-201 0 -328.5 126t-127.5 320q0 146 69.5 269.5t194 197t274.5 73.5zM614 826q-157 0 -265 -115t-108 -276q0 -137 87.5 -225.5t224.5 -88.5q160 0 268.5 114.5t108.5 275.5
q0 138 -88 226.5t-228 88.5zM748 1092l248 300h179l-272 -300h-155zM404 1092l233 300h174l-250 -300h-157z" />
    <glyph glyph-name="OE" unicode="&#x152;" horiz-adv-x="2186" 
d="M2043 630h-773l-102 -479h805l-32 -151h-1142q-302 0 -475 158.5t-173 426.5q0 170 59.5 318t169.5 258.5t279.5 174.5t377.5 64h1189l-32 -151h-792l-100 -469h773zM321 600q0 -207 126.5 -327.5t369.5 -120.5h187l233 1096h-218q-166 0 -299.5 -50t-220 -137.5
t-132.5 -205.5t-46 -255z" />
    <glyph glyph-name="oe" unicode="&#x153;" horiz-adv-x="1914" 
d="M1730 116q-84 -70 -175 -103t-207 -33q-137 0 -234 58.5t-144 160.5q-73 -102 -183.5 -160.5t-242.5 -58.5q-201 0 -328.5 126t-127.5 320q0 146 69.5 269.5t194 197t274.5 73.5q136 0 240.5 -64t157.5 -175q69 110 178 174.5t251 64.5q177 0 283.5 -102.5t106.5 -273.5
q0 -94 -29 -169h-746v-23q0 -131 78.5 -209t217.5 -78q160 0 291 108zM614 826q-157 0 -265 -115t-108 -276q0 -137 87.5 -225.5t224.5 -88.5q160 0 268.5 114.5t108.5 275.5q0 138 -88 226.5t-228 88.5zM1446 833q-139 0 -230 -83.5t-127 -207.5h603q3 22 3 44
q0 115 -68 181t-181 66z" />
    <glyph glyph-name="Racute" unicode="&#x154;" horiz-adv-x="1326" 
d="M891 1400q207 0 322 -95.5t115 -249.5q0 -55 -13 -107.5t-39.5 -103t-70.5 -92.5t-101.5 -74.5t-138 -50.5t-175.5 -18h-64l445 -609h-192l-431 609h-163l-129 -609h-164l298 1400h501zM521 1248l-105 -493h379q97 0 169.5 22.5t114 63t61 89.5t19.5 108q0 97 -73 153.5
t-211 56.5h-354zM680 1507l241 300h194l-282 -300h-153z" />
    <glyph glyph-name="racute" unicode="&#x155;" horiz-adv-x="804" 
d="M392 836q115 130 290 130q96 0 169 -39l-57 -141q-59 38 -146 38q-118 0 -204 -79t-119 -232l-110 -513h-150l202 947h149zM440 1092l241 300h194l-282 -300h-153z" />
    <glyph glyph-name="Rcommaaccent" unicode="&#x156;" horiz-adv-x="1326" 
d="M891 1400q207 0 322 -95.5t115 -249.5q0 -55 -13 -107.5t-39.5 -103t-70.5 -92.5t-101.5 -74.5t-138 -50.5t-175.5 -18h-64l445 -609h-192l-431 609h-163l-129 -609h-164l298 1400h501zM521 1248l-105 -493h379q97 0 169.5 22.5t114 63t61 89.5t19.5 108q0 97 -73 153.5
t-211 56.5h-354zM690 -88l-141 -350h-142l116 350h167z" />
    <glyph glyph-name="rcommaaccent" unicode="&#x157;" horiz-adv-x="804" 
d="M392 836q115 130 290 130q96 0 169 -39l-57 -141q-59 38 -146 38q-118 0 -204 -79t-119 -232l-110 -513h-150l202 947h149zM216 -88l-141 -350h-142l116 350h167z" />
    <glyph glyph-name="Rcaron" unicode="&#x158;" horiz-adv-x="1326" 
d="M891 1400q207 0 322 -95.5t115 -249.5q0 -55 -13 -107.5t-39.5 -103t-70.5 -92.5t-101.5 -74.5t-138 -50.5t-175.5 -18h-64l445 -609h-192l-431 609h-163l-129 -609h-164l298 1400h501zM521 1248l-105 -493h379q97 0 169.5 22.5t114 63t61 89.5t19.5 108q0 97 -73 153.5
t-211 56.5h-354zM713 1794l129 -198l210 198h168l-288 -288h-200l-176 288h157z" />
    <glyph glyph-name="rcaron" unicode="&#x159;" horiz-adv-x="804" 
d="M392 836q115 130 290 130q96 0 169 -39l-57 -141q-59 38 -146 38q-118 0 -204 -79t-119 -232l-110 -513h-150l202 947h149zM452 1379l129 -198l210 198h168l-288 -288h-200l-176 288h157z" />
    <glyph glyph-name="Sacute" unicode="&#x15a;" horiz-adv-x="1324" 
d="M1217 1126q-202 141 -448 141q-92 0 -163 -23t-111.5 -62t-61 -84t-20.5 -94q0 -89 64.5 -141t198.5 -76l119 -21q401 -71 401 -353q0 -189 -153 -311t-414 -122q-130 0 -284.5 45t-270.5 144l96 130q93 -85 226 -125.5t240 -40.5q179 0 285.5 74t106.5 188
q0 87 -71 139.5t-217 77.5l-122 21q-178 31 -276.5 120t-98.5 230q0 66 20 128t63 118t105 98t151.5 67t196.5 25q305 0 528 -163zM671 1507l241 300h194l-282 -300h-153z" />
    <glyph glyph-name="sacute" unicode="&#x15b;" horiz-adv-x="953" 
d="M844 746q-56 38 -143 63.5t-170 25.5q-100 0 -163 -36t-71 -100q-8 -66 34.5 -101t133.5 -48l85 -13q154 -24 224.5 -95t57.5 -181q-14 -127 -124.5 -203t-282.5 -76q-109 0 -222 35t-191 95l83 111q139 -111 328 -111q111 0 179.5 38t76.5 109q12 117 -170 144l-87 13
q-154 23 -223 95t-57 180q16 130 121 202t269 72q238 0 390 -105zM463 1092l241 300h194l-282 -300h-153z" />
    <glyph glyph-name="Scircumflex" unicode="&#x15c;" horiz-adv-x="1324" 
d="M1217 1126q-202 141 -448 141q-92 0 -163 -23t-111.5 -62t-61 -84t-20.5 -94q0 -89 64.5 -141t198.5 -76l119 -21q401 -71 401 -353q0 -189 -153 -311t-414 -122q-130 0 -284.5 45t-270.5 144l96 130q93 -85 226 -125.5t240 -40.5q179 0 285.5 74t106.5 188
q0 87 -71 139.5t-217 77.5l-122 21q-178 31 -276.5 120t-98.5 230q0 66 20 128t63 118t105 98t151.5 67t196.5 25q305 0 528 -163zM982 1508l-130 197l-209 -197h-168l288 288h200l176 -288h-157z" />
    <glyph glyph-name="scircumflex" unicode="&#x15d;" horiz-adv-x="953" 
d="M844 746q-56 38 -143 63.5t-170 25.5q-100 0 -163 -36t-71 -100q-8 -66 34.5 -101t133.5 -48l85 -13q154 -24 224.5 -95t57.5 -181q-14 -127 -124.5 -203t-282.5 -76q-109 0 -222 35t-191 95l83 111q139 -111 328 -111q111 0 179.5 38t76.5 109q12 117 -170 144l-87 13
q-154 23 -223 95t-57 180q16 130 121 202t269 72q238 0 390 -105zM765 1093l-130 197l-209 -197h-168l288 288h200l176 -288h-157z" />
    <glyph glyph-name="Scedilla" unicode="&#x15e;" horiz-adv-x="1324" 
d="M582 -323h-175l179 329l161 -1zM1217 1126q-202 141 -448 141q-92 0 -163 -23t-111.5 -62t-61 -84t-20.5 -94q0 -89 64.5 -141t198.5 -76l119 -21q401 -71 401 -353q0 -189 -153 -311t-414 -122q-130 0 -284.5 45t-270.5 144l96 130q93 -85 226 -125.5t240 -40.5
q179 0 285.5 74t106.5 188q0 87 -71 139.5t-217 77.5l-122 21q-178 31 -276.5 120t-98.5 230q0 66 20 128t63 118t105 98t151.5 67t196.5 25q305 0 528 -163z" />
    <glyph glyph-name="scedilla" unicode="&#x15f;" horiz-adv-x="953" 
d="M844 746q-56 38 -143 63.5t-170 25.5q-100 0 -163 -36t-71 -100q-8 -66 34.5 -101t133.5 -48l85 -13q154 -24 224.5 -95t57.5 -181q-14 -127 -124.5 -203t-282.5 -76q-109 0 -222 35t-191 95l83 111q139 -111 328 -111q111 0 179.5 38t76.5 109q12 117 -170 144l-87 13
q-154 23 -223 95t-57 180q16 130 121 202t269 72q238 0 390 -105zM347 -323h-168l179 329l154 -1z" />
    <glyph glyph-name="Scaron" unicode="&#x160;" horiz-adv-x="1324" 
d="M1217 1126q-202 141 -448 141q-92 0 -163 -23t-111.5 -62t-61 -84t-20.5 -94q0 -89 64.5 -141t198.5 -76l119 -21q401 -71 401 -353q0 -189 -153 -311t-414 -122q-130 0 -284.5 45t-270.5 144l96 130q93 -85 226 -125.5t240 -40.5q179 0 285.5 74t106.5 188
q0 87 -71 139.5t-217 77.5l-122 21q-178 31 -276.5 120t-98.5 230q0 66 20 128t63 118t105 98t151.5 67t196.5 25q305 0 528 -163zM704 1794l129 -198l210 198h168l-288 -288h-200l-176 288h157z" />
    <glyph glyph-name="scaron" unicode="&#x161;" horiz-adv-x="953" 
d="M844 746q-56 38 -143 63.5t-170 25.5q-100 0 -163 -36t-71 -100q-8 -66 34.5 -101t133.5 -48l85 -13q154 -24 224.5 -95t57.5 -181q-14 -127 -124.5 -203t-282.5 -76q-109 0 -222 35t-191 95l83 111q139 -111 328 -111q111 0 179.5 38t76.5 109q12 117 -170 144l-87 13
q-154 23 -223 95t-57 180q16 130 121 202t269 72q238 0 390 -105zM475 1379l129 -198l210 198h168l-288 -288h-200l-176 288h157z" />
    <glyph glyph-name="Tcommaaccent" unicode="&#x162;" horiz-adv-x="1187" 
d="M413 -323h-175l179 329l161 -1zM1313 1248h-469l-265 -1248h-164l265 1248h-477l33 152h1109z" />
    <glyph glyph-name="tcommaaccent" unicode="&#x163;" horiz-adv-x="890" 
d="M868 812h-393l-97 -461q-24 -113 19 -171.5t129 -58.5q101 0 200 68l62 -115q-126 -93 -279 -93q-163 0 -241.5 98t-39.5 276l97 457h-203l29 135h203l64 301h150l-64 -301h393zM386 -323h-168l179 329l154 -1z" />
    <glyph glyph-name="Tcaron" unicode="&#x164;" horiz-adv-x="1187" 
d="M1313 1248h-469l-265 -1248h-164l265 1248h-477l33 152h1109zM688 1794l129 -198l210 198h168l-288 -288h-200l-176 288h157z" />
    <glyph glyph-name="tcaron" unicode="&#x165;" horiz-adv-x="890" 
d="M868 812h-393l-97 -461q-24 -113 19 -171.5t129 -58.5q101 0 200 68l62 -115q-126 -93 -279 -93q-163 0 -241.5 98t-39.5 276l97 457h-203l29 135h203l64 301h150l-64 -301h393zM647 1051l89 389h166l-131 -389h-124z" />
    <glyph glyph-name="Utilde" unicode="&#x168;" horiz-adv-x="1471" 
d="M1312 540q-62 -288 -229.5 -423.5t-419.5 -135.5q-82 0 -154.5 16t-134 50.5t-106 84.5t-69.5 121t-25 157q0 70 18 151l179 839h164l-179 -835q-14 -60 -14 -129q0 -153 92 -227t248 -74q177 0 301 102.5t168 315.5l180 847h164zM612 1652q52 57 105.5 82.5t121.5 25.5
q60 0 107 -20t82.5 -39.5t66.5 -19.5q68 0 141 68l85 -89q-54 -57 -106.5 -82.5t-120.5 -25.5q-58 0 -104.5 20t-83 40t-69.5 20q-66 0 -140 -69z" />
    <glyph glyph-name="utilde" unicode="&#x169;" horiz-adv-x="1166" 
d="M992 389q-44 -204 -176.5 -306t-317.5 -102q-161 0 -263.5 87.5t-102.5 243.5q0 50 12 108l113 527h151l-114 -534q-10 -41 -10 -85q0 -104 63.5 -155.5t168.5 -51.5q122 0 211.5 75t119.5 219l113 532h150zM369 1237q52 57 105.5 82.5t121.5 25.5q47 0 87.5 -12.5
t63.5 -27t51 -27t54 -12.5q68 0 141 68l85 -89q-54 -57 -106.5 -82.5t-120.5 -25.5q-58 0 -104.5 20t-83 40t-69.5 20q-66 0 -140 -69z" />
    <glyph glyph-name="Umacron" unicode="&#x16a;" horiz-adv-x="1471" 
d="M1312 540q-62 -288 -229.5 -423.5t-419.5 -135.5q-82 0 -154.5 16t-134 50.5t-106 84.5t-69.5 121t-25 157q0 70 18 151l179 839h164l-179 -835q-14 -60 -14 -129q0 -153 92 -227t248 -74q177 0 301 102.5t168 315.5l180 847h164zM686 1711h598l-25 -121h-598z" />
    <glyph glyph-name="umacron" unicode="&#x16b;" horiz-adv-x="1166" 
d="M992 389q-44 -204 -176.5 -306t-317.5 -102q-161 0 -263.5 87.5t-102.5 243.5q0 50 12 108l113 527h151l-114 -534q-10 -41 -10 -85q0 -104 63.5 -155.5t168.5 -51.5q122 0 211.5 75t119.5 219l113 532h150zM455 1296h598l-25 -121h-598z" />
    <glyph glyph-name="Ubreve" unicode="&#x16c;" horiz-adv-x="1471" 
d="M1312 540q-62 -288 -229.5 -423.5t-419.5 -135.5q-82 0 -154.5 16t-134 50.5t-106 84.5t-69.5 121t-25 157q0 70 18 151l179 839h164l-179 -835q-14 -60 -14 -129q0 -153 92 -227t248 -74q177 0 301 102.5t168 315.5l180 847h164zM782 1818q8 -95 55.5 -143t127.5 -48
q152 0 245 191l119 -37q-134 -280 -377 -280q-126 0 -204.5 72.5t-86.5 207.5z" />
    <glyph glyph-name="ubreve" unicode="&#x16d;" horiz-adv-x="1166" 
d="M992 389q-44 -204 -176.5 -306t-317.5 -102q-161 0 -263.5 87.5t-102.5 243.5q0 50 12 108l113 527h151l-114 -534q-10 -41 -10 -85q0 -104 63.5 -155.5t168.5 -51.5q122 0 211.5 75t119.5 219l113 532h150zM539 1403q8 -95 55.5 -143t127.5 -48q152 0 245 191l119 -37
q-134 -280 -377 -280q-126 0 -204.5 72.5t-86.5 207.5z" />
    <glyph glyph-name="Uring" unicode="&#x16e;" horiz-adv-x="1471" 
d="M1312 540q-62 -288 -229.5 -423.5t-419.5 -135.5q-82 0 -154.5 16t-134 50.5t-106 84.5t-69.5 121t-25 157q0 70 18 151l179 839h164l-179 -835q-14 -60 -14 -129q0 -153 92 -227t248 -74q177 0 301 102.5t168 315.5l180 847h164zM963 1487q-93 0 -160 66t-67 159
t67 158.5t160 65.5q94 0 161 -65.5t67 -158.5t-67 -159t-161 -66zM963 1582q53 0 90.5 38t37.5 92t-37.5 91.5t-90.5 37.5t-90 -37.5t-37 -91.5q0 -55 37 -92.5t90 -37.5z" />
    <glyph glyph-name="uring" unicode="&#x16f;" horiz-adv-x="1166" 
d="M992 389q-44 -204 -176.5 -306t-317.5 -102q-161 0 -263.5 87.5t-102.5 243.5q0 50 12 108l113 527h151l-114 -534q-10 -41 -10 -85q0 -104 63.5 -155.5t168.5 -51.5q122 0 211.5 75t119.5 219l113 532h150zM717 1072q-93 0 -160 66t-67 159t67 158.5t160 65.5
q94 0 161 -65.5t67 -158.5t-67 -159t-161 -66zM717 1167q53 0 90.5 38t37.5 92t-37.5 91.5t-90.5 37.5t-90 -37.5t-37 -91.5q0 -55 37 -92.5t90 -37.5z" />
    <glyph glyph-name="Uhungarumlaut" unicode="&#x170;" horiz-adv-x="1471" 
d="M1312 540q-62 -288 -229.5 -423.5t-419.5 -135.5q-82 0 -154.5 16t-134 50.5t-106 84.5t-69.5 121t-25 157q0 70 18 151l179 839h164l-179 -835q-14 -60 -14 -129q0 -153 92 -227t248 -74q177 0 301 102.5t168 315.5l180 847h164zM1022 1507l248 300h179l-272 -300h-155z
M678 1507l233 300h174l-250 -300h-157z" />
    <glyph glyph-name="uhungarumlaut" unicode="&#x171;" horiz-adv-x="1166" 
d="M992 389q-44 -204 -176.5 -306t-317.5 -102q-161 0 -263.5 87.5t-102.5 243.5q0 50 12 108l113 527h151l-114 -534q-10 -41 -10 -85q0 -104 63.5 -155.5t168.5 -51.5q122 0 211.5 75t119.5 219l113 532h150zM782 1092l248 300h179l-272 -300h-155zM438 1092l233 300h174
l-250 -300h-157z" />
    <glyph glyph-name="Uogonek" unicode="&#x172;" horiz-adv-x="1471" 
d="M1312 540q-62 -288 -229.5 -423.5t-419.5 -135.5q-82 0 -154.5 16t-134 50.5t-106 84.5t-69.5 121t-25 157q0 70 18 151l179 839h164l-179 -835q-14 -60 -14 -129q0 -153 92 -227t248 -74q177 0 301 102.5t168 315.5l180 847h164zM1055 -337q-93 -78 -216 -78
q-116 0 -188 55.5t-72 141.5q0 98 80.5 169t282.5 133l15 -45q-230 -101 -230 -230q0 -43 32.5 -69.5t88.5 -26.5q73 0 140 50z" />
    <glyph glyph-name="uogonek" unicode="&#x173;" horiz-adv-x="1166" 
d="M992 389q-44 -204 -176.5 -306t-317.5 -102q-161 0 -263.5 87.5t-102.5 243.5q0 50 12 108l113 527h151l-114 -534q-10 -41 -10 -85q0 -104 63.5 -155.5t168.5 -51.5q122 0 211.5 75t119.5 219l113 532h150zM847 -337q-93 -78 -216 -78q-116 0 -188 55.5t-72 141.5
q0 98 80.5 169t282.5 133l15 -45q-230 -101 -230 -230q0 -43 32.5 -69.5t88.5 -26.5q73 0 140 50z" />
    <glyph glyph-name="Ydieresis" unicode="&#x178;" horiz-adv-x="1274" 
d="M741 585l-124 -585h-164l127 601l-370 799h173l303 -657l569 657h203zM661 1758q44 0 75 -31t31 -76t-30.5 -75t-75.5 -30t-75.5 30t-30.5 75t30.5 76t75.5 31zM1067 1758q44 0 75 -31t31 -76t-30.5 -75t-75.5 -30t-75 30t-30 75t30 76t75 31z" />
    <glyph glyph-name="Zacute" unicode="&#x179;" horiz-adv-x="1305" 
d="M1342 1272l-1049 -1120h848l-33 -152h-1062l29 135l1046 1113h-840l32 152h1056zM676 1507l241 300h194l-282 -300h-153z" />
    <glyph glyph-name="zacute" unicode="&#x17a;" horiz-adv-x="1017" 
d="M968 834l-708 -699h585l-28 -135h-788l24 117l714 695h-579l29 135h776zM478 1092l241 300h194l-282 -300h-153z" />
    <glyph glyph-name="Zdotaccent" unicode="&#x17b;" horiz-adv-x="1305" 
d="M1342 1272l-1049 -1120h848l-33 -152h-1062l29 135l1046 1113h-840l32 152h1056zM850 1767q47 0 80 -32t33 -79t-32.5 -78.5t-80.5 -31.5q-47 0 -78.5 31.5t-31.5 78.5t31.5 79t78.5 32z" />
    <glyph glyph-name="zdotaccent" unicode="&#x17c;" horiz-adv-x="1017" 
d="M968 834l-708 -699h585l-28 -135h-788l24 117l714 695h-579l29 135h776zM651 1389q45 0 76 -30.5t31 -75.5t-31 -75t-76 -30q-44 0 -74.5 30t-30.5 75t30.5 75.5t74.5 30.5z" />
    <glyph glyph-name="Zcaron" unicode="&#x17d;" horiz-adv-x="1305" 
d="M1342 1272l-1049 -1120h848l-33 -152h-1062l29 135l1046 1113h-840l32 152h1056zM709 1794l129 -198l210 198h168l-288 -288h-200l-176 288h157z" />
    <glyph glyph-name="zcaron" unicode="&#x17e;" horiz-adv-x="1017" 
d="M968 834l-708 -699h585l-28 -135h-788l24 117l714 695h-579l29 135h776zM490 1379l129 -198l210 198h168l-288 -288h-200l-176 288h157z" />
    <glyph glyph-name="longs" unicode="&#x17f;" horiz-adv-x="632" 
d="M811 1264q-73 55 -166 55q-74 0 -125.5 -50.5t-74.5 -153.5l-237 -1115h-151l242 1135q33 157 121 240.5t226 83.5q142 0 238 -79z" />
    <glyph glyph-name="Scommaaccent" unicode="&#x218;" horiz-adv-x="1324" 
d="M1217 1126q-202 141 -448 141q-92 0 -163 -23t-111.5 -62t-61 -84t-20.5 -94q0 -89 64.5 -141t198.5 -76l119 -21q401 -71 401 -353q0 -189 -153 -311t-414 -122q-130 0 -284.5 45t-270.5 144l96 130q93 -85 226 -125.5t240 -40.5q179 0 285.5 74t106.5 188
q0 87 -71 139.5t-217 77.5l-122 21q-178 31 -276.5 120t-98.5 230q0 66 20 128t63 118t105 98t151.5 67t196.5 25q305 0 528 -163zM737 -88l-141 -350h-142l116 350h167z" />
    <glyph glyph-name="scommaaccent" unicode="&#x219;" horiz-adv-x="953" 
d="M844 746q-56 38 -143 63.5t-170 25.5q-100 0 -163 -36t-71 -100q-8 -66 34.5 -101t133.5 -48l85 -13q154 -24 224.5 -95t57.5 -181q-14 -127 -124.5 -203t-282.5 -76q-109 0 -222 35t-191 95l83 111q139 -111 328 -111q111 0 179.5 38t76.5 109q12 117 -170 144l-87 13
q-154 23 -223 95t-57 180q16 130 121 202t269 72q238 0 390 -105zM509 -88l-141 -350h-142l116 350h167z" />
    <glyph glyph-name="uni021A" unicode="&#x21a;" horiz-adv-x="1187" 
d="M1313 1248h-469l-265 -1248h-164l265 1248h-477l33 152h1109zM568 -88l-141 -350h-142l116 350h167z" />
    <glyph glyph-name="uni021B" unicode="&#x21b;" horiz-adv-x="890" 
d="M868 812h-393l-97 -461q-24 -113 19 -171.5t129 -58.5q101 0 200 68l62 -115q-126 -93 -279 -93q-163 0 -241.5 98t-39.5 276l97 457h-203l29 135h203l64 301h150l-64 -301h393zM548 -88l-141 -350h-142l116 350h167z" />
    <glyph glyph-name="gravecomb" unicode="&#x300;" horiz-adv-x="1" 
d="M-765 1392h189l210 -300h-148z" />
    <glyph glyph-name="acutecomb" unicode="&#x301;" horiz-adv-x="1" 
d="M-627 1092l241 300h194l-282 -300h-153z" />
    <glyph glyph-name="uni0302" unicode="&#x302;" horiz-adv-x="1" 
d="M-325 1093l-130 197l-209 -197h-168l288 288h200l176 -288h-157z" />
    <glyph glyph-name="tildecomb" unicode="&#x303;" horiz-adv-x="1" 
d="M-835 1237q52 57 105.5 82.5t121.5 25.5q47 0 87.5 -12.5t63.5 -27t51 -27t54 -12.5q68 0 141 68l85 -89q-54 -57 -106.5 -82.5t-120.5 -25.5q-58 0 -104.5 20t-83 40t-69.5 20q-66 0 -140 -69z" />
    <glyph glyph-name="uni0304" unicode="&#x304;" horiz-adv-x="1" 
d="M-749 1296h598l-25 -121h-598z" />
    <glyph glyph-name="uni0306" unicode="&#x306;" horiz-adv-x="1" 
d="M-665 1403q8 -95 55.5 -143t127.5 -48q152 0 245 191l119 -37q-134 -280 -377 -280q-126 0 -204.5 72.5t-86.5 207.5z" />
    <glyph glyph-name="uni0307" unicode="&#x307;" horiz-adv-x="1" 
d="M-454 1389q45 0 76 -30.5t31 -75.5t-31 -75t-76 -30q-44 0 -74.5 30t-30.5 75t30.5 75.5t74.5 30.5z" />
    <glyph glyph-name="uni0308" unicode="&#x308;" horiz-adv-x="1" 
d="M-666 1343q44 0 75 -31t31 -76t-30.5 -75t-75.5 -30t-75.5 30t-30.5 75t30.5 76t75.5 31zM-260 1343q44 0 75 -31t31 -76t-30.5 -75t-75.5 -30t-75 30t-30 75t30 76t75 31z" />
    <glyph glyph-name="uni030A" unicode="&#x30a;" horiz-adv-x="1" 
d="M-487 1072q-93 0 -160 66t-67 159t67 158.5t160 65.5q94 0 161 -65.5t67 -158.5t-67 -159t-161 -66zM-487 1167q53 0 90.5 38t37.5 92t-37.5 91.5t-90.5 37.5t-90 -37.5t-37 -91.5q0 -55 37 -92.5t90 -37.5z" />
    <glyph glyph-name="uni030B" unicode="&#x30b;" horiz-adv-x="1" 
d="M-422 1092l248 300h179l-272 -300h-155zM-766 1092l233 300h174l-250 -300h-157z" />
    <glyph glyph-name="uni030C" unicode="&#x30c;" horiz-adv-x="1" 
d="M-615 1379l129 -198l210 198h168l-288 -288h-200l-176 288h157z" />
    <glyph glyph-name="uni0312" unicode="&#x312;" horiz-adv-x="1" 
d="M-576 1092l141 351h141l-116 -351h-166z" />
    <glyph glyph-name="uni0326" unicode="&#x326;" horiz-adv-x="1" 
d="M-469 -88l-141 -350h-142l116 350h167z" />
    <glyph glyph-name="uni0327" unicode="&#x327;" horiz-adv-x="1" 
d="M-542 -323h-168l179 329l154 -1z" />
    <glyph glyph-name="uni0328" unicode="&#x328;" horiz-adv-x="1" 
d="M-306 -337q-93 -78 -216 -78q-116 0 -188 55.5t-72 141.5q0 98 80.5 169t282.5 133l15 -45q-230 -101 -230 -230q0 -43 32.5 -69.5t88.5 -26.5q73 0 140 50z" />
    <glyph glyph-name="uni1E9E" unicode="&#x1e9e;" horiz-adv-x="1454" 
d="M271 935q46 215 201.5 349.5t391.5 134.5q183 0 324 -76t212 -206l-444 -379q188 -37 286 -144.5t77 -268.5q-23 -168 -168.5 -266t-344.5 -98q-200 0 -354 66l59 149q131 -60 295 -60q145 0 238 58t107 163q16 118 -80.5 196t-267.5 78h-87l27 125l447 385
q-118 124 -336 124q-159 0 -274 -96t-149 -256l-194 -913h-164z" />
    <glyph glyph-name="uni2007" unicode="&#x2007;" 
 />
    <glyph glyph-name="uni2008" unicode="&#x2008;" horiz-adv-x="505" 
 />
    <glyph glyph-name="uni2009" unicode="&#x2009;" horiz-adv-x="178" 
 />
    <glyph glyph-name="uni200B" unicode="&#x200b;" horiz-adv-x="0" 
 />
    <glyph glyph-name="endash" unicode="&#x2013;" horiz-adv-x="1164" 
d="M1046 461h-933l28 136h933z" />
    <glyph glyph-name="emdash" unicode="&#x2014;" horiz-adv-x="1592" 
d="M1532 461h-1475l27 136h1475z" />
    <glyph glyph-name="quoteleft" unicode="&#x2018;" horiz-adv-x="483" 
d="M225 933l203 507h138l-167 -507h-174z" />
    <glyph glyph-name="quoteright" unicode="&#x2019;" horiz-adv-x="483" 
d="M561 1440l-203 -507h-138l167 507h174z" />
    <glyph glyph-name="quotesinglbase" unicode="&#x201a;" horiz-adv-x="483" 
d="M308 248l-203 -507h-138l167 507h174z" />
    <glyph glyph-name="quotedblleft" unicode="&#x201c;" horiz-adv-x="837" 
d="M225 933l203 507h138l-167 -507h-174zM579 933l203 507h138l-167 -507h-174z" />
    <glyph glyph-name="quotedblright" unicode="&#x201d;" horiz-adv-x="837" 
d="M915 1440l-203 -507h-138l167 507h174zM561 1440l-203 -507h-138l167 507h174z" />
    <glyph glyph-name="quotedblbase" unicode="&#x201e;" horiz-adv-x="837" 
d="M662 248l-203 -507h-138l167 507h174zM308 248l-203 -507h-138l167 507h174z" />
    <glyph glyph-name="bullet" unicode="&#x2022;" horiz-adv-x="839" 
d="M436 756q93 0 160 -66.5t67 -160.5t-67 -160.5t-160 -66.5q-94 0 -160.5 66.5t-66.5 160.5t66.5 160.5t160.5 66.5z" />
    <glyph glyph-name="guilsinglleft" unicode="&#x2039;" horiz-adv-x="625" 
d="M283 514l108 -355h-152l-113 370l271 370h167z" />
    <glyph glyph-name="guilsinglright" unicode="&#x203a;" horiz-adv-x="626" 
d="M367 544l-108 355h152l113 -370l-271 -370h-167z" />
    <glyph glyph-name="Euro" unicode="&#x20ac;" horiz-adv-x="1400" 
d="M1299 234q-82 -117 -200.5 -182t-263.5 -65q-142 0 -257.5 56t-191.5 169.5t-96 269.5h-189l25 124h157q0 61 9 127q6 46 11 69h-139l25 124h146q75 229 244.5 359.5t397.5 130.5q310 0 479 -247l-115 -98q-135 203 -373 203q-163 0 -285.5 -91.5t-185.5 -256.5h646
l-27 -124h-654q-10 -51 -13 -76q-8 -49 -8 -120h634l-26 -124h-598q29 -171 136 -262t256 -91q114 0 208 54.5t156 148.5z" />
    <glyph glyph-name="trademark" unicode="&#x2122;" horiz-adv-x="1427" 
d="M1315 815l93 443l-245 -382h-113l-84 381l-94 -442h-108l125 586h148l91 -403l261 403h158l-125 -586h-107zM346 815l103 486h-195l20 99h500l-21 -99h-196l-103 -486h-108z" />
    <glyph glyph-name="CR" unicode="&#xe001;" horiz-adv-x="534" 
 />
    <glyph glyph-name="eight.lf" unicode="&#xe002;" horiz-adv-x="1226" 
d="M778 1418q112 0 210.5 -40t161.5 -120.5t63 -183.5q0 -126 -86.5 -227t-238.5 -149q98 -43 153.5 -114t55.5 -165q0 -187 -155.5 -312.5t-403.5 -125.5q-123 0 -226.5 40.5t-168 119.5t-64.5 183q0 138 88.5 242t250.5 149q-83 40 -130 107t-47 155t36.5 167t103.5 140.5
t170 97.5t227 36zM628 638q-174 0 -279.5 -84t-105.5 -209q0 -101 87 -160.5t216 -59.5q175 0 282.5 83t107.5 208q0 101 -87.5 161.5t-220.5 60.5zM768 1274q-168 0 -266.5 -83t-98.5 -206q0 -98 76.5 -155t199.5 -57q166 0 268.5 81.5t102.5 201.5q0 100 -83 159t-199 59z
" />
    <glyph glyph-name="eight.osf" unicode="&#xe003;" horiz-adv-x="1185" 
d="M762 1418q110 0 205.5 -39.5t156.5 -117.5t61 -180q0 -129 -85 -232.5t-235 -150.5q95 -41 149 -112.5t54 -165.5q0 -189 -151.5 -314t-395.5 -125q-185 0 -316 94t-131 248q0 137 87.5 242t245.5 150q-81 40 -126.5 106.5t-45.5 154.5t35.5 167t101 140.5t167 98
t223.5 36.5zM611 638q-168 0 -270 -84t-102 -209q0 -101 83.5 -160.5t207.5 -59.5q170 0 274 83t104 209q0 100 -84.5 160.5t-212.5 60.5zM752 1274q-164 0 -259.5 -83t-95.5 -207q0 -97 73.5 -154t192.5 -57q160 0 259.5 82t99.5 201q0 100 -79.5 159t-190.5 59z" />
    <glyph glyph-name="eight.tosf" unicode="&#xe004;" 
d="M766 1418q110 0 205.5 -39.5t156.5 -117.5t61 -180q0 -129 -85 -232.5t-235 -150.5q95 -41 149 -112.5t54 -165.5q0 -189 -151.5 -314t-395.5 -125q-185 0 -316 94t-131 248q0 137 87.5 242t245.5 150q-81 40 -126.5 106.5t-45.5 154.5t35.5 167t101 140.5t167 98
t223.5 36.5zM615 638q-168 0 -270 -84t-102 -209q0 -101 83.5 -160.5t207.5 -59.5q170 0 274 83t104 209q0 100 -84.5 160.5t-212.5 60.5zM756 1274q-164 0 -259.5 -83t-95.5 -207q0 -97 73.5 -154t192.5 -57q160 0 259.5 82t99.5 201q0 100 -79.5 159t-190.5 59z" />
    <glyph glyph-name="five.lf" unicode="&#xe005;" horiz-adv-x="1124" 
d="M1077 1254h-590l-101 -414h162q88 0 161 -18t123 -49.5t87.5 -75t54.5 -95t22.5 -108.5t-7.5 -116q-19 -100 -67 -177.5t-117 -124.5t-151.5 -71t-175.5 -24q-143 0 -257.5 55t-189.5 163l116 91q117 -162 337 -162q138 0 232.5 72t114.5 190q6 47 4 91.5t-24.5 83
t-58.5 67.5t-98.5 45.5t-143.5 16.5h-302l167 706h733z" />
    <glyph glyph-name="five.osf" unicode="&#xe006;" horiz-adv-x="1089" 
d="M979 896h-586l-102 -417h162q87 0 159.5 -18t122 -49.5t87 -75t54 -94.5t22 -108t-7.5 -116q-19 -100 -67.5 -177.5t-116.5 -124.5t-150 -71t-174 -24q-141 0 -255 55t-188 163l114 90q117 -162 335 -162q138 0 231.5 72t113.5 191q6 47 4 91t-24.5 83t-58 68t-97 46
t-142.5 17h-300l167 705h727z" />
    <glyph glyph-name="five.tosf" unicode="&#xe007;" 
d="M1048 896h-586l-102 -417h162q87 0 159.5 -18t122 -49.5t87 -75t54 -94.5t22 -108t-7.5 -116q-19 -100 -67.5 -177.5t-116.5 -124.5t-150 -71t-174 -24q-141 0 -255 55t-188 163l114 90q117 -162 335 -162q138 0 231.5 72t113.5 191q6 47 4 91t-24.5 83t-58 68t-97 46
t-142.5 17h-300l167 705h727z" />
    <glyph glyph-name="four.lf" unicode="&#xe008;" horiz-adv-x="1136" 
d="M839 440h239l-31 -146h-239l-62 -294h-154l62 294h-641l26 125l683 980h182l-669 -959h450l84 390h154z" />
    <glyph glyph-name="four.osf" unicode="&#xe009;" horiz-adv-x="1099" 
d="M723 144h260l-31 -144h-260l-76 -360h-151l77 360h-597l28 130l618 910h162l-595 -896h414l75 346h150z" />
    <glyph glyph-name="four.tosf" unicode="&#xe00a;" 
d="M799 144h260l-31 -144h-260l-76 -360h-151l77 360h-597l28 130l618 910h162l-595 -896h414l75 346h150z" />
    <glyph glyph-name="nine.lf" unicode="&#xe00b;" horiz-adv-x="1152" 
d="M767 533q-62 -27 -137 -27q-186 0 -316 120.5t-130 301.5q0 203 148 346t371 143q202 0 337 -118.5t135 -306.5q0 -178 -145 -360l-499 -632h-194zM663 650q154 0 253 97t99 238q0 127 -90 208t-231 81q-151 0 -250 -98t-99 -239q0 -129 90.5 -208t227.5 -79z" />
    <glyph glyph-name="nine.osf" unicode="&#xe00c;" horiz-adv-x="1134" 
d="M684 175q-62 -27 -137 -27q-121 0 -222 54t-160.5 151t-59.5 216q0 99 39 189t106.5 156t164 105t206.5 39q199 0 333.5 -118.5t134.5 -305.5q0 -174 -145 -360l-497 -633h-191zM580 290q153 0 251.5 98t98.5 239q0 127 -89 208t-229 81q-152 0 -250.5 -98t-98.5 -240
q0 -130 90 -209t227 -79z" />
    <glyph glyph-name="nine.tosf" unicode="&#xe00d;" 
d="M701 175q-62 -27 -137 -27q-121 0 -222 54t-160.5 151t-59.5 216q0 99 39 189t106.5 156t164 105t206.5 39q199 0 333.5 -118.5t134.5 -305.5q0 -174 -145 -360l-497 -633h-191zM597 290q153 0 251.5 98t98.5 239q0 127 -89 208t-229 81q-152 0 -250.5 -98t-98.5 -240
q0 -130 90 -209t227 -79z" />
    <glyph glyph-name="one.lf" unicode="&#xe00e;" horiz-adv-x="819" 
d="M514 0h-156l252 1186l-427 -154l35 168l598 217z" />
    <glyph glyph-name="one.osf" unicode="&#xe00f;" horiz-adv-x="733" 
d="M450 0h-151l182 859l-355 -99l31 157l518 146z" />
    <glyph glyph-name="one.tosf" unicode="&#xe010;" 
d="M504 146l152 720l-404 -102l32 156l566 143l-196 -917l371 1l-31 -147h-880l31 145z" />
    <glyph glyph-name="seven.lf" unicode="&#xe011;" horiz-adv-x="1076" 
d="M1169 1273l-791 -1273h-184l789 1254h-753l31 146h931z" />
    <glyph glyph-name="seven.osf" unicode="&#xe012;" horiz-adv-x="1065" 
d="M1090 914l-788 -1274h-181l785 1256h-748l31 144h924z" />
    <glyph glyph-name="seven.tosf" unicode="&#xe013;" 
d="M1158 914l-788 -1274h-181l785 1256h-748l31 144h924z" />
    <glyph glyph-name="six.lf" unicode="&#xe014;" horiz-adv-x="1152" 
d="M481 866q65 28 137 28q186 0 316 -120.5t130 -301.5q0 -99 -39 -189t-106.5 -156t-165 -105t-208.5 -39q-201 0 -336.5 118.5t-135.5 306.5q0 180 145 360l500 632h194zM586 750q-155 0 -253.5 -97t-98.5 -238q0 -128 89.5 -208.5t230.5 -80.5q152 0 251 98t99 239
q0 129 -90.5 208t-227.5 79z" />
    <glyph glyph-name="six.osf" unicode="&#xe015;" horiz-adv-x="1134" 
d="M469 865q67 29 138 29q184 0 313 -120.5t129 -301.5q0 -99 -39 -189t-106.5 -156t-164 -105t-206.5 -39q-199 0 -333.5 118.5t-134.5 306.5q0 176 145 359l497 633h191zM574 751q-153 0 -251.5 -97.5t-98.5 -238.5q0 -128 89 -209t229 -81q152 0 250.5 98t98.5 240
q0 129 -90.5 208.5t-226.5 79.5z" />
    <glyph glyph-name="six.tosf" unicode="&#xe016;" 
d="M517 865q67 29 138 29q184 0 313 -120.5t129 -301.5q0 -99 -39 -189t-106.5 -156t-164 -105t-206.5 -39q-199 0 -333.5 118.5t-134.5 306.5q0 176 145 359l497 633h191zM622 751q-153 0 -251.5 -97.5t-98.5 -238.5q0 -128 89 -209t229 -81q152 0 250.5 98t98.5 240
q0 129 -90.5 208.5t-226.5 79.5z" />
    <glyph glyph-name="three.lf" unicode="&#xe017;" horiz-adv-x="1090" 
d="M221 1215q166 203 444 203q186 0 297 -93t111 -241q0 -126 -74.5 -229t-209.5 -154q82 -42 127 -112.5t45 -163.5q0 -90 -36 -170.5t-101 -141t-163.5 -96t-216.5 -35.5q-145 0 -256 46t-174 129l106 101q53 -63 139.5 -97.5t186.5 -34.5q171 0 264.5 86t93.5 211
q0 99 -75.5 156t-200.5 57h-176l31 141h162q162 0 264.5 86.5t102.5 200.5q0 93 -73.5 151.5t-188.5 58.5q-104 0 -188.5 -46t-143.5 -118z" />
    <glyph glyph-name="three.osf" unicode="&#xe018;" horiz-adv-x="1061" 
d="M138 856q164 204 440 204q182 0 292 -93.5t110 -240.5q0 -124 -76 -227.5t-213 -154.5q84 -39 130.5 -111t46.5 -168q0 -186 -140 -313.5t-373 -127.5q-144 0 -253.5 46t-171.5 129l106 100q52 -64 137 -98.5t185 -34.5q169 0 262 86.5t93 212.5q0 99 -74.5 156
t-198.5 57h-174l31 141h160q160 0 262 86.5t102 201.5q0 93 -72.5 152t-186.5 59q-193 0 -329 -166z" />
    <glyph glyph-name="three.tosf" unicode="&#xe019;" 
d="M213 856q164 204 440 204q182 0 292 -93.5t110 -240.5q0 -124 -76 -227.5t-213 -154.5q84 -39 130.5 -111t46.5 -168q0 -186 -140 -313.5t-373 -127.5q-144 0 -253.5 46t-171.5 129l106 100q52 -64 137 -98.5t185 -34.5q169 0 262 86.5t93 212.5q0 99 -74.5 156
t-198.5 57h-174l31 141h160q160 0 262 86.5t102 201.5q0 93 -72.5 152t-186.5 59q-193 0 -329 -166z" />
    <glyph glyph-name="two.lf" unicode="&#xe01a;" horiz-adv-x="1090" 
d="M236 1192q67 94 181 160t247 66q98 0 177 -30.5t127 -82.5t73.5 -116.5t25.5 -136.5q0 -129 -71 -242t-214 -239l-480 -424h629l-31 -147h-863l25 120l608 544q126 111 181 196t55 179q0 95 -65.5 163.5t-186.5 68.5q-94 0 -176.5 -48.5t-140.5 -126.5z" />
    <glyph glyph-name="two.osf" unicode="&#xe01b;" horiz-adv-x="1059" 
d="M155 857q181 203 429 203q168 0 277 -92t109 -237q0 -144 -80.5 -239t-280.5 -203l-266 -144h567l-31 -145h-856l25 115l486 279q155 90 215.5 158.5t60.5 166.5q0 87 -69 141t-174 54q-98 0 -170 -40t-144 -115z" />
    <glyph glyph-name="two.tosf" unicode="&#xe01c;" 
d="M237 857q181 203 429 203q168 0 277 -92t109 -237q0 -144 -80.5 -239t-280.5 -203l-266 -144h567l-31 -145h-856l25 115l486 279q155 90 215.5 158.5t60.5 166.5q0 87 -69 141t-174 54q-98 0 -170 -40t-144 -115z" />
    <glyph glyph-name="uni030C.alt001" unicode="&#xe01d;" horiz-adv-x="1" 
d="M-651 1051l89 389h166l-131 -389h-124z" />
    <glyph glyph-name="uni0328.alt001" unicode="&#xe01e;" horiz-adv-x="1" 
d="M-346 -342q-79 -71 -181 -71q-94 0 -154 46.5t-60 122.5q0 81 61.5 149.5t220.5 149.5l36 -55q-175 -117 -175 -215q0 -32 22.5 -51.5t61.5 -19.5q52 0 100 45z" />
    <glyph glyph-name="uni0328.alt002" unicode="&#xe01f;" horiz-adv-x="1" 
d="M-403 11q-223 -91 -223 -207q0 -40 31.5 -65t85.5 -25q76 0 143 50l58 -104q-103 -74 -225 -74q-112 0 -179.5 53t-67.5 135q0 96 83.5 166.5t284.5 128.5z" />
    <glyph glyph-name="uni0328.alt003" unicode="&#xe020;" horiz-adv-x="1" 
d="M-345 -335q-86 -79 -194 -79q-91 0 -147 43.5t-56 118.5q0 95 87 166.5t276 143.5l28 -58q-246 -108 -246 -217q0 -32 21.5 -50.5t57.5 -18.5q55 0 105 48z" />
    <glyph glyph-name="uni0328.alt004" unicode="&#xe021;" horiz-adv-x="1" 
d="M-306 -337q-93 -78 -216 -78q-116 0 -188 57.5t-72 146.5q0 91 83 165.5t289 128.5l24 -55q-137 -50 -192.5 -104t-55.5 -112q0 -45 32 -72t89 -27q73 0 140 50z" />
    <glyph glyph-name="zero.lf" unicode="&#xe022;" horiz-adv-x="1410" 
d="M856 1419q225 0 356.5 -151.5t131.5 -396.5q0 -103 -21.5 -208t-61.5 -204.5t-101.5 -186t-136.5 -151.5t-171.5 -102.5t-201.5 -37.5q-225 0 -356.5 152t-131.5 396q0 102 21.5 207t61.5 204t101.5 186t136 152t171 103t202.5 38zM848 1271q-81 0 -155 -32t-130 -86.5
t-102 -127t-75.5 -154t-45 -166t-15.5 -165.5q0 -188 90 -299.5t242 -111.5q121 0 223 68.5t166 176.5t99.5 235t35.5 251q0 189 -90 300t-243 111z" />
    <glyph glyph-name="zero.osf" unicode="&#xe023;" horiz-adv-x="1336" 
d="M710 1060q145 0 262.5 -60t186.5 -174t69 -261q0 -159 -73.5 -292.5t-208 -213t-301.5 -79.5q-222 0 -369.5 136.5t-147.5 358.5q0 159 73.5 292.5t208 213t300.5 79.5zM703 919q-186 0 -304 -126.5t-118 -308.5q0 -165 105 -264t267 -99q186 0 304 126.5t118 309.5
q0 163 -105.5 262.5t-266.5 99.5z" />
    <glyph glyph-name="zero.tosf" unicode="&#xe024;" 
d="M646 1059q211 0 348.5 -136t137.5 -355q0 -161 -69.5 -295t-196.5 -213.5t-285 -79.5q-209 0 -346.5 136t-137.5 356q0 160 69 294t195.5 213.5t284.5 79.5zM639 922q-115 0 -205 -60t-137.5 -160t-47.5 -221q0 -164 95.5 -263t244.5 -99q115 0 205 60t137.5 160
t47.5 220q0 164 -95 263.5t-245 99.5z" />
    <glyph glyph-name="uniFB00" unicode="&#xfb00;" horiz-adv-x="1632" 
d="M841 812h-355l-173 -812h-151l173 812h-213l29 135h213l40 188q33 157 121 240.5t226 83.5q142 0 238 -79l-73 -116q-73 55 -166 55q-72 0 -124 -50.5t-75 -153.5l-36 -168h354zM1644 812h-355l-173 -812h-151l173 812h-213l29 135h213l40 188q33 157 121 240.5t226 83.5
q142 0 238 -79l-73 -116q-73 55 -166 55q-72 0 -124 -50.5t-75 -153.5l-36 -168h354z" />
    <glyph glyph-name="fi" unicode="&#xfb01;" horiz-adv-x="1313" 
d="M841 812h-355l-173 -812h-151l173 812h-213l29 135h213l40 188q33 157 121 240.5t226 83.5q142 0 238 -79l-73 -116q-73 55 -166 55q-72 0 -124 -50.5t-75 -153.5l-36 -168h354zM1045 0h-151l202 947h151zM1241 1389q45 0 76 -30.5t31 -75.5t-31 -75t-76 -30
q-44 0 -74.5 30t-30.5 75t30.5 75.5t74.5 30.5z" />
    <glyph glyph-name="fl" unicode="&#xfb02;" horiz-adv-x="1312" 
d="M841 812h-355l-173 -812h-151l173 812h-213l29 135h213l40 188q33 157 121 240.5t226 83.5q142 0 238 -79l-73 -116q-73 55 -166 55q-72 0 -124 -50.5t-75 -153.5l-36 -168h354zM1045 0h-151l306 1440h151z" />
    <glyph glyph-name="uniFB03" unicode="&#xfb03;" horiz-adv-x="2116" 
d="M841 812h-355l-173 -812h-151l173 812h-213l29 135h213l40 188q33 157 121 240.5t226 83.5q142 0 238 -79l-73 -116q-73 55 -166 55q-72 0 -124 -50.5t-75 -153.5l-36 -168h354zM1644 812h-355l-173 -812h-151l173 812h-213l29 135h213l40 188q33 157 121 240.5t226 83.5
q142 0 238 -79l-73 -116q-73 55 -166 55q-72 0 -124 -50.5t-75 -153.5l-36 -168h354zM1848 0h-151l202 947h151zM2044 1389q45 0 76 -30.5t31 -75.5t-31 -75t-76 -30q-44 0 -74.5 30t-30.5 75t30.5 75.5t74.5 30.5z" />
    <glyph glyph-name="uniFB04" unicode="&#xfb04;" horiz-adv-x="2115" 
d="M841 812h-355l-173 -812h-151l173 812h-213l29 135h213l40 188q33 157 121 240.5t226 83.5q142 0 238 -79l-73 -116q-73 55 -166 55q-72 0 -124 -50.5t-75 -153.5l-36 -168h354zM1644 812h-355l-173 -812h-151l173 812h-213l29 135h213l40 188q33 157 121 240.5t226 83.5
q142 0 238 -79l-73 -116q-73 55 -166 55q-72 0 -124 -50.5t-75 -153.5l-36 -168h354zM1848 0h-151l306 1440h151z" />
    <glyph glyph-name="uniFB05" unicode="&#xfb05;" horiz-adv-x="1438" 
d="M1414 812h-391l-97 -461q-24 -113 19 -171.5t129 -58.5q101 0 200 68l62 -115q-126 -93 -279 -93q-164 0 -241 98t-40 276l96 457h-204l29 135h206l19 87q11 55 11 91q0 95 -56 144.5t-148 49.5q-110 0 -191 -71.5t-112 -215.5l-219 -1032h-150l223 1051
q45 204 168.5 306t292.5 102q150 0 245 -86t95 -236q0 -59 -12 -116l-16 -74h390z" />
    <glyph glyph-name="uniFB06" unicode="&#xfb06;" horiz-adv-x="1834" 
d="M844 746q-56 38 -143 63.5t-170 25.5q-100 0 -163 -36t-71 -100q-8 -66 34.5 -101t133.5 -48l85 -13q154 -24 224.5 -95t57.5 -181q-14 -127 -124.5 -203t-282.5 -76q-109 0 -222 35t-191 95l83 111q139 -111 328 -111q111 0 179.5 38t76.5 109q12 117 -170 144l-87 13
q-154 23 -223 95t-57 180q16 130 121 202t269 72q238 0 390 -105zM1812 812h-393l-97 -461q-24 -113 19 -171.5t129 -58.5q101 0 200 68l62 -115q-126 -93 -279 -93q-163 0 -241.5 98t-39.5 276l97 457h-203l29 135h203l64 301h150l-64 -301h393z" />
    <glyph glyph-name="uniFEFF" unicode="&#xfeff;" horiz-adv-x="0" 
 />
    </font>
</defs>
</svg>
